<svg id="Capa_1" enable-background="new 0 0 512 512" height="512" viewBox="0 0 512 512" width="512" xmlns="http://www.w3.org/2000/svg"><g><path d="m346.47 112.195.494.281.494-.281c2.31-1.313 4.647-2.516 7.006-3.634v-29.261l1-1.319v-17.382l-1-2.513v-19.317c0-4.142-3.357-7.5-7.5-7.5s-7.5 3.358-7.5 7.5v69.792c2.358 1.118 4.696 2.322 7.006 3.634z" fill="#a44f3e"/><path d="m396.59 97.995c-17.766 0-34.593 4.787-49.625 13.331-15.034-8.543-31.861-13.331-49.627-13.331-48.603 0-90.184 35.794-107.194 86.458 10.689-3.935 21.778-5.927 33.147-5.927 65.546 0 118.871 67.56 118.871 150.602 0 11.905-1.101 23.489-3.172 34.603 2.711-1.25 5.372-2.62 7.98-4.102 15.032 8.544 31.855 13.337 49.62 13.337 63.739 0 115.41-61.554 115.41-137.486s-51.671-137.485-115.41-137.485z" fill="#fe9901"/><g><g fill="#fb8801"><path d="m223.29 178.526c4.003 0 7.96.256 11.862.748 15.203-40.373 46.28-70.418 83.769-78.868-6.993-1.576-14.206-2.411-21.584-2.411-48.603 0-90.184 35.794-107.194 86.458 10.69-3.934 21.778-5.927 33.147-5.927z"/><g><path d="m324.686 250.605c-.456-4.967-.694-10.012-.694-15.124 0-67.217 40.494-123.158 94.004-135.115-6.937-1.55-14.091-2.37-21.406-2.37-53.57 0-98.61 43.483-111.62 102.435 16.171 12.485 29.814 29.726 39.716 50.174z"/><path d="m340.89 307.139c.833 7.18 1.271 14.521 1.271 21.99 0 9.009-.629 17.834-1.832 26.412 16.646 11.094 35.831 17.426 56.261 17.426 7.315 0 14.469-.82 21.406-2.37-32.608-7.287-60.383-30.907-77.106-63.458z"/></g></g><g><g><ellipse cx="419.703" cy="133.931" fill="#8bc727" rx="37.96" ry="65.236" transform="matrix(.707 -.707 .707 .707 28.224 336.002)"/></g><g><path d="m412.414 141.22c-5.15-5.15-9.415-10.815-12.809-16.779l-28.199-28.199c-4.029 21.811 3.274 46.351 21.455 64.532 20.57 20.57 49.283 27.227 72.97 19.287 1.767-5.272 2.807-10.794 3.135-16.418-19.647 1.147-40.56-6.431-56.552-22.423z" fill="#81b823"/></g><path d="m438.053 141.675-83.589-83.589v21.214l72.981 72.981c1.465 1.464 3.385 2.197 5.304 2.197s3.839-.732 5.304-2.197c2.928-2.929 2.928-7.678 0-10.606z" fill="#78a91f"/></g></g><g><g><path d="m74.291 190.045c14.044-7.415 29.44-11.519 45.581-11.519 9.368 0 18.545 1.361 27.466 4.037 2.578-25.155-6.755-52.549-27.509-73.303-25.322-25.321-60.532-33.654-89.495-24.077-9.577 28.964-1.245 64.173 24.078 89.495 6.123 6.124 12.828 11.244 19.879 15.367z" fill="#8bc727"/><path d="m74.291 190.045c12.77-6.743 26.659-10.737 41.208-11.407-11.796-4.657-23.051-11.872-32.828-21.649-21.403-21.403-30.666-49.868-27.239-75.656-8.616-.069-17.096 1.203-25.099 3.849-9.577 28.964-1.245 64.173 24.078 89.495 6.124 6.125 12.829 11.245 19.88 15.368z" fill="#81b823"/><path d="m113.304 178.76c2.175-.151 4.364-.233 6.568-.233 5.304 0 10.545.443 15.715 1.304l-59.224-59.224c-2.928-2.929-7.677-2.929-10.606 0s-2.929 7.678 0 10.606z" fill="#78a91f"/></g><path d="m171.062 193.178.518.313.518-.313c2.303-1.395 4.632-2.679 6.982-3.876v-43.579c0-4.142-3.358-7.5-7.5-7.5s-7.5 3.358-7.5 7.5v43.579c2.35 1.197 4.68 2.481 6.982 3.876z" fill="#a44f3e"/><g><path d="m119.871 177.526c18.518 0 36.053 5.314 51.709 14.796 15.656-9.482 33.192-14.796 51.709-14.796 66.203 0 119.871 67.875 119.871 151.602s-53.667 151.603-119.87 151.603c-18.518 0-36.053-5.314-51.709-14.796-15.656 9.482-33.192 14.796-51.709 14.796-66.204 0-119.872-67.875-119.872-151.603 0-83.727 53.668-151.602 119.871-151.602z" fill="#fdb441"/></g><g><g><path d="m42.753 329.128c0-74.489 42.479-136.428 98.471-149.19-6.93-1.577-14.063-2.412-21.352-2.412-66.204 0-119.872 67.875-119.872 151.602s53.668 151.602 119.871 151.602c7.289 0 14.422-.835 21.352-2.412-55.992-12.762-98.47-74.701-98.47-149.19z" fill="#fea613"/></g></g><g><ellipse cx="171.581" cy="329.128" fill="#a44f3e" rx="60.725" ry="75.213"/></g><g><path d="m154.123 329.128c0-29.127 15.82-54.433 39.091-67.355-6.666-3.701-13.94-6.392-21.634-7.859-34.551 6.584-60.725 37.743-60.725 75.213 0 37.471 26.174 68.629 60.725 75.213 7.693-1.466 14.967-4.157 21.634-7.859-23.271-12.919-39.091-38.225-39.091-67.353z" fill="#883f2e"/></g></g><path d="m239.806 329.128c0-38.313-25.191-71.464-60.725-81.154v-15.518c0-4.142-3.358-7.5-7.5-7.5s-7.5 3.358-7.5 7.5v15.518c-35.534 9.689-60.725 42.841-60.725 81.154s25.191 71.465 60.725 81.154v15.518c0 4.142 3.358 7.5 7.5 7.5s7.5-3.358 7.5-7.5v-15.518c35.534-9.689 60.725-42.841 60.725-81.154zm-68.225 67.563c-30.928-6.596-53.225-34.775-53.225-67.563 0-32.787 22.297-60.966 53.225-67.563 30.928 6.597 53.225 34.776 53.225 67.563s-22.298 60.967-53.225 67.563z" fill="#fe9901"/></g></svg>