<svg id="Capa_1" enable-background="new 0 0 512 512" height="512" viewBox="0 0 512 512" width="512" xmlns="http://www.w3.org/2000/svg"><g><g><g><path d="m300.065 62.649h76.653l14.339-49.32c1.045-3.596-1.652-7.189-5.397-7.189h-95.002c-3.765 0-6.465 3.63-5.383 7.236z" fill="#ffbd86"/><path d="m300.065 62.649h32.635l-14.79-49.273c-1.082-3.606 1.618-7.236 5.383-7.236h-32.635c-3.765 0-6.466 3.63-5.383 7.236z" fill="#f6a96c"/><path d="m378.753 212.352c7.215-8.503 17.968-13.915 29.967-13.915 21.671 0 39.3 17.63 39.3 39.3 0 11.099-4.632 21.131-12.056 28.284 8.89 4.432 17.297 9.844 25.047 16.139 10.181-11.973 16.337-27.475 16.337-44.423 0-37.903-30.726-68.629-68.629-68.629-10.746 0-20.912 2.474-29.967 6.877v36.367z" fill="#62dbfb"/></g><path d="m401.329 253.298c-12.542-2.365-21.576-13.404-21.576-26.167v-131.288h-81.325v130.958c0 12.885-9.204 23.987-21.892 26.226-29.401 5.187-55.613 19.927-75.298 40.863.743 8.515 1.13 17.195 1.13 25.953 0 21.845-2.269 42.946-6.742 62.717l-.215.95.944.24c11.934 3.033 22.992 9.386 31.979 18.373 12.233 12.233 19.438 28.023 20.287 44.462.847 16.4-4.737 31.482-15.724 42.469-1.245 1.245-2.548 2.419-3.901 3.526 16.357 8.479 34.893 13.281 54.498 13.281h109.331c65.546-.001 119.175-53.629 119.175-119.176 0-66.095-47.882-121.549-110.671-133.387z" fill="#c8effe"/><g><path d="m201.852 337.462c3.896-7.723 8.695-15.029 14.377-21.72 16.697-19.662 39.703-32.928 64.782-37.353l25.778.048c.733-.142 1.461-.302 2.198-.432 12.689-2.239 21.892-13.341 21.892-26.226v-155.936h-32.451v130.958c0 12.885-9.204 23.987-21.892 26.226-29.401 5.187-55.613 19.927-75.298 40.863.743 8.515 1.13 17.195 1.13 25.953 0 5.934-.182 11.807-.516 17.619z" fill="#99e6fc"/></g><path d="m460.486 316.206c-16.433-19.572-39.137-32.925-63.929-37.6l-115.546-.217c-25.079 4.425-48.086 17.69-64.782 37.353-5.681 6.691-10.48 13.997-14.377 21.72-.894 15.585-2.968 30.697-6.226 45.097l-.215.95.944.24c11.934 3.033 22.992 9.386 31.979 18.373 12.233 12.233 19.438 28.023 20.287 44.462.458 8.862-.978 17.332-4.114 24.986 11.873 5.475 25.079 8.535 38.987 8.535h109.331c51.512 0 93.421-41.908 93.421-93.421-.001-25.664-9.148-50.694-25.76-70.478z" fill="#fac600"/><path d="m244.157 386.685c0-25.885 9.289-51.079 26.156-70.943 16.584-19.53 39.396-32.739 64.278-37.252l-53.58-.101c-25.079 4.425-48.086 17.69-64.782 37.353-5.681 6.691-10.48 13.997-14.377 21.72-.894 15.585-2.968 30.697-6.226 45.097l-.215.95.944.24c11.934 3.033 22.992 9.386 31.979 18.373 12.233 12.233 19.438 28.023 20.287 44.462.458 8.862-.978 17.332-4.114 24.986 11.873 5.475 25.079 8.535 38.987 8.535h54.085c-51.513.001-93.422-41.908-93.422-93.42z" fill="#e8b800"/><g><path d="m387.286 96.843h-100.053c-8.738 0-16.921-4.281-21.903-11.459l-10.663-15.362c-2.455-3.536.076-8.373 4.381-8.373h128.238c9.719 0 17.597 7.879 17.597 17.597 0 9.719-7.878 17.597-17.597 17.597z" fill="#99e6fc"/></g><g><path d="m319.133 85.384-10.663-15.362c-2.455-3.536.076-8.373 4.381-8.373h-53.803c-4.305 0-6.835 4.837-4.381 8.373l10.663 15.362c4.982 7.178 13.166 11.459 21.903 11.459h53.803c-8.737 0-16.92-4.281-21.903-11.459z" fill="#62dbfb"/></g></g><g><path d="m153.316 388.636c8.147-4.484 17.501-6.883 27.369-6.883 5.272 0 10.544.696 15.696 2.015 4.483-19.443 6.987-41.097 6.987-63.925 0-50.227-12.108-94.78-30.789-122.568-1.258-1.871-4.034-1.871-5.292 0-18.681 27.788-30.789 72.342-30.789 122.568 0 17.503 1.478 34.311 4.184 49.967 4.586 6.236 8.808 12.531 12.634 18.826z" fill="#09a76d"/><path d="m153.316 388.636c3.712-2.043 7.674-3.651 11.824-4.795-4.495-19.461-7.007-41.139-7.007-63.998 0-42.462 8.655-80.867 22.618-108.518-2.553-5.056-5.283-9.755-8.171-14.05-1.258-1.871-4.034-1.871-5.292 0-18.681 27.788-30.789 72.342-30.789 122.568 0 17.503 1.478 34.311 4.184 49.967 4.585 6.236 8.807 12.531 12.633 18.826z" fill="#02905d"/><path d="m177.434 381.848v-99.179c0-4.142-3.358-7.5-7.5-7.5s-7.5 3.358-7.5 7.5v101.99c4.762-1.577 9.796-2.531 15-2.811z" fill="#026841"/></g><g><path d="m76.3 393.31c7.97-3.166 16.77-4.938 26.026-4.938 13.978 0 26.924 4.025 37.513 10.836.511-.557 1.025-1.112 1.562-1.649 3.789-3.788 8.098-6.941 12.792-9.411-10.812-17.814-24.933-35.877-41.952-52.896-35.516-35.516-75.581-58.458-108.44-64.898-2.213-.434-4.176 1.529-3.742 3.742 6.44 32.858 29.383 72.924 64.898 108.44 3.736 3.735 7.522 7.323 11.343 10.774z" fill="#09a76d"/><path d="m76.3 393.31c7.97-3.166 16.77-4.938 26.026-4.938 1.898 0 3.772.089 5.629.234-8.368-6.704-16.639-14.096-24.678-22.134-29.333-29.333-50.079-61.767-60.044-90.684-6.683-2.388-13.187-4.211-19.43-5.434-2.213-.434-4.176 1.529-3.742 3.742 6.44 32.858 29.383 72.924 64.898 108.44 3.734 3.735 7.52 7.323 11.341 10.774z" fill="#02905d"/><path d="m107.688 388.588c11.54.857 22.229 4.444 31.265 10.052l-71.335-71.335c-2.929-2.929-7.678-2.929-10.606 0-2.929 2.929-2.929 7.678 0 10.606z" fill="#026841"/></g><g><g><path d="m145.964 484.491c-12.233-12.233-19.438-28.023-20.287-44.462-.825-15.966 4.462-30.672 14.879-41.577-10.772-6.965-23.964-11.079-38.23-11.079-36.283 0-65.696 26.524-65.696 59.244s29.413 59.244 65.696 59.244c18.533 0 35.262-6.931 47.206-18.063-1.218-1.064-2.416-2.155-3.568-3.307z" fill="#8bc727"/><g><path d="m68.978 446.617c0-27.686 21.061-50.931 49.522-57.43-5.175-1.182-10.592-1.814-16.174-1.814-36.283 0-65.696 26.524-65.696 59.244s29.413 59.244 65.696 59.244c5.582 0 10.999-.633 16.174-1.814-28.461-6.499-49.522-29.745-49.522-57.43z" fill="#81b823"/></g><g><path d="m63.613 461.155c-4.142 0-7.5-3.358-7.5-7.5v-14.078c0-4.142 3.358-7.5 7.5-7.5s7.5 3.358 7.5 7.5v14.078c0 4.142-3.358 7.5-7.5 7.5z" fill="#bbec6c"/></g></g><g><g><ellipse cx="187.149" cy="443.307" fill="#8bc727" rx="59.244" ry="65.696" transform="matrix(.707 -.707 .707 .707 -258.651 262.176)"/></g><g><path d="m177.309 485.198c-25.656-25.656-27.699-65.21-4.562-88.346 6.878-6.878 15.212-11.512 24.195-13.981-20.192-5.245-41.537-.729-56.247 13.981-23.136 23.136-21.093 62.69 4.562 88.346 18.029 18.029 42.916 24.379 64.151 18.544-11.566-3.004-22.755-9.2-32.099-18.544z" fill="#81b823"/></g><g><path d="m154.797 428.409c-1.919 0-3.839-.732-5.303-2.197-2.929-2.929-2.929-7.678 0-10.606l9.955-9.955c2.929-2.929 7.678-2.929 10.606 0 2.929 2.929 2.929 7.678 0 10.606l-9.955 9.955c-1.464 1.465-3.384 2.197-5.303 2.197z" fill="#bbec6c"/></g></g></g></g></svg>