<svg id="Capa_1" enable-background="new 0 0 512 512" height="512" viewBox="0 0 512 512" width="512" xmlns="http://www.w3.org/2000/svg"><g><path d="m170.224 70.839 2.4 1h190.788l2.8-1 13.523-30.167c1.406-3.135-.589-6.743-3.992-7.219l-238.592-33.402c-3.103-.434-5.874 1.975-5.874 5.109v24.597c0 1.368.543 2.68 1.511 3.648z" fill="#99e6fc"/><path d="m170.224 70.839 2.4 1h42.699l-2.4-1-37.435-37.435c-.967-.967-1.511-2.28-1.511-3.648v-24.55l-36.825-5.156c-3.103-.434-5.874 1.975-5.874 5.109v24.597c0 1.368.543 2.68 1.511 3.648z" fill="#62dbfb"/><path d="m427.905 118.58h-62.693v37.69h62.693c13.781 0 24.994 11.213 24.994 24.994v128.411c0 12.664-9.47 23.151-21.699 24.77 1.222 9.98 1.854 20.126 1.854 30.376 0 2.448-.047 4.886-.117 7.319 32.264-2.566 57.652-29.541 57.652-62.465v-128.411c0-34.619-28.065-62.684-62.684-62.684z" fill="#99e6fc"/><path d="m388.657 224.929c-14.58-18.898-22.445-42.114-22.445-65.983v-88.107h-195.988v88.107c0 16.625-3.825 32.928-11.067 47.681 3.775-3.218 8.511-4.985 13.524-4.985 5.582 0 10.83 2.174 14.776 6.121 3.947 3.947 6.121 9.195 6.121 14.776s-2.174 10.83-6.121 14.776l-35.537 35.537h35.201c1.494 0 2.924.637 3.924 1.747 1.001 1.11 1.485 2.599 1.33 4.085l-24.308 232.316.9 1h213.791c31.606-37.059 51.296-89.296 51.296-147.179 0-54.188-17.26-103.423-45.397-139.892z" fill="#c8effe"/><g fill="#99e6fc"><path d="m171.726 476.034-3.659 34.966.9 1h27.115c-9.193-10.78-17.37-22.852-24.356-35.966z"/><path d="m170.224 70.839v88.107c0 16.625-3.825 32.928-11.067 47.681 3.775-3.218 8.511-4.985 13.524-4.985 5.582 0 10.83 2.174 14.776 6.121 3.44 3.439 5.53 7.867 6.011 12.643 12.464-18.021 19.16-39.459 19.16-61.459v-88.108z"/></g><path d="m368.266 240.662c-16.952-21.973-26.705-49.11-27.72-76.894-.098-2.69-2.296-4.822-4.988-4.822h-134.68c-2.692 0-4.889 2.132-4.987 4.822-.545 14.922-3.633 29.649-8.981 43.498.18.168.372.321.547.497 3.947 3.947 6.121 9.195 6.121 14.776s-2.174 10.83-6.121 14.776l-35.537 35.537h35.201c1.494 0 2.924.637 3.924 1.747 1.001 1.11 1.485 2.599 1.33 4.085l-21.718 207.561h197.123c1.605 0 3.124-.761 4.057-2.067 23.301-32.589 36.462-75.284 36.462-119.357.001-46.605-14.216-90.699-40.033-124.159z" fill="#fff3de"/><g fill="#ffe5c2"><path d="m170.657 486.245h37.848c-14.055-19.044-24.567-41.701-30.926-66.152z"/><path d="m200.878 158.946c-2.692 0-4.889 2.132-4.987 4.822-.545 14.922-3.633 29.649-8.981 43.498.18.168.372.321.547.497 3.947 3.947 6.121 9.195 6.121 14.776s-2.174 10.83-6.121 14.776l-35.537 35.537h35.201c1.161 0 2.279.388 3.191 1.08 5.633-11.92 12.407-23.09 20.261-33.27 17.934-23.243 27.81-52.264 27.81-81.716z"/></g><path d="m54.255 272.853h99.079l34.831-34.831c8.551-8.551 8.551-22.416 0-30.967-8.551-8.551-22.416-8.551-30.967 0l-32.181 32.181c-11.721 11.721-30.723 11.721-42.444 0l-14.615-14.615c-8.551-8.551-22.416-8.551-30.967 0-8.551 8.551-8.551 22.416 0 30.967z" fill="#fff3de"/><path d="m54.255 272.853h32.577l-17.265-17.265c-8.279-8.279-8.518-21.525-.764-30.121l-.846-.846c-8.551-8.551-22.416-8.551-30.967 0s-8.551 22.416 0 30.967z" fill="#ffe5c2"/><g><path d="m168.968 512h-117.462c-3.216 0-5.913-2.429-6.248-5.628l-23.812-227.584c-.388-3.708 2.52-6.935 6.248-6.935h159.428c3.728 0 6.635 3.228 6.248 6.935z" fill="#c8effe"/></g><path d="m88.281 506.372-2.027-19.372h-13.383c-2.56 0-4.707-1.934-4.973-4.48l-18.849-180.147c-.309-2.951 2.006-5.52 4.973-5.52h12.337l-1.89-18.065c-.388-3.708 2.52-6.935 6.248-6.935h-43.024c-3.728 0-6.635 3.228-6.248 6.935l23.812 227.584c.335 3.199 3.031 5.628 6.247 5.628h43.023c-3.214 0-5.911-2.429-6.246-5.628z" fill="#99e6fc"/><g><circle cx="106.523" cy="194.289" fill="#fff3de" r="19.473"/></g><g><path d="m104.764 194.289c0-7.562 4.319-14.102 10.616-17.328-2.659-1.362-5.664-2.145-8.857-2.145-10.755 0-19.473 8.718-19.473 19.473s8.718 19.473 19.473 19.473c3.193 0 6.198-.783 8.857-2.145-6.297-3.226-10.616-9.766-10.616-17.328z" fill="#ffe5c2"/></g><g><circle cx="48.419" cy="168.95" fill="#fff3de" r="12.877"/></g><g><path d="m46.873 168.95c0-5.076 2.944-9.453 7.211-11.55-1.712-.841-3.63-1.327-5.666-1.327-7.112 0-12.877 5.765-12.877 12.877s5.765 12.877 12.877 12.877c2.036 0 3.954-.485 5.666-1.327-4.267-2.097-7.211-6.475-7.211-11.55z" fill="#ffe5c2"/></g><path d="m67.899 482.52-18.85-180.147c-.309-2.951 2.006-5.52 4.973-5.52h106.769c2.967 0 5.282 2.569 4.973 5.52l-18.848 180.147c-.266 2.546-2.413 4.48-4.973 4.48h-69.072c-2.56 0-4.706-1.934-4.972-4.48z" fill="#fff3de"/><path d="m99.107 482.52-18.85-180.147c-.309-2.951 2.006-5.52 4.973-5.52h-31.208c-2.967 0-5.282 2.569-4.973 5.52l18.849 180.147c.266 2.546 2.413 4.48 4.973 4.48h31.208c-2.56 0-4.706-1.934-4.972-4.48z" fill="#ffe5c2"/></g></svg>