<svg id="Capa_1" enable-background="new 0 0 512 512" height="512" viewBox="0 0 512 512" width="512" xmlns="http://www.w3.org/2000/svg"><g><g><g><path d="m426.459 271.084c5.209 29.031 3.306 57.922-5.684 85.887-.26.808-.53 1.611-.801 2.415 2.579-1.005 5.16-2.064 7.738-3.19 44.223-19.308 75.813-51.172 84.289-81.084-21.153-10.781-52.305-12.439-85.542-4.028z" fill="#09a76d"/><path d="m429.105 311.303c-.744 15.408-3.51 30.672-8.331 45.668-.26.808-.53 1.611-.801 2.415 2.579-1.005 5.16-2.064 7.738-3.19 44.224-19.307 75.813-51.172 84.289-81.084z" fill="#02905d"/></g></g><g><g><path d="m107.466 254.395c0-22.449 3.477-44.26 10.338-65.2-3.515-4.127-7.247-8.188-11.21-12.151-34.121-34.121-75.319-51.896-106.261-48.865-3.03 30.942 14.744 72.14 48.865 106.261 18.592 18.592 39.282 32.317 59.272 40.481-.664-6.805-1.004-13.653-1.004-20.526z" fill="#09a76d"/><path d="m107.466 254.395c0-6.147.276-12.243.793-18.29l-107.926-107.926c-3.03 30.942 14.744 72.14 48.865 106.261 18.592 18.592 39.282 32.317 59.272 40.481-.664-6.805-1.004-13.653-1.004-20.526z" fill="#02905d"/></g></g><g><g><path d="m316.618 208.222.325 1.442 1.218-.838c11.658-8.023 24.199-14.734 37.418-20.034 3.74-3.233 7.424-6.641 11.026-10.243 34.121-34.121 51.896-75.319 48.865-106.261-30.942-3.03-72.14 14.744-106.261 48.865-7.125 7.125-13.527 14.561-19.186 22.146 12.378 20.046 21.416 41.932 26.595 64.923z" fill="#09a76d"/><path d="m316.618 208.222.325 1.442 1.218-.838c11.658-8.023 24.199-14.734 37.418-20.034 3.74-3.232 7.424-6.641 11.026-10.243 34.121-34.121 51.896-75.319 48.865-106.261l-107.44 107.442c3.525 9.263 6.4 18.78 8.588 28.492z" fill="#02905d"/></g></g><path d="m255.975 282.743.267-.584c13.405-29.348 34.838-54.466 61.596-73.032-11.74-53.478-43.852-99.907-88.338-131.701-8.792-6.284-20.997-6.284-29.79 0-56.644 40.483-93.244 104.687-93.244 176.969 0 9.605.65 19.065 1.904 28.348z" fill="#883f2e"/><path d="m255.975 282.743.267-.584c7.261-15.897 16.876-30.557 28.417-43.606-3.202-65.771-26.166-123.628-60.35-161.127-5.728-6.284-13.68-6.284-19.408 0-36.904 40.483-60.75 104.687-60.75 176.969 0 9.608.445 19.062 1.262 28.348z" fill="#a44f3e"/><path d="m238.389 282.743c.281-9.286.434-18.74.434-28.348 0-72.282-8.197-136.485-20.883-176.969-1.969-6.284-4.703-6.284-6.672 0-12.686 40.483-20.883 104.687-20.883 176.969 0 9.608.153 19.062.434 28.348z" fill="#883f2e"/><path d="m263.475 411.72c-15.508-15.688-23.568-35.705-23.313-57.888.205-17.699 3.069-35.258 8.513-52.189 2.199-6.84 4.782-13.473 7.728-19.9h-172.551c-2.906 0-5.248 2.406-5.157 5.31 2.528 80.637 62.409 145.149 135.909 145.149 20.185 0 39.338-4.875 56.562-13.603-2.706-2.148-5.281-4.441-7.691-6.879z" fill="#ffbd86"/><path d="m121.193 287.053c-.091-2.905 2.251-5.311 5.157-5.311h-42.498c-2.906 0-5.248 2.406-5.157 5.311 2.528 80.637 62.409 145.149 135.909 145.149 7.23 0 14.325-.633 21.249-1.836-63.473-11.02-112.38-70.607-114.66-143.313z" fill="#f6a96c"/><g fill="#fff3de"><circle cx="121.561" cy="346.141" r="7.5"/><circle cx="147.316" cy="376.016" r="7.5"/><circle cx="179.252" cy="392.499" r="7.5"/><circle cx="123.622" cy="315.235" r="7.5"/><circle cx="154.527" cy="347.171" r="7.5"/></g><g><path d="m247.722 301.337c-5.587 17.379-8.358 35.024-8.56 52.483-.95 82.162 111.826 118.419 158.935 51.096 10.01-14.306 18.041-30.259 23.629-47.639 18.696-58.154 5.856-119.275-29.245-166.497-5.448-7.33-15.268-10.487-23.967-7.705-56.043 17.92-102.096 60.108-120.792 118.262z" fill="#6d3326"/><path d="m278.041 311.084c-5.587 17.379-9.275 34.729-11.186 51.639-8.992 79.576 64.483 103.198 103.548 33.29 8.301-14.855 15.416-31.103 21.003-48.483 18.696-58.154 16.118-115.976-3.102-158.092-2.983-6.537-9.381-8.594-15.615-5.02-40.161 23.025-75.952 68.512-94.648 126.666z" fill="#883f2e"/><path d="m315.24 323.043c-5.587 17.379-10.399 34.368-14.407 50.604-18.86 76.404 6.397 84.524 35.595 11.443 6.205-15.53 12.194-32.139 17.782-49.519 18.696-58.154 28.708-111.928 28.973-147.78.041-5.565-2.158-6.272-5.368-1.726-20.678 29.29-43.88 78.824-62.575 136.978z" fill="#6d3326"/></g></g></svg>