<svg id="Capa_1" enable-background="new 0 0 512 512" height="512" viewBox="0 0 512 512" width="512" xmlns="http://www.w3.org/2000/svg"><g><g><g><path d="m197.953 133.308c.507-4.832.777-9.775.777-14.808 0-38.323-15.247-71.575-37.577-88.141-1.209-.897-2.851-.897-4.06 0-22.33 16.566-37.577 49.818-37.577 88.141 0 5.033.27 9.976.777 14.808z" fill="#09a76d"/><path d="m83.793 133.308h150.659c6.379 0 12.618.711 18.634 2.075 20.167-24.949 29.286-53.914 25.75-77.773-.221-1.489-1.382-2.65-2.871-2.871-27.504-4.076-61.798 8.655-88.896 35.754-12.411 12.411-21.797 26.331-27.947 40.417-6.149-14.086-15.536-28.006-27.947-40.417-27.097-27.098-61.392-39.829-88.895-35.753-1.489.221-2.65 1.382-2.871 2.871-3.536 23.858 5.584 52.824 25.75 77.773 6.016-1.365 12.255-2.076 18.634-2.076z" fill="#02905d"/><g fill="#09a76d"><path d="m234.452 133.308c17.164 0 33.321 5.127 46.801 14.4 15.532-8.789 26.969-21.083 32.132-34.208.562-1.429.097-3.053-1.135-3.968-16.126-11.974-42.159-15.802-68.677-8.215-21.036 6.019-38.005 17.975-47.796 31.99h38.675z"/><path d="m36.993 147.708c13.48-9.273 29.637-14.4 46.8-14.4h38.676c-9.791-14.016-26.76-25.971-47.796-31.99-26.518-7.587-52.551-3.759-68.677 8.215-1.232.915-1.697 2.539-1.135 3.968 5.162 13.124 16.6 25.418 32.132 34.207z"/></g></g><path d="m189.648 429.924 48.839-171.821c8.453-29.737 34.988-49.717 66.03-49.717 4.571 0 9.078.46 13.471 1.351-3.192-41.201-37.15-77.429-83.537-77.429h-150.658c-63.849 0-104.171 68.635-73.088 124.407l104.888 188.196c16.082 28.855 53.679 33.284 76.377 13.301-4.171-8.726-5.053-18.678-2.322-28.288z" fill="#fb2b3a"/><g><path d="m169.678 444.911-104.888-188.196c-31.084-55.772 9.238-124.407 73.088-124.407h-54.085c-63.849 0-104.171 68.635-73.088 124.407l104.888 188.196c14.776 26.512 47.713 32.399 70.571 17.683-6.539-4.211-12.258-10.098-16.486-17.683z" fill="#e41f2d"/></g><g><g><g><path d="m61.048 250.504c-4.143 0-7.5-3.358-7.5-7.5v-13.541c0-4.142 3.357-7.5 7.5-7.5s7.5 3.358 7.5 7.5v13.541c0 4.142-3.358 7.5-7.5 7.5z" fill="#c41926"/></g><g><path d="m126.431 250.504c-4.143 0-7.5-3.358-7.5-7.5v-13.541c0-4.142 3.357-7.5 7.5-7.5s7.5 3.358 7.5 7.5v13.541c0 4.142-3.358 7.5-7.5 7.5z" fill="#c41926"/></g><g><path d="m191.814 250.504c-4.143 0-7.5-3.358-7.5-7.5v-13.541c0-4.142 3.357-7.5 7.5-7.5s7.5 3.358 7.5 7.5v13.541c0 4.142-3.357 7.5-7.5 7.5z" fill="#c41926"/></g><path d="m261.481 223.31c-1.215-.847-2.689-1.348-4.283-1.348-4.143 0-7.5 3.358-7.5 7.5v5.977c3.421-4.547 7.385-8.611 11.783-12.129z" fill="#c41926"/></g><g><g><path d="m93.739 200.209c-4.143 0-7.5-3.358-7.5-7.5v-13.541c0-4.142 3.357-7.5 7.5-7.5s7.5 3.358 7.5 7.5v13.541c0 4.142-3.357 7.5-7.5 7.5z" fill="#c41926"/></g><g><path d="m159.123 200.209c-4.143 0-7.5-3.358-7.5-7.5v-13.541c0-4.142 3.357-7.5 7.5-7.5s7.5 3.358 7.5 7.5v13.541c0 4.142-3.357 7.5-7.5 7.5z" fill="#c41926"/></g><g><path d="m224.506 200.209c-4.143 0-7.5-3.358-7.5-7.5v-13.541c0-4.142 3.357-7.5 7.5-7.5s7.5 3.358 7.5 7.5v13.541c0 4.142-3.358 7.5-7.5 7.5z" fill="#c41926"/></g></g><g><g><path d="m93.739 307.086c-4.143 0-7.5-3.358-7.5-7.5v-13.541c0-4.142 3.357-7.5 7.5-7.5s7.5 3.358 7.5 7.5v13.541c0 4.142-3.357 7.5-7.5 7.5z" fill="#c41926"/></g><g><path d="m159.123 307.086c-4.143 0-7.5-3.358-7.5-7.5v-13.541c0-4.142 3.357-7.5 7.5-7.5s7.5 3.358 7.5 7.5v13.541c0 4.142-3.357 7.5-7.5 7.5z" fill="#c41926"/></g><path d="m224.506 307.086c.02 0 .039-.003.059-.003l6.825-24.012c-1.152-2.662-3.799-4.526-6.885-4.526-4.143 0-7.5 3.358-7.5 7.5v13.541c.001 4.142 3.358 7.5 7.501 7.5z" fill="#c41926"/></g><g><g><path d="m125.174 360.186c-4.143 0-7.5-3.358-7.5-7.5v-13.541c0-4.142 3.357-7.5 7.5-7.5s7.5 3.358 7.5 7.5v13.541c0 4.142-3.358 7.5-7.5 7.5z" fill="#c41926"/></g><g><path d="m190.557 360.186c-4.143 0-7.5-3.358-7.5-7.5v-13.541c0-4.142 3.357-7.5 7.5-7.5s7.5 3.358 7.5 7.5v13.541c0 4.142-3.358 7.5-7.5 7.5z" fill="#c41926"/></g></g><g><g><path d="m157.865 417.735c-4.143 0-7.5-3.358-7.5-7.5v-13.541c0-4.142 3.357-7.5 7.5-7.5s7.5 3.358 7.5 7.5v13.541c0 4.142-3.357 7.5-7.5 7.5z" fill="#c41926"/></g></g></g></g><g><g><path d="m419.512 295.363c3.177-2.565 6.278-5.34 9.271-8.333 22.467-22.467 33.022-50.9 29.643-73.702-.183-1.234-1.146-2.197-2.38-2.38-22.803-3.379-51.235 7.176-73.703 29.643-2.993 2.993-5.767 6.094-8.333 9.271z" fill="#09a76d"/><path d="m511.442 294.931c-13.734-18.513-41.303-31.155-73.076-31.155-14.551 0-28.215 2.658-40.078 7.311 4.653-11.863 7.311-25.527 7.311-40.078 0-31.773-12.641-59.342-31.155-73.076-1.002-.743-2.364-.743-3.366 0-16.102 11.945-27.757 34.358-30.522 60.898 4.3 2.718 8.345 5.923 12.043 9.621l88.324 88.324c3.71 3.71 6.927 7.751 9.638 12.041 26.532-2.768 48.938-14.421 60.88-30.52.745-1.003.745-2.364.001-3.366z" fill="#02905d"/><g fill="#09a76d"><path d="m500.592 348.325c-2.434-16.474-15.452-33.98-35.446-45.078-15.936-8.846-32.973-11.758-46.967-9.217l22.746 22.746c10.012 10.013 16.456 22.423 18.929 35.692 14.323 4.009 28.311 3.538 39.078-1.15 1.166-.51 1.846-1.734 1.66-2.993z"/><path d="m352.6 228.451 22.746 22.746c2.541-13.994-.372-31.031-9.217-46.967-11.098-19.994-28.604-33.012-45.078-35.446-1.259-.186-2.484.494-2.992 1.661-4.69 10.772-5.159 24.768-1.145 39.098 13.383 2.487 25.754 8.977 35.686 18.908z"/></g></g><g><path d="m239.724 480.689 171.821-48.839c50.919-14.474 67.517-78.349 30.086-115.781l-88.324-88.324c-37.432-37.432-101.308-20.833-115.781 30.086l-48.839 171.821c-8.849 31.129 19.907 59.885 51.037 51.037z" fill="#fb2b3a"/></g><g><path d="m231.87 467.064 48.84-171.821c12.163-42.792 59.215-61.338 96.143-43.954l-23.545-23.545c-37.432-37.432-101.307-20.833-115.781 30.086l-48.839 171.821c-7.958 27.997 14.502 54.056 41.748 52.586-.449-4.886-.038-9.994 1.434-15.173z" fill="#e41f2d"/></g><g><g><g><path d="m275.076 286.805c-1.919 0-3.839-.732-5.304-2.197-2.929-2.929-2.929-7.678 0-10.606l7.938-7.938c2.93-2.929 7.678-2.929 10.607 0s2.929 7.678 0 10.606l-7.938 7.938c-1.464 1.464-3.384 2.197-5.303 2.197z" fill="#c41926"/></g><g><path d="m313.408 325.136c-1.919 0-3.839-.732-5.304-2.197-2.929-2.929-2.929-7.678 0-10.606l7.938-7.938c2.93-2.929 7.678-2.929 10.607 0s2.929 7.678 0 10.606l-7.938 7.938c-1.464 1.464-3.384 2.197-5.303 2.197z" fill="#c41926"/></g><g><path d="m351.739 363.467c-1.919 0-3.839-.732-5.304-2.197-2.929-2.929-2.929-7.678 0-10.606l7.938-7.938c2.93-2.929 7.678-2.929 10.607 0s2.929 7.678 0 10.606l-7.938 7.938c-1.464 1.464-3.384 2.197-5.303 2.197z" fill="#c41926"/></g><g><path d="m390.07 401.798c-1.92 0-3.839-.732-5.304-2.197-2.929-2.929-2.929-7.678.001-10.607l7.938-7.938c2.929-2.929 7.678-2.929 10.606 0s2.929 7.678-.001 10.606l-7.938 7.938c-1.463 1.465-3.383 2.198-5.302 2.198z" fill="#c41926"/></g></g><g><g><path d="m323.728 276.485c-1.919 0-3.839-.732-5.304-2.197-2.929-2.929-2.929-7.678 0-10.606l7.938-7.938c2.93-2.929 7.678-2.929 10.607 0s2.929 7.678 0 10.606l-7.938 7.938c-1.465 1.464-3.384 2.197-5.303 2.197z" fill="#c41926"/></g><g><path d="m362.059 314.816c-1.919 0-3.839-.732-5.304-2.197-2.929-2.929-2.929-7.678 0-10.606l7.938-7.938c2.93-2.929 7.678-2.929 10.607 0s2.929 7.678 0 10.606l-7.938 7.938c-1.465 1.464-3.384 2.197-5.303 2.197z" fill="#c41926"/></g><g><path d="m400.39 353.147c-1.919 0-3.839-.732-5.304-2.197-2.929-2.929-2.929-7.678 0-10.606l7.938-7.938c2.93-2.929 7.678-2.929 10.607 0s2.929 7.678 0 10.606l-7.938 7.938c-1.464 1.465-3.384 2.197-5.303 2.197z" fill="#c41926"/></g></g><g><g><path d="m261.071 339.141c-1.92 0-3.839-.732-5.304-2.197-2.929-2.929-2.929-7.678.001-10.606l7.938-7.938c2.929-2.928 7.678-2.929 10.606 0s2.929 7.678-.001 10.607l-7.938 7.938c-1.463 1.464-3.383 2.196-5.302 2.196z" fill="#c41926"/></g><g><path d="m299.402 377.473c-1.919 0-3.839-.732-5.304-2.197-2.929-2.929-2.929-7.678 0-10.606l7.938-7.938c2.93-2.929 7.678-2.929 10.607 0s2.929 7.678 0 10.606l-7.938 7.938c-1.464 1.464-3.384 2.197-5.303 2.197z" fill="#c41926"/></g><g><path d="m337.733 415.804c-1.919 0-3.839-.732-5.304-2.197-2.929-2.929-2.929-7.678 0-10.606l7.938-7.938c2.93-2.929 7.678-2.929 10.607 0s2.929 7.678 0 10.606l-7.938 7.938c-1.464 1.464-3.384 2.197-5.303 2.197z" fill="#c41926"/></g></g><g><g><path d="m248.369 388.7c-1.919 0-3.839-.732-5.304-2.197-2.929-2.929-2.929-7.678 0-10.606l7.938-7.938c2.93-2.929 7.678-2.929 10.607 0s2.929 7.678 0 10.606l-7.938 7.938c-1.464 1.464-3.384 2.197-5.303 2.197z" fill="#c41926"/></g><g><path d="m286.7 427.031c-1.919 0-3.839-.732-5.304-2.197-2.929-2.929-2.929-7.678 0-10.606l7.938-7.938c2.93-2.929 7.678-2.929 10.607 0s2.929 7.678 0 10.606l-7.938 7.938c-1.464 1.464-3.384 2.197-5.303 2.197z" fill="#c41926"/></g></g><g><g><path d="m233.797 441.604c-1.919 0-3.839-.732-5.304-2.197-2.929-2.929-2.929-7.678 0-10.606l7.938-7.938c2.93-2.929 7.678-2.929 10.607 0s2.929 7.678 0 10.606l-7.938 7.938c-1.464 1.464-3.384 2.197-5.303 2.197z" fill="#c41926"/></g></g></g></g></g></svg>