<svg id="Capa_1" enable-background="new 0 0 512 512" height="512" viewBox="0 0 512 512" width="512" xmlns="http://www.w3.org/2000/svg"><g><g><g><path d="m174.506 220.789c4.348-4.348 8.99-8.309 13.835-11.84-21.12-14.732-50.922-23.913-83.951-23.913-45.922 0-85.607 17.747-104.39 43.485 18.783 25.738 58.467 43.485 104.39 43.485 15.006 0 29.338-1.906 42.501-5.355 4.478-16.027 14.063-32.31 27.615-45.862z" fill="#81b823"/><path d="m167.452 228.521h-167.452c18.782 25.738 58.467 43.485 104.39 43.485 15.006 0 29.338-1.906 42.5-5.355 3.656-13.083 10.719-26.331 20.562-38.13z" fill="#8bc727"/></g></g><g><g><path d="m211.899 195.932c3.538-1.375 6.964-2.965 10.274-4.736-4.552-25.304-19.119-52.798-42.422-76.102-32.472-32.472-73.082-47.984-104.563-43.066-4.919 31.481 10.594 72.091 43.066 104.563 19.01 19.01 40.809 32.197 61.933 38.886 9.699-8.504 20.536-15.203 31.712-19.545z" fill="#81b823"/><path d="m203.059 199.9-127.871-127.872c-4.919 31.481 10.594 72.091 43.066 104.563 19.01 19.01 40.809 32.197 61.933 38.886 7.116-6.239 14.845-11.501 22.872-15.577z" fill="#8bc727"/></g></g><g><g><path d="m418.486 340.346c-1.327.877-2.874 1.341-4.474 1.341-1.599 0-3.146-.464-4.474-1.341-17.529-11.588-32.625-26.147-44.869-43.273l-.345-.482-.588.071c-2.306.277-4.701.418-7.118.418-3.877 0-7.903-.36-11.966-1.07l-1.505-.263.361 1.484c3.702 15.205 5.579 30.871 5.579 46.562 0 12.691-1.227 25.2-3.584 37.393 3.617 4.423 7.518 8.749 11.707 12.938 32.472 32.472 73.082 47.985 104.563 43.066 4.691-30.025-9.215-68.348-38.681-100.001-1.515 1.074-3.049 2.128-4.606 3.157z" fill="#81b823"/><path d="m418.486 340.346c-1.327.877-2.874 1.341-4.474 1.341-1.599 0-3.146-.464-4.474-1.341-17.529-11.588-32.625-26.147-44.869-43.273l-.345-.482-.588.071c-2.306.277-4.701.418-7.118.418-3.877 0-7.903-.36-11.966-1.07l-1.505-.263.361 1.484c2.096 8.61 3.586 17.37 4.502 26.196l113.763 113.763c4.691-30.025-9.215-68.348-38.681-100.001-1.515 1.074-3.049 2.128-4.606 3.157z" fill="#8bc727"/></g></g><g><path d="m344.213 295.933c-18.409-3.341-37.536-13.783-53.081-29.328l-2.891-2.97-.014 2.442c-.184 31.584-12.577 59.712-32.388 73.624-19.575-13.763-32.267-42.648-32.392-73.846l-.01-2.457-3.114 3.207c-15.545 15.545-34.672 25.987-53.081 29.328-3.822 15.325-5.875 31.35-5.875 47.859 0 68.769 35.209 129.31 88.581 164.592 3.496 2.311 8.063 2.311 11.559 0 53.372-35.283 88.581-95.823 88.581-164.592 0-16.509-2.053-32.534-5.875-47.859z" fill="#883f2e"/><path d="m296.311 271.477c-1.764-1.563-3.494-3.185-5.18-4.871l-2.891-2.97-.014 2.442c-.184 31.584-12.577 59.712-32.388 73.624-19.575-13.763-32.267-42.648-32.392-73.846l-.01-2.457-3.114 3.207c-1.686 1.686-3.415 3.308-5.18 4.871-4.446 22.394-6.901 46.782-6.901 72.316 0 68.769 17.718 129.31 44.576 164.592 1.759 2.311 4.058 2.311 5.817 0 26.858-35.283 44.576-95.823 44.576-164.592.002-25.535-2.452-49.923-6.899-72.316z" fill="#a44f3e"/></g><g><path d="m410.351 44.015.488-.636c.763-.994 1.919-1.564 3.173-1.564 1.253 0 2.41.57 3.173 1.564l.488.636c1.228 1.6 2.512 3.141 3.839 4.63v-39.263c0-4.142-3.358-7.5-7.5-7.5s-7.5 3.358-7.5 7.5v39.263c1.327-1.489 2.611-3.03 3.839-4.63z" fill="#81b823"/><path d="m490.908 156.334c-15.962-2.911-32.542-11.972-46.022-25.452l-2.735-2.81-.014 2.442c-.157 26.959-11.137 51.921-28.028 63.851-16.942-11.964-27.923-37.001-28.031-64.043l-.01-2.459-2.929 3.021c-13.481 13.48-30.061 22.541-46.022 25.452-3.346 13.365-5.143 27.345-5.143 41.747 0 6.414.373 12.74 1.06 18.972 1.328 1.213 2.636 2.456 3.916 3.736 22.203 22.203 33.784 51.736 29.646 75.463-1.11.194-2.246.341-3.391.468 12.349 17.517 27.884 32.628 45.783 44.46 3.039 2.009 7.01 2.009 10.05 0 46.402-30.675 77.014-83.31 77.014-143.099-.001-14.405-1.798-28.384-5.144-41.749z" fill="#883f2e"/><path d="m449.254 134.995-7.104-6.923-.014 2.442c-.157 26.959-11.137 51.921-28.028 63.851-16.942-11.964-27.923-37.001-28.031-64.043l-.01-2.459-7.297 7.134c-3.893 19.528-6.042 40.805-6.042 63.086 0 59.789 15.404 112.424 38.755 143.099 1.53 2.009 3.528 2.009 5.057 0 23.351-30.675 38.755-83.31 38.755-143.099.001-22.283-2.148-43.56-6.041-63.088z" fill="#a44f3e"/><g><path d="m485.242 90.525c-10.249-10.249-21.903-17.695-33.553-22.091-13.212-4.986-24.624-13.825-33.223-25.028l-.488-.636c-2.001-2.608-5.931-2.608-7.933 0l-.488.636c-8.598 11.202-20.01 20.042-33.223 25.028-11.65 4.396-23.303 11.841-33.553 22.091-20.462 20.462-29.75 46.521-25.909 66.972 20.451 3.841 46.51-5.446 66.972-25.909.418-.418.823-.841 1.232-1.264.114 28.76 11.937 53.57 29.031 65.258 17.055-11.661 28.862-36.386 29.028-65.063.347.357.689.716 1.042 1.069 20.462 20.462 46.521 29.75 66.972 25.909 3.843-20.451-5.444-46.51-25.907-66.972z" fill="#81b823"/></g><g><g><path d="m364.142 111.787c10.25-10.249 21.903-17.695 33.553-22.091 13.212-4.986 24.624-13.825 33.223-25.028l4.028-5.248c-6.223-4.47-11.774-9.885-16.478-16.014l-.488-.636c-2.001-2.608-5.931-2.608-7.933 0l-.488.636c-8.598 11.203-20.01 20.042-33.223 25.028-11.65 4.396-23.303 11.841-33.552 22.091-20.462 20.462-29.75 46.521-25.909 66.972 6.783 1.274 14.183 1.095 21.791-.448 3.094-15.355 11.776-31.562 25.476-45.262z" fill="#78a91f"/></g></g></g><path d="m255.727 119.251c-4.142 0-7.5 3.358-7.5 7.5v43.621l4.327-5.385c.763-.994 1.919-1.564 3.173-1.564s2.41.57 3.173 1.564l4.327 5.384v-43.62c0-4.142-3.358-7.5-7.5-7.5z" fill="#81b823"/><g><path d="m337.656 220.082c-11.538-11.538-24.624-19.987-37.738-25.082-15.431-5.995-28.987-15.982-39.066-29.114l-1.157-1.508c-2.001-2.608-5.931-2.608-7.933 0l-1.157 1.508c-10.079 13.132-23.636 23.119-39.066 29.114-13.114 5.095-26.2 13.543-37.738 25.082-23.536 23.536-34.218 53.509-29.8 77.031 23.522 4.418 53.495-6.264 77.031-29.8.48-.48.947-.968 1.417-1.453.131 33.079 13.73 61.616 33.391 75.059 19.617-13.413 33.196-41.851 33.388-74.835.399.41.792.823 1.198 1.23 23.536 23.536 53.509 34.218 77.031 29.8 4.417-23.524-6.266-53.497-29.801-77.032z" fill="#81b823"/></g><g><g><path d="m195.29 241.297c11.538-11.538 24.624-19.987 37.738-25.082 15.431-5.995 28.987-15.982 39.067-29.114l4.192-5.462c-5.742-4.581-10.928-9.881-15.436-15.754l-1.157-1.508c-2.001-2.608-5.931-2.608-7.933 0l-1.157 1.508c-10.079 13.132-23.635 23.119-39.066 29.114-13.114 5.095-26.2 13.543-37.739 25.082-23.536 23.536-34.218 53.509-29.8 77.031 6.676 1.254 13.872 1.288 21.292.161 2.794-18.792 13.072-39.048 29.999-55.976z" fill="#78a91f"/></g></g></g></svg>