<svg id="Capa_1" enable-background="new 0 0 512 512" height="512" viewBox="0 0 512 512" width="512" xmlns="http://www.w3.org/2000/svg"><g><g><path d="m300.052 292.445c-3.247 2.421-7.257 3.872-11.61 3.872-1.72 0-3.38-.246-4.97-.667l5.189 36.003c1.326.27 2.699.412 4.105.412 11.316 0 20.49-9.174 20.49-20.49 0-8.745-5.49-16.19-13.204-19.13z" fill="#883f2e"/><path d="m219.234 332.066c1.406 0 2.778-.143 4.105-.412l5.189-36.003c-1.59.42-3.25.667-4.97.667-4.352 0-8.362-1.452-11.61-3.872-7.713 2.94-13.203 10.386-13.203 19.132-.001 11.315 9.173 20.488 20.489 20.488z" fill="#a44f3e"/></g><path d="m284.521 295.92c-5.113-1.048-9.498-4.109-12.3-8.31-3.497 5.243-9.46 8.707-16.221 8.707s-12.724-3.464-16.221-8.707c-2.802 4.202-7.187 7.262-12.3 8.31l-3.773 26.178.939.496 2.322-2.132 14.519 13.329 14.514-13.325 14.519 13.329 14.514-13.324 2.323 2.133.939-.496z" fill="#ffbd86"/><path d="m288.296 322.107-3.263-2.995-14.514 13.325-14.519-13.329-14.514 13.325-14.519-13.329-3.261 2.994-6.674 46.306.939.495 8.996-8.258 14.519 13.329 14.514-13.325 14.519 13.329 14.514-13.325 8.997 8.26.939-.496z" fill="#f6a96c"/><g><path d="m271.923 228.608v-226.589c0-1.936-2.478-2.762-3.627-1.204-24.49 33.206-39.458 77.601-39.458 126.381 0 40.662 10.407 78.271 28.054 108.897 3.668-4.683 9.123-7.396 15.031-7.485z" fill="#017b4e"/><g><path d="m268.296.815c-15.175 20.576-26.689 45.451-33.256 73.001 3.089 5.503 5.969 11.208 8.636 17.09 5.389-26.021 15.149-49.836 28.247-70.131v-18.756c0-1.936-2.479-2.762-3.627-1.204z" fill="#026841"/></g><path d="m326.31 14.947c-32.25 25.735-58.198 64.744-70.823 111.862-9.97 37.209-10.209 74.189-2.454 107.017.779.729 1.508 1.524 2.175 2.389l.792 1.028.792-1.028c3.73-4.839 9.354-7.615 15.429-7.615.198 0 .391.024.588.03l56.693-211.581c.501-1.87-1.679-3.31-3.192-2.102z" fill="#017b4e"/><g><path d="m326.31 14.947c-31.826 25.397-57.507 63.728-70.31 110.017.17.615.348 1.227.513 1.845 2.514 9.384 4.4 18.752 5.705 28.044.673-2.966 1.399-5.935 2.195-8.906 10.81-40.344 31.393-74.733 57.33-99.945l7.758-28.953c.502-1.87-1.678-3.31-3.191-2.102z" fill="#026841"/></g><path d="m239.779 228.6c6.075 0 11.699 2.776 15.429 7.615l.792 1.028.792-1.028c.667-.865 1.396-1.66 2.175-2.389 7.755-32.827 7.517-69.807-2.454-107.017-12.625-47.118-38.573-86.127-70.823-111.862-1.513-1.207-3.693.232-3.192 2.102l56.693 211.581c.197-.007.389-.03.588-.03z" fill="#09a76d"/><g><path d="m210.879 122.97c5.335 7.168 10.34 14.76 14.958 22.758 6.557 11.356 12.008 22.98 16.399 34.702l-39.32-146.746c-.251-.938.172-1.767.847-2.208-5.753-5.984-11.79-11.515-18.074-16.529-1.513-1.207-3.693.232-3.192 2.102z" fill="#02905d"/></g></g><g><path d="m383.525 56.008c-37.812 16.512-72.972 47.475-97.362 89.72-16.931 29.325-26.552 60.425-29.317 90.421 3.731-4.797 9.329-7.549 15.375-7.549 4.983 0 9.52 1.895 12.969 4.983l100.874-174.719c.968-1.676-.766-3.631-2.539-2.856z" fill="#09a76d"/><g><path d="m383.525 56.008c-37.812 16.512-72.972 47.475-97.362 89.72-16.6 28.752-26.173 59.211-29.146 88.662 3.404-3.776 8.181-6.277 13.554-6.706 4.499-23.821 13.285-47.942 26.579-70.969 20.34-35.23 48.173-62.605 78.784-80.304l10.13-17.546c.968-1.677-.766-3.632-2.539-2.857z" fill="#02905d"/></g><path d="m239.779 228.6c6.046 0 11.645 2.752 15.375 7.549-2.765-29.996-12.386-61.096-29.317-90.421-24.39-42.245-59.551-73.208-97.362-89.72-1.774-.774-3.507 1.18-2.539 2.856l100.873 174.718c3.45-3.087 7.987-4.982 12.97-4.982z" fill="#017b4e"/><g><path d="m177.841 148.766c5.447 4.531 10.76 9.363 15.903 14.506 8.59 8.59 16.33 17.645 23.208 27.029l-70.015-121.27c-.719-1.245.053-2.641 1.225-2.961-6.451-3.788-13.026-7.154-19.686-10.062-1.774-.774-3.507 1.18-2.539 2.856z" fill="#026841"/></g></g><g><path d="m435.522 101.808c-40.797 6.163-82.773 26.971-117.266 61.464-19.852 19.852-35.16 42.184-45.763 65.341 10.62.148 19.218 8.821 19.218 19.476 0 .98-.1 1.947-.245 2.905l145.77-145.77c1.368-1.368.2-3.705-1.714-3.416z" fill="#017b4e"/><g><path d="m435.522 101.808c-40.797 6.163-82.773 26.971-117.266 61.464-19.572 19.572-34.733 41.555-45.318 64.364 4.837.168 9.242 2.001 12.664 4.959 10.422-20.948 24.74-41.087 42.823-59.17 29.113-29.113 63.557-48.477 98.124-57.515l10.686-10.686c1.369-1.368.201-3.705-1.713-3.416z" fill="#026841"/></g><path d="m220.289 248.09c0-10.655 8.597-19.329 19.218-19.476-10.603-23.158-25.911-45.49-45.763-65.341-34.493-34.493-76.469-55.301-117.266-61.464-1.914-.289-3.082 2.048-1.713 3.416l145.77 145.77c-.146-.958-.246-1.925-.246-2.905z" fill="#09a76d"/><g><path d="m161.211 191.672c11.95 3.598 23.346 8.055 34.092 13.261l-98.986-98.986c-6.62-1.757-13.245-3.142-19.84-4.139-1.914-.289-3.082 2.048-1.713 3.416z" fill="#02905d"/></g></g><g><g><path d="m490.066 195.076c-38.413-15.061-85.169-18.029-132.287-5.404-30.678 8.22-57.914 22.092-80.291 39.67 8.193 2.306 14.223 9.827 14.223 18.747 0 1.356-.144 2.693-.422 4.004l198.553-53.202c1.869-.5 2.026-3.108.224-3.815z" fill="#09a76d"/><g><path d="m490.066 195.076c-38.413-15.061-85.169-18.029-132.287-5.404-30.231 8.1-57.115 21.692-79.306 38.906 5.036 1.613 9.225 5.115 11.726 9.679 21.656-16.24 47.59-29.07 76.605-36.845 40.271-10.791 80.273-10.182 115.032-.377l8.006-2.145c1.869-.499 2.026-3.107.224-3.814z" fill="#02905d"/></g><path d="m220.289 248.09c0-8.92 6.03-16.442 14.223-18.747-22.377-17.578-49.613-31.45-80.291-39.67-47.118-12.625-93.875-9.658-132.287 5.404-1.802.706-1.645 3.314.224 3.815l198.553 53.202c-.278-1.311-.422-2.648-.422-4.004z" fill="#017b4e"/><path d="m177.694 199.916c7.191 1.927 14.19 4.168 20.985 6.69-13.78-6.964-28.66-12.701-44.458-16.934-47.118-12.625-93.875-9.658-132.287 5.404-1.802.706-1.645 3.314.224 3.815l23.556 6.312c38.355-14.957 84.987-17.878 131.98-5.287z" fill="#026841"/></g></g><g><path d="m493.085 269.067c-33.206-24.49-77.601-39.458-126.381-39.458-27.008 0-52.666 4.595-75.831 12.848.54 1.785.837 3.674.837 5.633 0 2.765-.583 5.455-1.732 7.995l-.563 1.244 1.355.162c8.376.998 14.973 7.243 16.701 15.204h184.408c1.938-.001 2.764-2.479 1.206-3.628z" fill="#017b4e"/><g><path d="m366.704 229.609c-26.64 0-51.966 4.473-74.882 12.514.574 1.889.889 3.89.889 5.967 0 3-.66 5.84-1.818 8.407 3.592.429 6.89 1.791 9.664 3.832 27.647-12.971 59.857-20.414 94.247-20.414 22.26 0 43.602 3.126 63.389 8.842-27.022-12.187-58.235-19.148-91.489-19.148z" fill="#026841"/></g><path d="m221.228 257.49 1.355-.162-.563-1.244c-1.149-2.54-1.732-5.23-1.732-7.995 0-1.959.297-3.848.837-5.633-23.164-8.252-48.823-12.848-75.831-12.848-48.78 0-93.176 14.968-126.381 39.458-1.558 1.149-.731 3.627 1.204 3.627h184.408c1.73-7.96 8.327-14.204 16.703-15.203z" fill="#09a76d"/><path d="m60.815 269.067c28.383-20.934 64.946-34.901 105.431-38.518-6.878-.615-13.866-.94-20.95-.94-48.78 0-93.176 14.968-126.381 39.458-1.558 1.149-.731 3.627 1.204 3.627h41.9c-1.935 0-2.762-2.478-1.204-3.627z" fill="#02905d"/></g><g><path d="m256 257.337c6.761 0 12.724 3.464 16.221 8.707 3.497-5.243 9.46-8.707 16.221-8.707.674 0 1.34.035 1.997.102 1.443-2.805 2.272-5.978 2.272-9.349 0-11.316-9.174-20.49-20.49-20.49s-20.49 9.174-20.49 20.49c0 3.371.829 6.544 2.272 9.349.657-.067 1.323-.102 1.997-.102z" fill="#ca6e59"/><path d="m260.269 248.09c0 3-.66 5.841-1.821 8.407 5.601.668 10.497 3.595 13.773 7.845 1.137-1.475 2.469-2.786 3.96-3.904-2.606-3.432-4.161-7.705-4.161-12.349 0-7.622 4.171-14.258 10.345-17.787-2.993-1.711-6.45-2.703-10.145-2.703-6.611 0-12.475 3.145-16.221 8.005 2.667 3.46 4.27 7.781 4.27 12.486z" fill="#bb5d4c"/><path d="m223.558 257.337c6.761 0 12.724 3.464 16.221 8.707 3.497-5.243 9.46-8.707 16.221-8.707.674 0 1.34.035 1.997.102 1.443-2.805 2.272-5.978 2.272-9.349 0-11.316-9.174-20.49-20.49-20.49s-20.49 9.174-20.49 20.49c0 3.371.829 6.544 2.272 9.349.656-.067 1.323-.102 1.997-.102z" fill="#ca6e59"/><path d="m223.558 256.337c6.993 0 13.16 3.509 16.858 8.856.212-.283.409-.579.636-.85-4.891-3.739-8.051-9.62-8.051-16.253 0-8.908 5.695-16.467 13.634-19.29-2.146-.763-4.447-1.2-6.856-1.2-11.316 0-20.49 9.174-20.49 20.49 0 3 .66 5.841 1.821 8.407.804-.096 1.618-.16 2.448-.16z" fill="#bb5d4c"/></g><g><circle cx="288.442" cy="276.827" fill="#bb5d4c" r="20.49"/><path d="m286 276.827c0-8.073 4.681-15.035 11.466-18.375-2.726-1.341-5.781-2.115-9.024-2.115-11.316 0-20.49 9.174-20.49 20.49s9.174 20.49 20.49 20.49c3.243 0 6.298-.774 9.024-2.115-6.785-3.34-11.466-10.302-11.466-18.375z" fill="#a44f3e"/><circle cx="256" cy="276.827" fill="#883f2e" r="20.49"/><path d="m253 276.827c0-8.183 4.809-15.226 11.745-18.509-2.655-1.257-5.612-1.981-8.745-1.981-11.316 0-20.49 9.174-20.49 20.49s9.174 20.49 20.49 20.49c3.133 0 6.09-.724 8.745-1.981-6.936-3.284-11.745-10.326-11.745-18.509z" fill="#6d3326"/><circle cx="223.558" cy="276.827" fill="#a44f3e" r="20.49"/><path d="m219.02 276.827c0-8.487 5.16-15.769 12.514-18.879-2.452-1.037-5.147-1.61-7.976-1.61-11.316 0-20.49 9.174-20.49 20.49s9.174 20.49 20.49 20.49c2.829 0 5.525-.573 7.976-1.61-7.354-3.112-12.514-10.394-12.514-18.881z" fill="#883f2e"/></g><path d="m294.969 368.413-9.936-9.121-14.514 13.324-14.519-13.328-14.514 13.324-14.519-13.328-9.935 9.12-5.157 35.783 2.047 3.551 10.817-9.931 15.596 14.317 15.59-14.313 15.596 14.318 15.591-14.313 12.775 11.728.939-.496z" fill="#ffbd86"/><g fill="#f6a96c"><path d=""/><path d="m300.826 409.048-13.714-12.59-15.591 14.313-15.596-14.317-15.591 14.313-15.595-14.317-11.329 10.4 8.816 15.295c3.836 6.654 6.213 13.796 7.139 21.056l12.121 11.128 14.514-13.325 14.519 13.329 14.514-13.325 14.519 13.329 5.914-5.429.802-2.094z"/></g><path d="m312.428 489.556-6.16-42.742-6.716 6.166-14.519-13.329-14.514 13.325-14.519-13.33-14.514 13.324-12.345-11.333c1.942 12.39-.369 25.202-6.943 36.58-3.948 6.833-9.116 12.589-15.147 17.077h100.407c3.058.001 5.407-2.711 4.97-5.738z" fill="#ffbd86"/><path d="m223.092 421.645-46.872-81.315c-1.15-1.996-4.03-1.996-5.18 0l-46.872 81.315c-10.167 17.639-9.717 37.311-1.94 53.346 8.388-4.342 12.202-11.024 15.257-23.884.156-.657.69-.891 1.138-.891s.982.234 1.138.891c4.326 18.206 10.157 24.038 28.363 28.363.657.156.891.69.891 1.138s-.234.982-.891 1.138c-13.693 3.253-20.385 7.36-24.702 16.94 8.59 5.374 18.846 8.56 30.208 8.56 43.931 0 71.401-47.54 49.462-85.601z" fill="#fac600"/><g fill="#e8b800"><path d="m160.736 484.884c-8.445 2.93-13.163 6.939-16.461 14.334 8.412 5.055 18.369 8.028 29.355 8.028 5.703 0 11.126-.807 16.202-2.286-11.955-3.48-21.959-10.721-29.096-20.076z"/><path d="m136.512 450.876c.526-2.214 3.696-2.214 4.222 0 2.775 11.679 6.106 18.085 13.079 22.307-6.961-15.691-7.029-34.553 2.761-51.538l33.259-57.7-13.612-23.615c-1.15-1.995-4.03-1.995-5.18 0l-46.872 81.315c-9.978 17.31-9.733 36.58-2.37 52.448 8.1-4.204 11.731-10.663 14.713-23.217z"/></g><path d="m77.047 304.454-25.591 44.397c-12.5 21.685 3.152 48.773 28.182 48.773 25.03 0 40.682-27.087 28.182-48.773l-25.591-44.397c-1.151-1.996-4.031-1.996-5.182 0z" fill="#fac600"/><path d="m72.902 352.483 18.505-32.104-9.18-15.925c-1.15-1.996-4.03-1.996-5.18 0l-25.591 44.397c-12.5 21.685 3.151 48.773 28.182 48.773 1.912 0 3.761-.176 5.555-.477-14.947-8.384-21.842-28.094-12.291-44.664z" fill="#e8b800"/><path d="m136.512 450.876c-4.239 17.845-9.776 23.381-27.621 27.621-2.214.526-2.214 3.696 0 4.222 17.845 4.239 23.381 9.776 27.621 27.621.526 2.214 3.696 2.214 4.222 0 4.239-17.845 9.776-23.381 27.621-27.621 2.214-.526 2.214-3.696 0-4.222-17.845-4.239-23.381-9.776-27.621-27.621-.525-2.213-3.696-2.213-4.222 0z" fill="#fff5c6"/><g><path d="m125.217 471.997c-3.918 2.862-9.116 4.787-16.325 6.5-2.214.526-2.214 3.696 0 4.222 17.845 4.239 23.381 9.776 27.621 27.621.526 2.214 3.696 2.214 4.222 0 1.703-7.168 3.617-12.347 6.453-16.257-3.746-13.015-9.019-18.329-21.971-22.086z" fill="#fef0ae"/></g></g></svg>