<svg id="Capa_1" enable-background="new 0 0 512 512" height="512" viewBox="0 0 512 512" width="512" xmlns="http://www.w3.org/2000/svg"><g><g><g><g fill="#02905d"><path d="m42.204 370.778c6.173.212 12.192.562 18.036 1.056-.089-.182-.18-.364-.286-.542l-10.37-17.466c-2.113-3.561-6.715-4.734-10.278-2.62-3.562 2.114-4.734 6.716-2.62 10.278z"/><path d="m103.276 378.331c6.751 1.496 13.22 3.165 19.403 4.983-.147-.657-.378-1.305-.713-1.927l-10.006-18.557c-1.966-3.647-6.517-5.007-10.161-3.042-3.646 1.966-5.008 6.515-3.042 10.161z"/></g><g fill="#09a76d"><path d="m471.668 370.721 4.045-6.27c2.246-3.48 1.244-8.123-2.236-10.368-3.479-2.245-8.123-1.244-10.368 2.236l-9.934 15.398c5.988-.481 12.161-.81 18.493-.996z"/><path d="m413.357 377.338 4.326-8.436c1.89-3.686.434-8.206-3.251-10.096-3.687-1.889-8.206-.435-10.096 3.251l-10.194 19.878c6.134-1.688 12.544-3.226 19.215-4.597z"/></g></g><g><g fill="#09a76d"><path d="m40.167 385.148-8.813 2.382c-3.999 1.081-6.364 5.198-5.283 9.197s5.197 6.366 9.197 5.283l26.733-7.599c-7.597-3.588-14.91-6.65-21.834-9.263z"/><path d="m99.071 415.239-8.295 4.645c-3.614 2.024-4.903 6.594-2.879 10.208 1.375 2.455 3.924 3.837 6.551 3.837 1.24 0 2.499-.309 3.658-.958l13.646-7.641c.326-.182.625-.392.912-.613-4.555-3.361-9.091-6.515-13.593-9.478z"/></g><g fill="#02905d"><path d="m478.122 388.869-7.967-3.084c-6.207 2.386-12.716 5.133-19.449 8.291l22.001 8.781c.89.345 1.806.508 2.706.508 3.007 0 5.845-1.822 6.996-4.794 1.495-3.863-.424-8.207-4.287-9.702z"/><path d="m424.1 417.067-9.541-2.891c-5.138 3.334-10.323 6.917-15.53 10.771l20.721 6.476c.725.22 1.457.324 2.178.324 3.218 0 6.193-2.088 7.175-5.327 1.201-3.964-1.039-8.152-5.003-9.353z"/></g></g><g><path d="m124.205 301.034h-9.023c-4.142 0-7.5 3.358-7.5 7.5s3.358 7.5 7.5 7.5h19.379c.303 0 .601-.023.894-.058-3.769-5.35-7.54-10.336-11.25-14.942z" fill="#017b4e"/><path d="m148.88 299.447v-18.203c0-4.142-3.358-7.5-7.5-7.5s-7.5 3.358-7.5 7.5v8.181c5.136 3.256 10.148 6.59 15 10.022z" fill="#026841"/></g><path d="m153.326 344.698h-9.763c-4.142 0-7.5 3.358-7.5 7.5s3.358 7.5 7.5 7.5h16.252c.388 0 .766-.039 1.138-.095-2.466-5.179-5.02-10.133-7.627-14.905z" fill="#017b4e"/><g><g fill="#017b4e"><path d="m400.093 297.759h-9.616c-3.772 4.544-7.625 9.468-11.491 14.792.555.131 1.132.208 1.727.208h19.38c4.142 0 7.5-3.358 7.5-7.5s-3.358-7.5-7.5-7.5z"/><path d="m381.395 287.351v-8.291c0-4.142-3.358-7.5-7.5-7.5s-7.5 3.358-7.5 7.5v18.121c4.866-3.359 9.856-6.643 15-9.83z"/></g><path d="m371.711 341.423h-11.229c-2.609 4.637-5.162 9.482-7.645 14.519.817.306 1.698.481 2.622.481h16.252c4.142 0 7.5-3.358 7.5-7.5s-3.358-7.5-7.5-7.5z" fill="#026841"/></g><g><path d="m241.145 189.938c.708.709 1.525 1.242 2.394 1.608l1.997-18.429-9.613-9.614c-2.929-2.929-7.678-2.929-10.606 0-2.929 2.929-2.929 7.677 0 10.606z" fill="#017b4e"/><path d="m268.461 191.546c.87-.366 1.686-.899 2.394-1.607l15.828-15.829c2.929-2.929 2.929-7.678 0-10.606-2.929-2.93-7.678-2.929-10.606 0l-9.613 9.614z" fill="#026841"/></g><g><path d="m235.551 260.894c.138.138.285.264.431.39l2.07-19.101-7.723-7.723c-2.929-2.929-7.678-2.929-10.606 0-2.929 2.929-2.929 7.678 0 10.606z" fill="#017b4e"/><path d="m276.019 261.283c.146-.125.292-.251.431-.389l15.829-15.829c2.929-2.929 2.929-7.678 0-10.606-2.929-2.929-7.678-2.929-10.606 0l-7.723 7.723z" fill="#026841"/></g><g><path d="m256 365.223 27.411-45.009-25.24-232.899c-.281-2.597-4.06-2.597-4.341 0l-25.24 232.9z" fill="#017b4e"/></g><g><path d="m245.925 346.757 20.181-186.217-7.936-73.226c-.281-2.597-4.06-2.597-4.341 0l-25.063 231.267z" fill="#026841"/></g><g><path d="m185.845 329.902c45.636 44.042 62.768 89.464 69.18 118.009h1.951c3.126-13.918 8.8-31.847 19.084-51.673l-143.805-236.125c-1.423-2.337-5.005-.655-4.115 1.933z" fill="#09a76d"/><g><path d="m185.136 327.842c15.403 14.67 27.633 29.513 37.339 43.854l-50.077-145.67-40.143-65.914c-1.423-2.337-5.005-.655-4.115 1.933z" fill="#02905d"/></g><path d="m255.024 447.911h1.951c6.412-28.545 23.544-73.967 69.18-118.009l57.704-167.856c.89-2.588-2.692-4.27-4.115-1.933l-143.803 236.125c10.283 19.825 15.957 37.755 19.083 51.673z" fill="#09a76d"/><path d="m379.745 160.113-143.199 235.131c4.184 8.015 7.618 15.724 10.433 22.986l112.074-184.025 24.807-72.16c.889-2.587-2.692-4.269-4.115-1.932z" fill="#02905d"/></g><g><path d="m509.959 370.422c-80.06-5.151-137.256 12.933-176.436 35.163-2.139 7.302-4.076 14.887-5.77 22.762-5.895 27.405-30.64 47.295-58.838 47.295h-.072l7.38 4.261c25.24 14.572 57.322 9.717 76.876-11.894 59.016-65.221 126.373-86.588 157.178-93.27 2.475-.537 2.209-4.154-.318-4.317z" fill="#09a76d"/><path d="m474.445 385.311c14.369-5.313 26.71-8.594 35.833-10.573 2.474-.537 2.208-4.153-.318-4.316-79.195-5.096-136.019 12.544-175.162 34.443-1.775 5.968-3.411 12.129-4.891 18.479 33.359-19.695 80.458-36.648 144.538-38.033z" fill="#02905d"/><path d="m243.085 475.642c-28.197 0-52.942-19.89-58.838-47.295-1.694-7.875-3.631-15.46-5.77-22.762-39.18-22.23-96.376-40.314-176.436-35.163-2.527.163-2.792 3.779-.318 4.316 30.805 6.682 98.162 28.05 157.178 93.27 19.555 21.611 51.636 26.467 76.876 11.894l7.38-4.261h-.072z" fill="#09a76d"/><path d="m238.318 476.449c-20.979 4.317-43.316-2.401-58.299-18.959-47.785-52.809-101.036-76.865-135.926-87.657-13.26-.514-27.263-.362-42.052.59-2.526.162-2.792 3.779-.318 4.316 30.805 6.682 98.162 28.05 157.178 93.27 19.555 21.611 51.636 26.467 76.876 11.894l5.708-3.295c-1.062-.028-2.118-.078-3.167-.159z" fill="#02905d"/></g><g><g><path d="m259.821 476.642h-16.736c-28.753 0-53.768-19.974-59.815-48.084-18.212-84.657-65.061-136.101-88.137-157.09-1.867-1.698.18-4.691 2.441-3.571 164.301 81.366 162.247 208.745 162.247 208.745z" fill="#017b4e"/></g><path d="m204.448 430.906c-15.814-73.511-53.214-121.964-77.898-147.195-9.034-5.423-18.67-10.711-28.975-15.814-2.261-1.12-4.308 1.873-2.441 3.571 23.076 20.99 69.925 72.433 88.137 157.09 6.047 28.11 31.062 48.084 59.815 48.084h4.385c-21.265-6.043-38.194-23.289-43.023-45.736z" fill="#026841"/><g><path d="m252.179 476.642h16.736c28.753 0 53.768-19.974 59.815-48.084 18.212-84.657 65.061-136.101 88.137-157.09 1.867-1.698-.18-4.691-2.441-3.571-164.301 81.366-162.247 208.745-162.247 208.745z" fill="#017b4e"/></g><g><path d="m380.895 311.764c13.563-18.475 26.691-31.855 35.973-40.297 1.867-1.698-.18-4.691-2.441-3.571-164.301 81.366-162.247 208.745-162.247 208.745h16.736c1.805 0 3.596-.079 5.367-.234 3.233-27.789 20-101.997 106.612-164.643z" fill="#026841"/></g></g></g><g><path d="m327.322 24.945-26.373 56.804c-9.582 20.638 5.488 44.25 28.242 44.25 22.754 0 37.824-23.611 28.242-44.25l-26.373-56.804c-.739-1.59-2.999-1.59-3.738 0z" fill="#62dbfb"/></g><g><path d="m325.356 81.749 16.038-34.544-10.335-22.26c-.738-1.59-2.999-1.59-3.738 0l-26.373 56.804c-9.582 20.638 5.488 44.25 28.242 44.25 4.397 0 8.503-.89 12.204-2.462-15.449-6.561-23.768-25.138-16.038-41.788z" fill="#01d0fb"/></g><g><path d="m59.696 133.313-26.373 56.804c-9.582 20.638 5.488 44.25 28.242 44.25 22.754 0 37.824-23.611 28.242-44.25l-26.373-56.804c-.739-1.591-3-1.591-3.738 0z" fill="#62dbfb"/></g><g><path d="m57.73 190.117 16.038-34.544-10.335-22.26c-.738-1.59-2.999-1.59-3.738 0l-26.373 56.804c-9.582 20.638 5.488 44.25 28.242 44.25 4.397 0 8.503-.89 12.204-2.462-15.449-6.562-23.768-25.139-16.038-41.788z" fill="#01d0fb"/></g><g><g><path d="m188.055 77.485-19.728 42.491c-7.327 15.782 4.196 33.838 21.597 33.838 17.4 0 28.924-18.056 21.597-33.838l-19.728-42.491c-.739-1.591-3-1.591-3.738 0z" fill="#62dbfb"/></g><g><path d="m189.96 119.976 10.78-23.218-8.948-19.273c-.738-1.59-2.999-1.59-3.738 0l-19.728 42.491c-7.327 15.782 4.196 33.838 21.597 33.838 3.963 0 7.617-.945 10.817-2.578-10.849-5.538-16.438-19.073-10.78-31.26z" fill="#01d0fb"/></g></g><g><g><path d="m452.811 159.067-19.728 42.491c-7.327 15.782 4.196 33.838 21.597 33.838 17.4 0 28.924-18.056 21.597-33.838l-19.728-42.491c-.739-1.59-3-1.59-3.738 0z" fill="#62dbfb"/></g><g><path d="m454.717 201.558 10.78-23.218-8.948-19.273c-.738-1.59-2.999-1.59-3.738 0l-19.728 42.491c-7.327 15.782 4.196 33.838 21.597 33.838 3.963 0 7.617-.945 10.817-2.578-10.85-5.537-16.439-19.072-10.78-31.26z" fill="#01d0fb"/></g></g></g></svg>