<svg id="Capa_1" enable-background="new 0 0 512 512" height="512" viewBox="0 0 512 512" width="512" xmlns="http://www.w3.org/2000/svg"><g><g><path d="m405.534 508.052c-9.435-33.353-30.119-68.52-60.677-99.077-16.808-16.808-35.012-30.622-53.541-41.227-3.956.285-8.017.442-12.168.442-9.326 0-18.41-.753-26.999-2.239l-.747 1.803c7.121 5.02 14.077 10.91 20.675 17.507 25.127 25.128 38.246 53.665 31.629 67.005 30.305 29.971 65.037 50.289 97.999 59.614 2.328.658 4.487-1.501 3.829-3.828z" fill="#81b823"/><g><path d="m405.534 508.052c-2.084-7.367-4.719-14.822-7.886-22.297-23.513-8.902-47.436-23.169-69.602-42.323-1.299-.312-2.532-.966-3.546-1.98l-33.495-33.495c-.007-.01-.014-.019-.02-.029 12.237 17.985 17.386 34.936 12.723 44.338 30.305 29.971 65.037 50.289 97.999 59.614 2.326.658 4.485-1.501 3.827-3.828z" fill="#78a91f"/></g><g><path d="m272.314 368.053c-6.93-.278-13.688-.981-20.164-2.102l-.747 1.803c7.121 5.02 14.077 10.91 20.675 17.507 7.427 7.427 13.795 15.152 18.926 22.696l33.495 33.495c1.464 1.464 3.384 2.196 5.303 2.196s3.839-.732 5.303-2.196c2.929-2.93 2.929-7.678 0-10.607z" fill="#8bc727"/></g></g><g><path d="m476.165 355.433c-30.256-16.912-69.749-27.153-112.963-27.153-6.145 0-12.212.214-18.191.618 2.944 3.195 4.57 6.655 4.57 10.271 0 16.003-31.596 29.022-70.432 29.022-5.406 0-10.727-.261-15.921-.763 28.198 12.947 62.698 20.572 99.974 20.572 43.214 0 82.708-10.241 112.963-27.153 2.111-1.18 2.111-4.234 0-5.414z" fill="#81b823"/><path d="m476.165 355.433c-5.138-2.872-10.549-5.547-16.194-8.017-27.59 12.073-60.894 19.136-96.769 19.136-15.105 0-29.746-1.266-43.704-3.617-11.437 3.307-25.347 5.256-40.348 5.256-5.406 0-10.727-.261-15.921-.763 28.197 12.947 62.697 20.572 99.973 20.572 43.214 0 82.708-10.241 112.963-27.153 2.111-1.18 2.111-4.234 0-5.414z" fill="#78a91f"/><g><path d="m371.771 350.639h-27.938c-6.979 6.657-19.84 12.026-35.866 15h63.804c4.142 0 7.5-3.357 7.5-7.5s-3.357-7.5-7.5-7.5z" fill="#8bc727"/></g></g><g><path d="m79.96 218.749c15.555 0 38.669 13.063 58.888 33.282 6.594 6.594 12.485 13.55 17.508 20.675l1.803-.747c-1.486-8.587-2.239-17.67-2.239-26.999 0-5.197.24-10.259.682-15.138-10.402-17.659-23.721-34.978-39.768-51.025-30.557-30.557-65.725-51.241-99.077-60.677-2.327-.658-4.487 1.501-3.828 3.828 9.306 32.896 29.562 67.554 59.434 97.816 1.915-.674 4.119-1.015 6.597-1.015z" fill="#81b823"/><path d="m79.96 218.749c15.555 0 38.669 13.063 58.888 33.282 6.594 6.594 12.485 13.55 17.508 20.675l1.803-.747c-.923-5.334-1.562-10.859-1.915-16.516-21.065-11.04-41.896-26.228-60.935-45.268-26.108-26.108-45.002-55.581-55.837-84.413-7.28-3.058-14.539-5.612-21.715-7.641-2.327-.658-4.487 1.501-3.828 3.828 9.306 32.896 29.562 67.554 59.434 97.816 1.915-.675 4.119-1.016 6.597-1.016z" fill="#78a91f"/><g><path d="m124.231 239.031c4.941 3.888 9.859 8.243 14.616 13 4.69 4.689 9.015 9.564 12.934 14.551l5.67 5.67.706-.293c-1.24-7.164-1.962-14.675-2.17-22.384l-61.027-61.027c-2.929-2.928-7.678-2.928-10.606 0-2.929 2.93-2.929 7.678 0 10.607z" fill="#8bc727"/></g></g><g><g><path d="m362.976 125.797c6.234 0 12.137 1.442 17.396 4.006 4.395-10.539 7.112-25.047 7.112-41.067 0-32.205-10.973-58.312-24.508-58.312s-24.508 26.107-24.508 58.312c0 16.02 2.717 30.528 7.112 41.067 5.259-2.564 11.162-4.006 17.396-4.006z" fill="#fd8087"/><path d="m458.588 70.028c-9.571-9.571-35.79 1.131-58.563 23.903-11.328 11.328-19.666 23.508-24.01 34.069 11.495 3.994 20.608 13.107 24.601 24.601 10.56-4.344 22.74-12.682 34.069-24.01 22.773-22.773 33.474-48.992 23.903-58.563z" fill="#fe99a0"/><path d="m439.88 141.132c-16.02 0-30.528 2.717-41.067 7.112 2.564 5.26 4.006 11.162 4.006 17.397 0 6.234-1.442 12.136-4.006 17.396 10.539 4.395 25.047 7.112 41.067 7.112 32.205 0 58.312-10.973 58.312-24.508 0-13.536-26.107-24.509-58.312-24.509z" fill="#fd8087"/><path d="m434.685 202.69c-11.328-11.328-23.508-19.666-34.069-24.01-3.994 11.495-13.107 20.608-24.601 24.601 4.344 10.56 12.682 22.74 24.01 34.069 22.772 22.772 48.992 33.474 58.563 23.903s-1.13-35.791-23.903-58.563z" fill="#fe99a0"/><path d="m362.976 205.483c-6.234 0-12.137-1.442-17.396-4.006-4.395 10.539-7.112 25.047-7.112 41.067 0 32.205 10.973 58.312 24.508 58.312s24.508-26.107 24.508-58.312c0-16.02-2.717-30.527-7.112-41.067-5.259 2.564-11.162 4.006-17.396 4.006z" fill="#fd8087"/><path d="m325.335 178.68c-10.56 4.344-22.74 12.682-34.069 24.01-6.186 6.186-11.473 12.626-15.713 18.918 5.217-1.861 10.081-2.859 14.368-2.859 4.934 0 8.782 1.346 11.438 4.001 6.598 6.598 4.87 20.079-3.151 35.614 8.933-4.721 18.6-11.897 27.718-21.014 11.328-11.328 19.666-23.508 24.01-34.069-11.494-3.994-20.607-13.107-24.601-24.601z" fill="#fe99a0"/><path d="m323.133 165.641c0-6.234 1.442-12.137 4.006-17.397-10.539-4.395-25.047-7.112-41.067-7.112-32.205 0-58.312 10.973-58.312 24.508s26.107 24.508 58.312 24.508c16.02 0 30.527-2.717 41.067-7.112-2.564-5.259-4.006-11.161-4.006-17.395z" fill="#fd8087"/><path d="m349.937 128c-4.344-10.561-12.682-22.74-24.01-34.069-22.772-22.772-48.992-33.474-58.563-23.903s1.131 35.79 23.903 58.563c11.328 11.328 23.508 19.666 34.069 24.011 3.993-11.496 13.106-20.609 24.601-24.602z" fill="#fe99a0"/></g><g><circle cx="362.976" cy="165.64" fill="#fff" r="40.843"/></g><g><path d="m354.595 165.64c0-16.788 10.132-31.204 24.612-37.483-4.976-2.158-10.462-3.36-16.231-3.36-22.557 0-40.843 18.286-40.843 40.843s18.286 40.843 40.843 40.843c5.769 0 11.255-1.203 16.231-3.36-14.48-6.279-24.612-20.695-24.612-37.483z" fill="#f2fbff"/></g></g><g><g><path d="m184.941 290.135c7.666 0 14.925 1.772 21.395 4.922 5.334-12.893 8.628-30.577 8.628-50.097 0-39.451-13.441-71.432-30.022-71.432s-30.022 31.981-30.022 71.432c0 19.52 3.294 37.203 8.628 50.097 6.468-3.15 13.727-4.922 21.393-4.922z" fill="#fe99a0"/><path d="m302.066 222.043c-11.724-11.724-43.843 1.385-71.739 29.281-13.803 13.803-23.979 28.638-29.324 41.526 14.134 4.916 25.34 16.122 30.255 30.255 12.889-5.345 27.723-15.521 41.527-29.324 27.896-27.895 41.006-60.014 29.281-71.738z" fill="#fd8087"/><path d="m279.149 309.146c-19.52 0-37.204 3.294-50.097 8.628 3.15 6.469 4.922 13.728 4.922 21.395s-1.772 14.925-4.922 21.395c12.893 5.334 30.577 8.628 50.097 8.628 39.451 0 71.432-13.441 71.432-30.022 0-16.583-31.981-30.024-71.432-30.024z" fill="#fe99a0"/><path d="m272.785 384.554c-13.803-13.803-28.638-23.979-41.527-29.324-4.916 14.134-16.122 25.34-30.255 30.255 5.345 12.889 15.521 27.723 29.324 41.527 27.896 27.896 60.015 41.006 71.739 29.281 11.725-11.724-1.385-43.843-29.281-71.739z" fill="#fd8087"/><path d="m184.941 388.201c-7.666 0-14.925-1.772-21.394-4.922-5.334 12.893-8.628 30.577-8.628 50.097 0 39.451 13.441 71.432 30.022 71.432s30.022-31.981 30.022-71.432c0-19.52-3.294-37.204-8.628-50.097-6.469 3.15-13.728 4.922-21.394 4.922z" fill="#fe99a0"/><path d="m138.623 355.23c-12.889 5.345-27.723 15.521-41.526 29.324-27.896 27.896-41.006 60.015-29.281 71.739 11.724 11.724 43.843-1.385 71.739-29.281 13.803-13.803 23.979-28.638 29.324-41.526-14.134-4.916-25.34-16.122-30.256-30.256z" fill="#fd8087"/><path d="m135.908 339.168c0-7.666 1.772-14.925 4.922-21.395-12.893-5.333-30.577-8.628-50.097-8.628-39.451 0-71.432 13.441-71.432 30.022s31.981 30.022 71.432 30.022c19.52 0 37.203-3.294 50.097-8.628-3.15-6.468-4.922-13.727-4.922-21.393z" fill="#fe99a0"/><path d="m168.879 292.85c-5.345-12.889-15.521-27.723-29.324-41.526-27.896-27.896-60.015-41.006-71.739-29.281-11.724 11.724 1.385 43.843 29.281 71.739 13.803 13.803 28.638 23.979 41.526 29.324 4.916-14.134 16.122-25.34 30.256-30.256z" fill="#fd8087"/></g><g><circle cx="184.941" cy="339.168" fill="#fff" r="50.033"/></g><g><path d="m167.266 339.168c0-21.968 14.165-40.616 33.854-47.344-5.077-1.735-10.515-2.689-16.179-2.689-27.633 0-50.033 22.401-50.033 50.033s22.401 50.033 50.033 50.033c5.664 0 11.102-.955 16.179-2.689-19.69-6.728-33.854-25.376-33.854-47.344z" fill="#f2fbff"/></g></g><g><path d="m235.248 77.186c0-7.727-14.903-13.99-33.286-13.99-4.486 0-8.762.375-12.668 1.052 3.24-2.284 6.53-5.038 9.703-8.211 12.999-12.999 19.108-27.966 13.645-33.43-5.463-5.463-20.43.646-33.43 13.645-3.173 3.173-5.927 6.462-8.211 9.703.676-3.906 1.052-8.182 1.052-12.668 0-18.384-6.263-33.286-13.99-33.286-7.726 0-13.99 14.903-13.99 33.286 0 4.486.375 8.762 1.052 12.668-2.284-3.24-5.038-6.53-8.211-9.703-12.999-12.999-27.966-19.108-33.43-13.645-5.463 5.463.646 20.43 13.645 33.43 3.173 3.173 6.462 5.927 9.703 8.211-3.906-.676-8.182-1.052-12.668-1.052-18.384 0-33.286 6.263-33.286 13.99 0 7.726 14.903 13.99 33.286 13.99 4.486 0 8.762-.375 12.668-1.052-3.24 2.284-6.53 5.038-9.703 8.211-12.999 12.999-19.108 27.966-13.645 33.43 5.463 5.463 20.43-.646 33.43-13.645 3.173-3.173 5.927-6.462 8.211-9.703-.676 3.906-1.052 8.182-1.052 12.668 0 18.384 6.264 33.286 13.99 33.286 7.727 0 13.99-14.903 13.99-33.286 0-4.486-.375-8.762-1.052-12.668 2.284 3.24 5.038 6.53 8.211 9.703 12.999 12.999 27.966 19.108 33.43 13.645 5.463-5.463-.646-20.43-13.645-33.43-3.173-3.173-6.462-5.927-9.703-8.211 3.906.676 8.182 1.052 12.668 1.052 18.383 0 33.286-6.264 33.286-13.99z" fill="#fe99a0"/></g><path d="m149 71.5c0-20.94 8.108-39.976 21.34-54.175-2.375-10.324-6.983-17.325-12.278-17.325-7.726 0-13.99 14.903-13.99 33.286 0 4.486.375 8.762 1.052 12.668-2.284-3.24-5.038-6.53-8.211-9.703-12.999-12.999-27.966-19.108-33.43-13.645-5.464 5.464.646 20.43 13.645 33.43 3.173 3.173 6.462 5.927 9.703 8.211-3.906-.676-8.182-1.052-12.668-1.052-18.384 0-33.286 6.263-33.286 13.99 0 7.726 14.903 13.99 33.286 13.99 4.486 0 8.762-.375 12.668-1.052-3.24 2.284-6.53 5.038-9.703 8.211-12.999 12.999-19.108 27.966-13.645 33.43 5.463 5.463 20.43-.646 33.43-13.645 3.173-3.173 5.927-6.462 8.211-9.703-.676 3.906-1.052 8.182-1.052 12.668 0 18.384 6.264 33.286 13.99 33.286 6.846 0 12.539-11.702 13.749-27.154-14.102-14.345-22.811-34.01-22.811-55.716z" fill="#fd8087"/></g></svg>