<svg id="Capa_1" enable-background="new 0 0 512 512" height="512" viewBox="0 0 512 512" width="512" xmlns="http://www.w3.org/2000/svg"><g><g><path d="m510.216 108.513c-.211-1.307-1.246-2.342-2.553-2.553-42.692-6.878-87.966 6.132-120.879 39.045-4.736 4.737-9.047 9.736-12.959 14.94 14.47 19.205 23.205 43.984 23.205 71.006 0 3.789-.174 7.61-.518 11.358l-.014.152.032.15c1.774 8.167 2.75 16.564 2.924 25 26.276-5.134 51.36-17.866 71.716-38.222 32.915-32.911 45.924-78.184 39.046-120.876z" fill="#8bc727"/><path d="m510.216 108.513c-.21-1.307-1.246-2.342-2.553-2.553-42.692-6.878-87.966 6.132-120.879 39.045-4.737 4.737-9.047 9.736-12.959 14.94 6.578 8.73 11.969 18.613 15.893 29.336 5.215-8.018 11.336-15.618 18.37-22.653 28.554-28.554 66.41-42.117 103.813-40.721-.203-5.82-.756-11.631-1.685-17.394z" fill="#81b823"/><path d="m460.918 155.258c-2.93-2.928-7.678-2.928-10.607 0l-55.024 55.024c1.076 6.323 1.667 12.834 1.73 19.485l63.901-63.902c2.929-2.929 2.929-7.677 0-10.607z" fill="#78a91f"/></g><g><path d="m396.761 239.148c-1.687 25.733-11.295 49.813-27.484 68.521-17.826 20.602-41.723 32.515-67.288 33.545l-.938.038-.022.938c-.446 18.877-5.124 36.96-13.485 52.86 62.886-3.17 112.947-57.798 112.947-124.728 0-10.764-1.295-21.21-3.73-31.174z" fill="#a44f3e"/></g><g><path d="m165.332 231.962c-3.119-30.84-16.488-60.838-40.116-84.467-32.914-32.914-78.187-45.923-120.879-39.045-1.307.211-2.342 1.246-2.553 2.553-6.878 42.692 6.132 87.966 39.045 120.879 15.991 15.991 34.903 27.269 55.016 33.865 18.468-18.599 42.663-30.949 69.487-33.785z" fill="#8bc727"/><path d="m119.575 246.01c-18.111-6.768-35.099-17.423-49.664-31.988-29.446-29.446-42.948-68.785-40.543-107.318-8.368-.163-16.748.413-25.031 1.747-1.307.211-2.342 1.246-2.553 2.553-6.877 42.692 6.132 87.966 39.046 120.879 15.695 15.695 34.204 26.853 53.9 33.498 7.417-7.535 15.765-14.06 24.845-19.371z" fill="#81b823"/><path d="m141.204 237.263-79.515-79.515c-2.93-2.928-7.678-2.928-10.607 0-2.929 2.93-2.929 7.678 0 10.607l75.182 75.182c4.808-2.437 9.799-4.533 14.94-6.274z" fill="#78a91f"/></g><g><path d="m177.189 231.337c1.19 0 2.487.025 3.965.077l.137.005.134-.032c5.681-1.376 11.525-2.193 17.372-2.43l.938-.038.022-.938c.682-28.866 11.256-55.879 29.775-76.063 6.048-6.592 12.731-12.21 19.886-16.797-3.132-42.228-25.061-79.22-57.463-102.631-1.073-.775-2.537-.775-3.61 0-35.051 25.325-57.865 66.537-57.865 113.084 0 32.891 11.402 63.109 30.453 86.949 5.314-.775 10.74-1.186 16.256-1.186z" fill="#8bc727"/><path d="m177.189 230.337c1.339 0 2.671.032 4 .078 3.132-.759 6.319-1.354 9.554-1.775-17.247-23.199-27.459-51.935-27.459-83.065 0-39.717 16.619-75.54 43.268-100.934-4.583-4.367-9.454-8.434-14.598-12.15-1.073-.775-2.537-.775-3.61 0-35.051 25.325-57.865 66.537-57.865 113.084 0 32.473 11.114 62.342 29.73 86.039 5.546-.836 11.213-1.277 16.98-1.277z" fill="#81b823"/><path d="m197.648 229.032v-121.128c0-4.143-3.357-7.5-7.5-7.5s-7.5 3.357-7.5 7.5v123.218c4.923-1.119 9.955-1.82 15-2.09z" fill="#78a91f"/></g><g><path d="m298.375 119.608c-54.442 0-98.681 48.778-99.633 109.352 1.218-.05 2.44-.084 3.668-.084 54.398 0 98.655 49.5 98.655 110.344 0 1.015-.014 2.027-.039 3.036 53.812-1.571 97.004-50.801 97.004-111.304 0-61.494-44.617-111.344-99.655-111.344z" fill="#fed2a4"/><path d="m298.375 119.608c-23.782 0-43.061 49.85-43.061 111.344 0 5.249.144 10.411.416 15.467 27.254 19.657 45.336 53.91 45.336 92.801 0 .956-.011 1.908-.033 2.858 22.543-3.551 40.403-51.942 40.403-111.126 0-61.494-19.279-111.344-43.061-111.344z" fill="#fff3de"/></g><path d="m202.41 449.564c-54.398 0-98.655-49.5-98.655-110.344 0-54.178 35.091-99.361 81.186-108.611-2.564-.174-5.147-.272-7.752-.272-65.57 0-118.725 55.909-118.725 124.877s53.155 124.877 118.725 124.877c56.491 0 103.763-41.5 115.772-97.094-15.18 39.127-50.052 66.567-90.551 66.567z" fill="#a44f3e"/><path d="m90.662 355.214c0-37.666 15.858-71.431 40.931-94.325 13.317-15.029 30.439-25.836 49.619-30.479-1.335-.048-2.676-.073-4.022-.073-65.57 0-118.725 55.909-118.725 124.877s53.155 124.877 118.725 124.877c5.461 0 10.834-.396 16.099-1.147-57.955-8.266-102.627-60.507-102.627-123.73z" fill="#883f2e"/><g><g><ellipse cx="202.41" cy="339.22" fill="#ffe5c2" rx="99.656" ry="111.344"/></g><g><ellipse cx="202.41" cy="339.22" fill="#fff3de" rx="43.061" ry="111.344"/></g></g></g></svg>