<svg id="Capa_1" enable-background="new 0 0 512 512" height="512" viewBox="0 0 512 512" width="512" xmlns="http://www.w3.org/2000/svg"><g><g><path d="m349.855 417.98c-.772-.773-1.216-1.843-1.216-2.935v-63.813c0-1.108.432-2.151 1.216-2.936l27.627-27.627c-2.006-5.635-4.434-11.232-7.329-16.755l-106.974-204.086c-1.925-3.673-7.182-3.673-9.107 0l-106.974 204.087c-43.947 83.843 16.865 184.378 111.528 184.378 45.423 0 83.042-23.155 105.043-56.499z" fill="#c8effe"/><g><path d="m200.723 303.915 84.715-161.621-22.259-42.466c-1.925-3.673-7.182-3.673-9.107 0l-106.974 204.087c-43.947 83.843 16.865 184.378 111.528 184.378h.001c9.288 0 18.243-.981 26.812-2.806-78.769-16.774-124.351-105.955-84.716-181.572z" fill="#99e6fc"/></g><g><path d="m417.456 104.215-35.905 68.501c-15.225 29.046 5.843 63.876 38.637 63.876 32.795 0 53.862-34.829 38.637-63.876l-35.905-68.501c-1.154-2.204-4.309-2.204-5.464 0z" fill="#62dbfb"/></g><g><path d="m413.512 172.716 22.657-43.226-13.248-25.275c-1.155-2.204-4.309-2.204-5.464 0l-35.905 68.501c-15.225 29.046 5.843 63.876 38.638 63.876 5.733 0 11.096-1.084 15.98-2.995-23.06-9.025-35.222-36.912-22.658-60.881z" fill="#01d0fb"/></g><g><path d="m129.196 25.36-30.509 58.206c-13.099 24.99 5.027 54.955 33.241 54.955 28.215 0 46.34-29.965 33.241-54.955l-30.508-58.206c-1.155-2.204-4.309-2.204-5.465 0z" fill="#62dbfb"/></g><g><path d="m128.477 83.566 18.346-35.002-12.162-23.204c-1.155-2.204-4.309-2.204-5.465 0l-30.509 58.206c-13.099 24.99 5.027 54.955 33.241 54.955 5.382 0 10.394-1.097 14.895-3.035-19.094-8.223-28.945-31.698-18.346-51.92z" fill="#01d0fb"/></g><g><g fill="#62dbfb"><path d="m106.27 309.303-46.1 46.1c4.085 2.958 7.552 6.717 10.161 11.052l47.061-47.061c-4.163-2.83-7.907-6.233-11.122-10.091z"/><path d="m234.663 355.403-46.1-46.1c-3.215 3.859-6.958 7.261-11.122 10.091l47.061 47.061c2.609-4.335 6.076-8.094 10.161-11.052z"/></g><g><g><circle cx="38.328" cy="385.646" fill="#62dbfb" r="38.328"/></g><g><path d="m32.027 385.646c0-15.45 9.146-28.755 22.315-34.821-4.874-2.245-10.295-3.507-16.014-3.507-21.168 0-38.328 17.16-38.328 38.328s17.16 38.328 38.328 38.328c5.718 0 11.139-1.262 16.014-3.507-13.169-6.066-22.315-19.371-22.315-34.821z" fill="#01d0fb"/></g><g><circle cx="256.505" cy="385.646" fill="#62dbfb" r="38.328"/></g><g><path d="m250.426 385.646c0-15.406 9.095-28.682 22.204-34.771-4.903-2.277-10.363-3.557-16.124-3.557-21.168 0-38.328 17.16-38.328 38.328s17.16 38.328 38.328 38.328c5.762 0 11.222-1.28 16.124-3.557-13.11-6.089-22.204-19.365-22.204-34.771z" fill="#01d0fb"/></g></g><g><circle cx="147.417" cy="275.083" fill="#62dbfb" r="54.544"/></g><g><path d="m125.167 275.083c0-24.502 16.157-45.229 38.397-52.113-5.103-1.579-10.525-2.432-16.147-2.432-30.124 0-54.544 24.42-54.544 54.544s24.42 54.544 54.544 54.544c5.622 0 11.044-.852 16.147-2.432-22.24-6.882-38.397-27.609-38.397-52.111z" fill="#01d0fb"/></g></g></g><g><g><path d="m461.727 300.959h-63.813c-1.366 0-2.676.543-3.642 1.509l-45.123 45.123c-.966.966-1.509 2.276-1.509 3.642v63.813c0 1.366.543 2.676 1.509 3.642l45.123 45.123c.966.966 2.276 1.509 3.642 1.509h63.813c1.366 0 2.676-.543 3.642-1.509l45.123-45.123c.966-.966 1.509-2.276 1.509-3.642v-63.813c0-1.366-.543-2.676-1.509-3.642l-45.123-45.123c-.966-.966-2.276-1.509-3.642-1.509z" fill="#62dbfb"/></g><g><path d="m391.901 418.688c-.966-.966-1.509-2.276-1.509-3.642v-63.813c0-1.366.543-2.676 1.509-3.642l45.123-45.123c.966-.966 2.276-1.509 3.642-1.509h-42.753c-1.366 0-2.676.543-3.642 1.509l-45.123 45.123c-.966.966-1.509 2.276-1.509 3.642v63.813c0 1.366.543 2.676 1.509 3.642l45.123 45.123c.966.966 2.276 1.509 3.642 1.509h42.753c-1.366 0-2.676-.543-3.642-1.509z" fill="#01d0fb"/></g><path d="m459.414 375.639h-22.094v-22.094c0-4.142-3.357-7.5-7.5-7.5s-7.5 3.358-7.5 7.5v22.094h-22.094c-4.143 0-7.5 3.358-7.5 7.5s3.357 7.5 7.5 7.5h22.094v22.094c0 4.142 3.357 7.5 7.5 7.5s7.5-3.358 7.5-7.5v-22.094h22.094c4.143 0 7.5-3.358 7.5-7.5s-3.357-7.5-7.5-7.5z" fill="#fff"/></g></g></svg>