<svg id="Capa_1" enable-background="new 0 0 512 512" height="512" viewBox="0 0 512 512" width="512" xmlns="http://www.w3.org/2000/svg"><g><g><path d="m326.409 498h5.096c2.392-31.551-1.111-68.488-11.345-106.682-10.349-38.624-26.012-72.705-44.114-98.953-1.068-1.548-3.498-.897-3.649.978-2.553 31.782.923 69.129 11.272 107.753 10.085 37.637 25.223 70.939 42.74 96.904z" fill="#09a76d"/><path d="m326.406 498h5.107c.492-6.533.729-13.298.711-20.254-12.246-22.21-22.761-48.192-30.387-76.651-8.115-30.286-11.994-59.78-12.065-86.428-4.374-7.933-8.966-15.392-13.729-22.303-1.067-1.548-3.497-.896-3.647.978-2.553 31.782.923 69.129 11.272 107.753 10.086 37.636 25.222 70.94 42.738 96.905z" fill="#02905d"/><path d="m414.197 498c17.517-25.965 32.655-59.267 42.739-96.905 10.349-38.624 13.825-75.97 11.272-107.753-.151-1.875-2.581-2.526-3.649-.978-18.102 26.248-33.765 60.329-44.114 98.953-10.234 38.195-13.737 75.131-11.345 106.682h5.097z" fill="#09a76d"/><path d="m414.215 498c4.64-6.885 9.111-14.288 13.367-22.146.244-26.152 4.119-54.962 12.043-84.536 7.41-27.655 17.551-52.969 29.354-74.758.074-8.002-.18-15.764-.773-23.214-.149-1.875-2.581-2.526-3.648-.978-18.102 26.248-33.764 60.328-44.112 98.951-10.233 38.191-13.744 75.131-11.353 106.681z" fill="#02905d"/></g><g><path d="m97.803 498h5.096c2.392-31.551-1.111-68.488-11.345-106.682-10.349-38.624-26.012-72.705-44.114-98.953-1.068-1.548-3.498-.897-3.649.978-2.553 31.782.923 69.129 11.272 107.753 10.086 37.637 25.223 70.939 42.74 96.904z" fill="#09a76d"/><path d="m97.801 498h5.102c.629-8.304.855-16.976.651-25.952-10.938-20.914-20.348-44.892-27.331-70.953-7.54-28.141-11.431-55.603-12-80.731-5.272-10.081-10.897-19.457-16.783-27.997-1.068-1.549-3.499-.898-3.649.977-2.553 31.782.923 69.128 11.272 107.751 10.085 37.636 25.221 70.94 42.738 96.905z" fill="#02905d"/><path d="m185.591 498c17.517-25.965 32.654-59.267 42.739-96.905 10.349-38.624 13.825-75.97 11.272-107.753-.151-1.875-2.581-2.526-3.649-.978-18.102 26.248-33.765 60.329-44.114 98.953-10.234 38.195-13.737 75.131-11.345 106.682h5.097z" fill="#09a76d"/><path d="m185.602 498c3.787-5.625 7.462-11.594 11.002-17.871.461-25.485 4.342-53.408 12.015-82.044 7.901-29.488 18.91-56.306 31.727-79.034.161-8.887-.087-17.483-.744-25.703-.15-1.876-2.581-2.529-3.649-.98-18.101 26.247-33.763 60.328-44.112 98.95-10.234 38.192-13.745 75.132-11.353 106.682z" fill="#02905d"/></g><g><path d="m464.331 497h-86.528v-165.108c-.639.544-1.294 1.074-1.973 1.584-1.604 1.205-3.516 1.842-5.527 1.842s-3.923-.637-5.527-1.842c-.678-.509-1.333-1.039-1.973-1.584v165.108h-213.606v-165.108c-.639.544-1.294 1.074-1.973 1.584-1.604 1.205-3.516 1.842-5.527 1.842s-3.923-.637-5.527-1.842c-.678-.509-1.334-1.039-1.973-1.584v165.108h-86.528c-4.143 0-7.5 3.358-7.5 7.5s3.357 7.5 7.5 7.5h416.662c4.143 0 7.5-3.358 7.5-7.5s-3.357-7.5-7.5-7.5z" fill="#017b4e"/></g><g><g><path d="m364.775 50.357c1.604-1.205 3.516-1.842 5.527-1.842s3.923.637 5.527 1.842c3.418 2.567 6.331 5.598 8.709 8.963 5.17-6.841 8.239-15.357 8.239-24.594 0-13.368-6.423-25.229-16.347-32.683-3.626-2.723-8.63-2.723-12.256 0-9.925 7.453-16.347 19.315-16.347 32.683 0 9.237 3.07 17.753 8.239 24.594 2.378-3.365 5.291-6.396 8.709-8.963z" fill="#6f3f8a"/><g><path d="m355.074 104.713.344-.538-.344-.538c-4.087-6.4-6.247-13.799-6.247-21.397 0-6.134 1.377-12.02 3.94-17.33-8.638-6.015-19.078-8.31-29.094-6.885-4.49.638-8.028 4.177-8.666 8.666-1.748 12.288 2.098 25.217 11.551 34.67 6.856 6.857 15.543 10.747 24.487 11.709 1.013-2.916 2.348-5.724 4.029-8.357z" fill="#814ba2"/><path d="m425.599 66.691c-.639-4.489-4.177-8.028-8.667-8.666-10.016-1.424-20.457.87-29.095 6.885 2.563 5.31 3.94 11.196 3.94 17.33 0 7.597-2.16 14.996-6.246 21.397l-.344.538.344.538c1.681 2.633 3.016 5.441 4.029 8.357 8.944-.962 17.631-4.853 24.487-11.709 9.454-9.453 13.3-22.382 11.552-34.67z" fill="#814ba2"/><g><path d="m376.431 49.557c-3.626-2.723-8.63-2.723-12.256 0-9.925 7.453-16.348 19.315-16.348 32.683s6.423 25.229 16.348 32.683c3.626 2.723 8.63 2.723 12.256 0 9.925-7.453 16.348-19.315 16.348-32.683s-6.423-25.23-16.348-32.683z" fill="#925cb4"/></g></g><g><path d="m355.074 148.583.344-.538-.344-.538c-4.087-6.4-6.247-13.799-6.247-21.397 0-6.027 1.38-11.921 3.983-17.299-8.646-6.038-19.104-8.343-29.137-6.917-4.49.638-8.028 4.177-8.666 8.666-1.748 12.288 2.098 25.217 11.551 34.67 6.856 6.856 15.543 10.747 24.487 11.709 1.013-2.914 2.348-5.722 4.029-8.356z" fill="#925cb4"/><path d="m425.599 110.561c-.639-4.489-4.177-8.028-8.667-8.666-10.033-1.427-20.491.879-29.137 6.916 2.602 5.378 3.982 11.272 3.982 17.299 0 7.597-2.16 14.996-6.246 21.397l-.344.538.344.538c1.681 2.633 3.016 5.441 4.029 8.357 8.944-.962 17.631-4.853 24.487-11.709 9.454-9.453 13.3-22.381 11.552-34.67z" fill="#925cb4"/><g><path d="m376.431 93.428c-3.626-2.723-8.63-2.723-12.256 0-9.925 7.453-16.348 19.315-16.348 32.683s6.423 25.229 16.348 32.683c3.626 2.723 8.63 2.723 12.256 0 9.925-7.453 16.348-19.315 16.348-32.683s-6.423-25.23-16.348-32.683z" fill="#6f3f8a"/></g></g><g><path d="m355.074 192.454.344-.538-.344-.538c-4.087-6.4-6.247-13.799-6.247-21.397 0-6.027 1.38-11.921 3.983-17.299-8.646-6.038-19.104-8.343-29.137-6.917-4.49.638-8.028 4.177-8.666 8.666-1.748 12.288 2.098 25.217 11.551 34.67 6.856 6.856 15.543 10.747 24.487 11.709 1.013-2.915 2.348-5.723 4.029-8.356z" fill="#814ba2"/><path d="m425.599 154.432c-.639-4.489-4.177-8.028-8.667-8.666-10.033-1.427-20.491.879-29.137 6.916 2.602 5.378 3.982 11.272 3.982 17.299 0 7.597-2.16 14.996-6.246 21.397l-.344.538.344.538c1.681 2.633 3.016 5.441 4.029 8.357 8.944-.962 17.631-4.853 24.487-11.709 9.454-9.453 13.3-22.382 11.552-34.67z" fill="#814ba2"/><g><path d="m376.431 137.298c-3.626-2.723-8.63-2.723-12.256 0-9.925 7.453-16.348 19.315-16.348 32.683s6.423 25.229 16.348 32.683c3.626 2.723 8.63 2.723 12.256 0 9.925-7.453 16.348-19.315 16.348-32.683s-6.423-25.23-16.348-32.683z" fill="#925cb4"/></g></g><g><path d="m355.074 236.325.344-.538-.344-.538c-4.087-6.4-6.247-13.799-6.247-21.397 0-6.027 1.38-11.921 3.983-17.299-8.646-6.038-19.104-8.343-29.137-6.917-4.49.638-8.028 4.177-8.666 8.666-1.748 12.288 2.098 25.217 11.551 34.67 6.856 6.857 15.543 10.747 24.487 11.709 1.013-2.915 2.348-5.723 4.029-8.356z" fill="#925cb4"/><path d="m425.599 198.302c-.639-4.489-4.177-8.028-8.667-8.666-10.033-1.427-20.491.879-29.137 6.916 2.602 5.378 3.983 11.272 3.983 17.299 0 7.597-2.16 14.996-6.246 21.397l-.344.538.344.538c1.681 2.633 3.016 5.441 4.029 8.357 8.944-.962 17.631-4.853 24.487-11.709 9.453-9.452 13.299-22.381 11.551-34.67z" fill="#925cb4"/><g><path d="m376.431 181.169c-3.626-2.723-8.63-2.723-12.256 0-9.925 7.453-16.348 19.315-16.348 32.683s6.423 25.229 16.348 32.683c3.626 2.723 8.63 2.723 12.256 0 9.925-7.453 16.348-19.315 16.348-32.683-.001-13.368-6.423-25.23-16.348-32.683z" fill="#6f3f8a"/></g></g><g><path d="m355.074 280.195.344-.538-.344-.538c-4.087-6.4-6.247-13.799-6.247-21.397 0-6.027 1.38-11.921 3.983-17.299-8.646-6.038-19.104-8.343-29.137-6.917-4.49.638-8.028 4.177-8.666 8.666-1.748 12.288 2.098 25.217 11.551 34.67 6.856 6.856 15.543 10.747 24.487 11.709 1.013-2.914 2.348-5.723 4.029-8.356z" fill="#814ba2"/><path d="m425.599 242.173c-.639-4.489-4.177-8.028-8.667-8.666-10.033-1.427-20.491.879-29.137 6.916 2.602 5.378 3.983 11.272 3.983 17.299 0 7.597-2.16 14.996-6.246 21.397l-.344.538.344.538c1.681 2.633 3.016 5.441 4.029 8.357 8.944-.962 17.631-4.853 24.487-11.709 9.453-9.453 13.299-22.382 11.551-34.67z" fill="#814ba2"/><g><path d="m376.431 225.039c-3.626-2.723-8.63-2.723-12.256 0-9.925 7.453-16.348 19.315-16.348 32.683s6.423 25.229 16.348 32.683c3.626 2.723 8.63 2.723 12.256 0 9.925-7.453 16.348-19.315 16.348-32.683-.001-13.368-6.423-25.229-16.348-32.683z" fill="#925cb4"/></g></g><g><path d="m348.827 301.593c0-6.027 1.38-11.921 3.983-17.299-8.646-6.038-19.104-8.343-29.137-6.917-4.49.638-8.028 4.177-8.666 8.666-1.748 12.288 2.098 25.217 11.551 34.67 9.452 9.452 22.381 13.298 34.669 11.551.545-.078 1.076-.2 1.59-.359-8.921-7.591-13.99-18.501-13.99-30.312z" fill="#925cb4"/><path d="m425.599 286.044c-.639-4.489-4.177-8.028-8.667-8.666-10.033-1.427-20.491.879-29.137 6.916 2.602 5.378 3.983 11.272 3.983 17.299 0 11.811-5.069 22.722-13.99 30.312.514.16 1.044.282 1.59.359 12.288 1.748 25.217-2.098 34.67-11.551 9.453-9.452 13.299-22.381 11.551-34.669z" fill="#925cb4"/><g><path d="m376.431 268.91c-3.626-2.723-8.63-2.723-12.256 0-9.925 7.453-16.348 19.315-16.348 32.683s6.423 25.229 16.348 32.683c3.626 2.723 8.63 2.723 12.256 0 9.925-7.453 16.348-19.315 16.348-32.683s-6.423-25.23-16.348-32.683z" fill="#6f3f8a"/></g></g></g><g><path d="m147.825 2.042c-3.626-2.723-8.63-2.723-12.256 0-9.925 7.453-16.347 19.315-16.347 32.683 0 9.237 3.069 17.753 8.239 24.594 2.378-3.365 5.291-6.396 8.709-8.963 1.604-1.205 3.516-1.842 5.527-1.842s3.923.637 5.527 1.842c3.418 2.567 6.331 5.598 8.709 8.962 5.17-6.841 8.239-15.357 8.239-24.594.001-13.367-6.422-25.228-16.347-32.682z" fill="#6f3f8a"/><g><path d="m126.468 104.713.344-.538-.344-.538c-4.086-6.401-6.246-13.8-6.246-21.397 0-6.134 1.377-12.02 3.94-17.33-8.638-6.015-19.079-8.31-29.095-6.885-4.489.638-8.028 4.177-8.666 8.666-1.748 12.288 2.098 25.217 11.551 34.67 6.857 6.857 15.544 10.748 24.487 11.709 1.013-2.916 2.348-5.724 4.029-8.357z" fill="#814ba2"/><path d="m196.993 66.691c-.639-4.489-4.177-8.028-8.666-8.666-10.016-1.424-20.457.87-29.094 6.885 2.563 5.31 3.94 11.196 3.94 17.33 0 7.598-2.16 14.997-6.247 21.397l-.344.538.344.538c1.681 2.633 3.017 5.441 4.03 8.357 8.944-.962 17.631-4.853 24.487-11.709 9.452-9.453 13.298-22.382 11.55-34.67z" fill="#814ba2"/><g><path d="m147.825 49.557c-3.626-2.723-8.63-2.723-12.256 0-9.925 7.453-16.347 19.315-16.347 32.683s6.423 25.229 16.347 32.683c3.626 2.723 8.63 2.723 12.256 0 9.925-7.453 16.347-19.315 16.347-32.683s-6.422-25.23-16.347-32.683z" fill="#925cb4"/></g></g><g><path d="m126.468 148.583.344-.538-.344-.538c-4.086-6.401-6.246-13.8-6.246-21.397 0-6.027 1.38-11.92 3.983-17.299-8.646-6.038-19.104-8.343-29.137-6.916-4.489.638-8.028 4.177-8.666 8.666-1.748 12.288 2.098 25.217 11.551 34.67 6.857 6.857 15.544 10.747 24.487 11.709 1.012-2.915 2.347-5.723 4.028-8.357z" fill="#925cb4"/><path d="m196.993 110.561c-.639-4.489-4.177-8.028-8.666-8.666-10.033-1.427-20.491.879-29.137 6.917 2.603 5.378 3.983 11.271 3.983 17.299 0 7.598-2.16 14.997-6.247 21.397l-.344.538.344.538c1.681 2.633 3.017 5.441 4.03 8.357 8.944-.962 17.631-4.853 24.487-11.709 9.452-9.454 13.298-22.382 11.55-34.671z" fill="#925cb4"/><g><path d="m147.825 93.428c-3.626-2.723-8.63-2.723-12.256 0-9.925 7.453-16.347 19.315-16.347 32.683s6.423 25.229 16.347 32.683c3.626 2.723 8.63 2.723 12.256 0 9.925-7.453 16.347-19.315 16.347-32.683s-6.422-25.23-16.347-32.683z" fill="#6f3f8a"/></g></g><g><path d="m126.468 192.454.344-.538-.344-.538c-4.086-6.401-6.246-13.8-6.246-21.397 0-6.027 1.38-11.92 3.983-17.299-8.646-6.038-19.104-8.343-29.137-6.916-4.489.638-8.028 4.177-8.666 8.666-1.748 12.288 2.098 25.217 11.551 34.67 6.857 6.857 15.544 10.747 24.487 11.709 1.012-2.915 2.347-5.724 4.028-8.357z" fill="#6f3f8a"/><path d="m196.993 154.432c-.639-4.489-4.177-8.028-8.666-8.666-10.033-1.427-20.491.879-29.137 6.917 2.603 5.378 3.983 11.271 3.983 17.299 0 7.598-2.16 14.997-6.247 21.397l-.344.538.344.538c1.681 2.633 3.017 5.441 4.03 8.357 8.944-.962 17.631-4.853 24.487-11.709 9.452-9.454 13.298-22.383 11.55-34.671z" fill="#6f3f8a"/><g><path d="m147.825 137.298c-3.626-2.723-8.63-2.723-12.256 0-9.925 7.453-16.347 19.315-16.347 32.683s6.423 25.229 16.347 32.683c3.626 2.723 8.63 2.723 12.256 0 9.925-7.453 16.347-19.315 16.347-32.683s-6.422-25.23-16.347-32.683z" fill="#925cb4"/></g></g><g><path d="m126.468 236.325.344-.538-.344-.538c-4.086-6.401-6.246-13.8-6.246-21.397 0-6.027 1.38-11.921 3.983-17.299-8.646-6.038-19.104-8.343-29.137-6.916-4.489.638-8.028 4.177-8.666 8.666-1.748 12.288 2.098 25.217 11.551 34.67 6.857 6.857 15.544 10.748 24.487 11.709 1.012-2.916 2.347-5.724 4.028-8.357z" fill="#925cb4"/><path d="m196.993 198.302c-.639-4.489-4.177-8.028-8.666-8.666-10.033-1.427-20.491.879-29.137 6.917 2.603 5.378 3.983 11.271 3.983 17.299 0 7.598-2.16 14.997-6.247 21.397l-.344.538.344.538c1.681 2.633 3.017 5.441 4.03 8.356 8.944-.962 17.631-4.853 24.487-11.709 9.452-9.452 13.298-22.381 11.55-34.67z" fill="#925cb4"/><g><path d="m147.825 181.169c-3.626-2.723-8.63-2.723-12.256 0-9.925 7.453-16.347 19.315-16.347 32.683s6.423 25.229 16.347 32.683c3.626 2.723 8.63 2.723 12.256 0 9.925-7.453 16.347-19.315 16.347-32.683.001-13.368-6.422-25.23-16.347-32.683z" fill="#6f3f8a"/></g></g><g><path d="m126.468 280.195.344-.538-.344-.538c-4.086-6.401-6.246-13.8-6.246-21.397 0-6.027 1.38-11.921 3.983-17.299-8.646-6.038-19.104-8.343-29.137-6.916-4.489.638-8.028 4.177-8.666 8.666-1.748 12.288 2.098 25.217 11.551 34.67 6.857 6.857 15.544 10.747 24.487 11.709 1.012-2.915 2.347-5.724 4.028-8.357z" fill="#6f3f8a"/><path d="m196.993 242.173c-.639-4.489-4.177-8.028-8.666-8.666-10.033-1.427-20.491.879-29.137 6.917 2.603 5.378 3.983 11.271 3.983 17.299 0 7.598-2.16 14.997-6.247 21.397l-.344.538.344.538c1.681 2.633 3.017 5.441 4.03 8.356 8.944-.962 17.631-4.853 24.487-11.709 9.452-9.453 13.298-22.382 11.55-34.67z" fill="#6f3f8a"/><g><path d="m147.825 225.039c-3.626-2.723-8.63-2.723-12.256 0-9.925 7.453-16.347 19.315-16.347 32.683s6.423 25.229 16.347 32.683c3.626 2.723 8.63 2.723 12.256 0 9.925-7.453 16.347-19.315 16.347-32.683.001-13.368-6.422-25.229-16.347-32.683z" fill="#925cb4"/></g></g><g><path d="m120.222 301.593c0-6.027 1.38-11.921 3.983-17.299-8.646-6.038-19.104-8.343-29.137-6.916-4.489.638-8.028 4.177-8.666 8.666-1.748 12.288 2.098 25.217 11.551 34.67 9.453 9.452 22.381 13.298 34.67 11.551.546-.078 1.076-.2 1.59-.359-8.922-7.592-13.991-18.502-13.991-30.313z" fill="#925cb4"/><path d="m196.993 286.044c-.639-4.489-4.177-8.028-8.666-8.666-10.033-1.427-20.491.879-29.137 6.917 2.603 5.378 3.983 11.271 3.983 17.299 0 11.811-5.069 22.722-13.99 30.312.514.16 1.045.282 1.59.359 12.288 1.748 25.217-2.098 34.67-11.551 9.452-9.453 13.298-22.382 11.55-34.67z" fill="#925cb4"/><g><path d="m147.825 268.91c-3.626-2.723-8.63-2.723-12.256 0-9.925 7.453-16.347 19.315-16.347 32.683s6.423 25.229 16.347 32.683c3.626 2.723 8.63 2.723 12.256 0 9.925-7.453 16.347-19.315 16.347-32.683s-6.422-25.23-16.347-32.683z" fill="#6f3f8a"/></g></g></g></g></g></svg>