<svg id="Capa_1" enable-background="new 0 0 512 512" height="512" viewBox="0 0 512 512" width="512" xmlns="http://www.w3.org/2000/svg"><g><g><g><g><path d="m213.175 359.214c0-82.11 66.802-148.912 148.913-148.912 8.508 0 16.848.728 24.969 2.105.416-5.175.637-10.405.637-15.686 0-106.888-86.959-193.847-193.847-193.847-106.888 0-193.847 86.959-193.847 193.846 0 106.888 86.959 193.847 193.847 193.847 7.568 0 15.032-.451 22.376-1.299-1.997-9.71-3.048-19.761-3.048-30.054z" fill="#09a76d"/><path d="m213.175 359.214c0-81.797 66.296-148.394 147.977-148.9.359-4.484.55-9.016.55-13.593 0-92.703-75.151-167.854-167.854-167.854s-167.855 75.15-167.855 167.854 75.151 167.854 167.854 167.854c6.56 0 13.028-.389 19.392-1.122-.039-1.408-.064-2.821-.064-4.239z" fill="#d1f19e"/><path d="m316.005 217.61c1.153-6.792 1.762-13.769 1.762-20.889 0-68.439-55.481-123.919-123.919-123.919s-123.92 55.48-123.92 123.919 55.481 123.919 123.919 123.919c8.602 0 16.998-.878 25.106-2.546 13.65-47.442 50.304-85.233 97.052-100.484z" fill="#bbec6c"/><g fill="#fff"><g><path d="m192.878 249.487-10.238 22.05c-3.802 8.19 2.178 17.56 11.207 17.56 9.03 0 15.01-9.37 11.207-17.56l-10.238-22.05c-.382-.825-1.555-.825-1.938 0z"/><path d="m194.817 143.954 10.238-22.05c3.802-8.19-2.178-17.56-11.207-17.56-9.03 0-15.01 9.37-11.207 17.56l10.238 22.05c.382.826 1.555.826 1.938 0z"/></g><g><path d="m246.614 197.69 22.05 10.238c8.19 3.802 17.56-2.178 17.56-11.207 0-9.03-9.37-15.01-17.56-11.207l-22.05 10.238c-.826.382-.826 1.555 0 1.938z"/><path d="m141.081 195.751-22.05-10.238c-8.19-3.802-17.56 2.178-17.56 11.207 0 9.03 9.37 15.01 17.56 11.207l22.05-10.238c.825-.382.825-1.555 0-1.938z"/></g><g><path d="m238.826 257.549c1.419 3.879 4.465 6.466 7.959 7.541 4.678-5.72 9.768-11.092 15.232-16.059-1.183-3.228-3.695-5.998-7.341-7.332l-22.831-8.353c-.854-.313-1.684.517-1.371 1.371z"/><path d="m157.222 158.724-8.353-22.831c-3.102-8.48-13.956-10.877-20.341-4.492-6.385 6.385-3.988 17.239 4.492 20.341l22.831 8.353c.854.313 1.683-.517 1.371-1.371z"/></g><g><path d="m231.845 160.095 22.831-8.353c8.48-3.102 10.877-13.956 4.492-20.341-6.385-6.385-17.239-3.988-20.341 4.492l-8.353 22.831c-.314.854.516 1.684 1.371 1.371z"/><path d="m155.85 233.346-22.831 8.353c-8.48 3.102-10.877 13.956-4.492 20.341 6.385 6.385 17.239 3.988 20.341-4.492l8.353-22.831c.313-.854-.516-1.683-1.371-1.371z"/></g></g></g></g><path d="m165.842 422.367-19.086 41.109c-7.427 15.996 4.253 34.297 21.89 34.297 17.636 0 29.316-18.301 21.89-34.297l-19.086-41.109c-1.109-2.385-4.5-2.385-5.608 0z" fill="#99e6fc"/><path d="m167.273 463.476 11.631-25.051-7.456-16.058c-1.107-2.385-4.499-2.385-5.606 0l-19.086 41.109c-7.427 15.996 4.253 34.297 21.89 34.297 3.729 0 7.187-.825 10.259-2.267-11.459-5.376-17.489-19.415-11.632-32.03z" fill="#62dbfb"/><path d="m434.977 116.912-19.086 41.109c-7.427 15.996 4.253 34.297 21.89 34.297 17.636 0 29.316-18.301 21.89-34.297l-19.086-41.109c-1.109-2.386-4.5-2.386-5.608 0z" fill="#99e6fc"/><path d="m436.273 158.021 11.698-25.197-7.388-15.913c-1.107-2.385-4.499-2.385-5.606 0l-19.086 41.109c-7.427 15.996 4.253 34.297 21.89 34.297 3.702 0 7.136-.815 10.191-2.236-11.502-5.352-17.567-19.421-11.699-32.06z" fill="#62dbfb"/><path d="m84.9 307.213-23.059 49.665c-8.775 18.899 5.025 40.521 25.862 40.521 20.837 0 34.637-21.622 25.862-40.521l-23.059-49.665c-1.107-2.385-4.499-2.385-5.606 0z" fill="#99e6fc"/><path d="m82.685 356.878 15.44-33.255-7.619-16.41c-1.108-2.385-4.499-2.385-5.606 0l-23.059 49.665c-8.775 18.899 5.025 40.521 25.862 40.521 3.731 0 7.231-.703 10.422-1.95-14.627-5.716-22.643-23.056-15.44-38.571z" fill="#62dbfb"/></g><g><ellipse cx="362.088" cy="359.214" fill="#02905d" rx="149.912" ry="149.913" transform="matrix(.707 -.707 .707 .707 -147.95 361.246)"/><circle cx="362.088" cy="359.214" fill="#d1f19e" r="123.919"/><path d="m275 359.214c0-62.18 45.799-113.659 105.504-122.555-6.009-.895-12.158-1.364-18.416-1.364-68.439 0-123.919 55.481-123.919 123.919s55.481 123.919 123.919 123.919c6.258 0 12.407-.469 18.416-1.364-59.705-8.896-105.504-60.375-105.504-122.555z" fill="#bbec6c"/><g fill="#fff"><g><path d="m361.118 401.548-10.238 22.05c-3.802 8.19 2.178 17.56 11.207 17.56 9.03 0 15.01-9.37 11.207-17.56l-10.238-22.05c-.382-.825-1.555-.825-1.938 0z"/><path d="m363.058 317.533 10.238-22.05c3.802-8.19-2.178-17.56-11.207-17.56-9.03 0-15.01 9.37-11.207 17.56l10.238 22.05c.381.825 1.554.825 1.938 0z"/></g><g><path d="m398.713 386.779 8.353 22.831c3.102 8.48 13.956 10.877 20.341 4.492 6.385-6.385 3.988-17.239-4.492-20.341l-22.831-8.353c-.854-.313-1.683.517-1.371 1.371z"/><path d="m325.462 332.302-8.353-22.831c-3.102-8.48-13.956-10.877-20.341-4.492-6.385 6.385-3.988 17.239 4.492 20.341l22.831 8.353c.854.313 1.684-.517 1.371-1.371z"/></g><g><path d="m400.085 333.673 22.831-8.353c8.48-3.102 10.877-13.956 4.492-20.341-6.385-6.385-17.239-3.988-20.341 4.492l-8.353 22.831c-.313.854.516 1.684 1.371 1.371z"/><path d="m324.091 385.408-22.831 8.353c-8.48 3.102-10.877 13.956-4.492 20.341 6.385 6.385 17.239 3.988 20.341-4.492l8.353-22.831c.313-.854-.517-1.684-1.371-1.371z"/></g></g></g></g></svg>