<svg id="Capa_1" enable-background="new 0 0 512 512" height="512" viewBox="0 0 512 512" width="512" xmlns="http://www.w3.org/2000/svg"><g><g><path d="m173.087 400.735c-.668-1.078-.866-2.349-.557-3.578.313-1.244 1.101-2.285 2.22-2.931l292.214-168.71c-14.542-45.809-46.86-83.056-88.339-102.686-17.513 7.113-41.195 11.225-65.838 11.225-8.001 0-15.959-.423-23.653-1.257-.157-.017-.311-.025-.462-.025-1.672 0-3.129 1.031-3.713 2.626-.581 1.589-.12 3.323 1.176 4.417 4.666 3.943 9.271 8.182 13.688 12.599 21.065 21.065 36.9 45.392 42.358 65.074.23.83-.109 1.445-.332 1.738-.382.502-.975.802-1.587.802-.181 0-.365-.026-.546-.076-19.683-5.458-44.009-21.293-65.074-42.358-4.273-4.272-8.382-8.724-12.212-13.229-.78-.917-1.854-1.423-3.026-1.423-1.092 0-2.154.449-2.913 1.231-.747.77-1.139 1.803-1.105 2.909.071 2.298.107 4.639.107 6.958 0 29.806-6.01 58.213-16.076 75.989-.354.626-1.001 1-1.729 1s-1.375-.374-1.729-1c-10.066-17.776-16.076-46.184-16.076-75.989 0-2.319.036-4.66.107-6.958.034-1.106-.358-2.139-1.105-2.91-.759-.782-1.82-1.231-2.913-1.231-1.172 0-2.246.505-3.026 1.423-3.83 4.505-7.938 8.956-12.212 13.229-21.065 21.065-45.392 36.9-65.074 42.358-.181.05-.365.076-.546.076-.612 0-1.205-.3-1.586-.802-.223-.292-.562-.908-.332-1.737 5.458-19.682 21.292-44.008 42.358-65.074 4.42-4.419 9.025-8.658 13.688-12.599 1.295-1.095 1.757-2.829 1.176-4.417-.583-1.595-2.041-2.626-3.713-2.626-.151 0-.305.008-.462.025-7.694.834-15.652 1.257-23.653 1.257-24.645 0-48.327-4.112-65.841-11.226-57.035 26.99-96.749 87.289-96.749 157.35 0 95.243 73.391 172.453 163.923 172.453 16.661 0 32.738-2.621 47.885-7.484-15.157-12.559-28.276-27.559-38.721-44.413z" fill="#fb2b3a"/><path d="m490.214 217.706c-1.516-2.827-5.083-3.834-7.861-2.23l-19.613 11.324-.367 1.37c41.827 73.525 16.41 167.464-56.953 209.821-23.379 13.498-49.955 20.633-76.847 20.633-.005 0-.006 0-.011 0-54.764-.004-105.758-29.186-133.33-76.221l-1.37-.367-19.613 11.323c-2.781 1.606-3.704 5.173-2.012 7.902 52.038 83.966 161.742 111.96 247.898 62.218 86.149-49.737 116.761-158.727 70.079-245.773z" fill="#c41926"/><path d="m65.983 280.179c0-61.501 30.605-115.477 76.662-146.006-18.164-1.63-34.403-5.445-47.115-10.755-56.379 27.269-95.53 87.201-95.53 156.761 0 95.243 73.391 172.453 163.923 172.453 11.29 0 22.309-1.213 32.956-3.502-74.701-16.077-130.896-85.61-130.896-168.951z" fill="#e41f2d"/><path d="m389.268 113.65c-17.362-9.832-45.147-16.205-76.482-16.205-23.896 0-45.706 3.717-62.424 9.838l-1.067 9.815c-.646 5.937-5.635 10.414-11.607 10.414s-10.962-4.477-11.607-10.414l-1.067-9.815c-16.718-6.121-38.528-9.838-62.424-9.838-31.334 0-59.119 6.374-76.482 16.205-2.009 1.138-2.009 4.061 0 5.199 17.362 9.832 45.147 16.206 76.482 16.206 8.206 0 16.167-.439 23.761-1.262 2.932-.318 4.499 3.356 2.246 5.26-4.627 3.91-9.23 8.135-13.75 12.655-22.147 22.147-37.283 46.289-42.615 65.514-.623 2.245 1.449 4.317 3.695 3.695 19.225-5.331 43.367-20.468 65.514-42.614 4.37-4.37 8.465-8.817 12.267-13.289 1.847-2.172 5.371-.81 5.283 2.039-.071 2.308-.107 4.638-.107 6.989 0 31.334 6.374 59.119 16.206 76.482 1.138 2.009 4.061 2.009 5.198 0 9.832-17.362 16.205-45.147 16.205-76.482 0-2.351-.036-4.681-.107-6.989-.088-2.85 3.436-4.212 5.283-2.039 3.802 4.472 7.897 8.919 12.267 13.289 22.147 22.147 46.289 37.283 65.514 42.614 2.245.623 4.317-1.449 3.695-3.695-5.331-19.225-20.468-43.367-42.615-65.514-4.52-4.52-9.122-8.745-13.75-12.655-2.253-1.904-.687-5.578 2.246-5.26 7.594.823 15.555 1.262 23.761 1.262 31.334 0 59.119-6.374 76.482-16.206 2.009-1.138 2.009-4.061-.001-5.199z" fill="#09a76d"/><g><path d="m221.281 23.883h32.815c3.384 0 6.019 2.937 5.653 6.301l-9.459 87.022c-.699 6.433-6.131 11.306-12.602 11.306-6.471 0-11.902-4.873-12.602-11.306l-9.459-87.022c-.365-3.364 2.27-6.301 5.654-6.301z" fill="#02905d"/></g><path d="m241.493 117.205-9.459-87.022c-.366-3.364 2.269-6.301 5.653-6.301h-16.406c-3.384 0-6.019 2.937-5.653 6.301l9.459 87.022c.699 6.433 6.131 11.306 12.602 11.306 3.114 0 5.973-1.145 8.192-3.035-2.388-2.035-4.026-4.94-4.388-8.271z" fill="#017b4e"/></g><g><g><path d="m193.862 382.037c42.799 74.13 137.928 99.619 212.057 56.821s99.62-137.928 56.821-212.058z" fill="#e41f2d"/></g><g><path d="m383.483 311.955c-2.081 1.201-3.195 3.584-2.744 5.944 3.187 16.644-4.239 34.201-19.742 43.152s-34.421 6.603-47.241-4.479c-1.818-1.571-4.438-1.797-6.519-.596l-55.716 32.168c-3.408 1.968-3.859 6.747-.835 9.266 37.901 31.57 93.029 37.966 138.175 11.901 45.128-26.055 67.153-76.965 58.791-125.556-.671-3.901-5.031-5.942-8.459-3.963z" fill="#c41926"/></g><g><path d="m375.789 394.159c-2.592 0-5.113-1.345-6.502-3.751l-3.98-6.895c-2.071-3.587-.842-8.174 2.745-10.245s8.174-.842 10.245 2.745l3.98 6.895c2.071 3.587.842 8.174-2.745 10.245-1.181.682-2.471 1.006-3.743 1.006z" fill="#fed2a4"/></g><g><g><path d="m294.69 396.989c-2.592 0-5.113-1.345-6.502-3.751-2.071-3.587-.842-8.174 2.745-10.245l6.895-3.98c3.587-2.072 8.174-.842 10.245 2.745s.842 8.174-2.745 10.245l-6.895 3.98c-1.181.682-2.47 1.006-3.743 1.006z" fill="#fed2a4"/></g><g><path d="m411.894 329.321c-2.592 0-5.113-1.345-6.502-3.751-2.071-3.587-.842-8.174 2.745-10.245l6.894-3.98c3.586-2.071 8.174-.843 10.245 2.745 2.071 3.587.842 8.174-2.745 10.245l-6.894 3.98c-1.18.682-2.47 1.006-3.743 1.006z" fill="#fed2a4"/></g></g><g><g><path d="m332.724 405.89c-.643 0-1.296-.083-1.946-.257-4.001-1.072-6.375-5.185-5.303-9.186l2.061-7.69c1.072-4.001 5.187-6.372 9.186-5.303 4.001 1.072 6.375 5.185 5.303 9.186l-2.061 7.69c-.899 3.35-3.929 5.56-7.24 5.56z" fill="#fed2a4"/></g><g><path d="m407.477 362.731c-.643 0-1.295-.083-1.946-.257l-7.689-2.06c-4.001-1.072-6.375-5.185-5.304-9.186 1.073-4.001 5.188-6.375 9.186-5.304l7.689 2.06c4.001 1.072 6.375 5.185 5.304 9.186-.898 3.351-3.929 5.561-7.24 5.561z" fill="#fed2a4"/></g></g></g></g></svg>