<svg id="Capa_1" enable-background="new 0 0 512 512" height="512" viewBox="0 0 512 512" width="512" xmlns="http://www.w3.org/2000/svg"><g><g><path d="m176.711 280.939c3.3 0 6.66.182 9.986.541l1.138.123-.04-1.463c-.018-.648-.036-1.296-.036-1.949 0-9.27 1.383-18.222 3.944-26.667-9.986-32.771-32.506-61.002-64.979-76.612-40.998-19.708-87.808-14.481-124.46 9.63-1.555 1.023-2.415 2.811-2.242 4.664 4.063 43.684 29.218 83.504 70.216 103.213 14.611 7.024 29.96 10.864 45.324 11.828 16.272-14.489 37.699-23.308 61.149-23.308z" fill="#09a76d"/><g><path d="m152.914 283.015c-20.677 1.419-41.791-2.27-61.558-11.773-39.154-18.822-63.843-55.99-69.525-97.346-6.763 2.984-13.316 6.532-19.567 10.645-1.555 1.023-2.415 2.811-2.242 4.664 4.063 43.684 29.218 83.504 70.216 103.213 14.152 6.803 28.996 10.611 43.877 11.72 10.888-9.903 24.136-17.255 38.799-21.123z" fill="#02905d"/></g><path d="m128.781 256.552-31.364 11c-3.909 1.371-5.966 5.65-4.595 9.559 1.083 3.088 3.98 5.02 7.077 5.02.823 0 1.661-.137 2.482-.425l45.519-15.964 31.719 15.247c2.355.075 4.725.236 7.079.49l1.138.123-.04-1.463c-.018-.648-.036-1.296-.036-1.949 0-3.271.175-6.502.509-9.686l-33.87-16.282-15.964-45.519c-1.371-3.909-5.652-5.967-9.559-4.595-3.909 1.371-5.966 5.65-4.595 9.559l11 31.365-32.767-15.751-10.758-30.671c-1.371-3.909-5.652-5.967-9.559-4.595-3.909 1.371-5.966 5.65-4.595 9.559l5.793 16.517-24.027-11.55c-3.732-1.793-8.214-.223-10.009 3.51-1.794 3.733-.223 8.214 3.51 10.009l24.026 11.55-16.517 5.793c-3.909 1.371-5.966 5.65-4.595 9.559 1.083 3.088 3.98 5.02 7.077 5.02.823 0 1.661-.137 2.482-.425l30.672-10.757z" fill="#026841"/></g><g><path d="m510.222 209.318c-28.78-18.933-65.536-23.037-97.729-7.562-20.79 9.994-36.381 26.579-45.685 46.309 3.28 9.444 5.068 19.58 5.068 30.126 0 1.529-.05 3.173-.151 5.026l-.045.805.777.214c13.413 3.692 25.454 10.296 35.535 19.001 16.402 1.207 33.169-1.673 48.855-9.213 32.193-15.475 51.945-46.743 55.135-81.045.136-1.454-.539-2.858-1.76-3.661z" fill="#09a76d"/><path d="m510.222 209.318c-28.781-18.933-65.536-23.037-97.729-7.562-20.332 9.774-35.694 25.85-45.063 45.008 3.522 9.818 5.446 20.397 5.446 31.427 0 1.706-.061 3.398-.154 5.081.816.225 1.628.459 2.435.705 8.206-24.654 25.552-45.78 50.213-57.634 27.426-13.184 58.16-12.148 84.456.151 1.003-4.432 1.731-8.944 2.156-13.514.136-1.455-.539-2.859-1.76-3.662z" fill="#02905d"/><path d="m474.694 228.65c-1.795-3.733-6.279-5.304-10.009-3.51l-15.361 7.384 3.261-9.3c1.371-3.909-.687-8.188-4.595-9.559-3.912-1.373-8.188.687-9.56 4.595l-8.226 23.454-21.623 10.395 7.35-20.958c1.371-3.909-.687-8.188-4.595-9.559-3.912-1.372-8.188.687-9.56 4.595l-12.313 35.113-17.961 8.634c.243 2.721.375 5.474.375 8.257 0 1.529-.05 3.173-.151 5.026l-.045.805.777.214c.813.224 1.613.475 2.416.72l21.088-10.137 35.113 12.314c.821.288 1.659.425 2.482.425 3.097 0 5.994-1.932 7.077-5.02 1.371-3.909-.687-8.188-4.595-9.559l-20.959-7.35 21.623-10.394 23.455 8.226c.821.288 1.659.425 2.482.425 3.097 0 5.994-1.932 7.077-5.02 1.371-3.909-.687-8.188-4.595-9.559l-9.301-3.262 15.361-7.384c3.735-1.796 5.306-6.277 3.512-10.011z" fill="#026841"/></g><g><path d="m279.818 186.133c6.168 0 12.195.615 18.027 1.777 1.266-7.388 1.928-14.97 1.928-22.699 0-49.996-27.541-93.857-68.953-118.579-1.535-.916-3.464-.916-4.999 0-41.412 24.722-68.953 68.583-68.953 118.579 0 34.016 12.759 65.184 33.951 89.425 10.434-39.387 46.378-68.503 88.999-68.503z" fill="#09a76d"/><path d="m203.264 225.28c-9.109-18.2-14.226-38.561-14.226-60.07 0-44.299 21.633-83.77 55.368-109.39-4.338-3.295-8.867-6.372-13.585-9.189-1.535-.916-3.464-.916-4.999 0-41.412 24.722-68.953 68.583-68.953 118.579 0 33.584 12.443 64.388 33.154 88.494 2.801-10.295 7.323-19.878 13.241-28.424z" fill="#02905d"/><g fill="#026841"><path d="m220.821 165.864v41.717c4.637-3.88 9.657-7.316 15-10.235v-31.482l25.403-25.403c2.929-2.929 2.929-7.678 0-10.606-2.93-2.929-7.678-2.928-10.607 0l-14.796 14.797v-30.96c0-4.142-3.358-7.5-7.5-7.5s-7.5 3.358-7.5 7.5v30.96l-14.797-14.797c-2.929-2.929-7.678-2.929-10.606 0-2.929 2.929-2.929 7.678 0 10.606z"/><path d="m253.642 189.93c7.012-2.083 14.37-3.353 21.966-3.697.044-1.976-.681-3.965-2.188-5.473-2.93-2.929-7.678-2.929-10.607 0z"/><path d="m210.053 218.195c3.267-3.794 6.84-7.317 10.676-10.537l-26.899-26.898c-2.929-2.929-7.678-2.929-10.606 0-2.929 2.929-2.929 7.678 0 10.606z"/></g></g><g><path d="m261.423 336.906.92 2.156.92-2.156c14.503-33.999 47.755-55.967 84.712-55.967 8.552 0 16.834 1.177 24.697 3.369.131-2.023.205-4.061.205-6.117 0-51.395-41.664-93.059-93.059-93.059s-93.059 41.664-93.059 93.059c0 1.106.026 2.206.065 3.303 32.814 3.6 61.432 24.547 74.599 55.412z" fill="#814ba2"/><path d="m219.724 290.461c-.529-4.016-.81-8.109-.81-12.27 0-45.912 33.25-84.054 76.982-91.671-5.223-.91-10.594-1.388-16.077-1.388-51.395 0-93.059 41.664-93.059 93.059 0 .766.011 1.53.029 2.292 11.776 1.269 22.893 4.734 32.935 9.978z" fill="#6f3f8a"/><g><ellipse cx="280.255" cy="227.512" fill="#6f3f8a" rx="25.966" ry="15.291"/></g></g><g><path d="m347.974 279.939c-38.957 0-72.316 23.941-86.184 57.91 4.493 10.836 6.98 22.707 6.98 35.149s-2.486 24.313-6.98 35.149c13.868 33.969 47.228 57.91 86.184 57.91 51.395 0 93.058-41.664 93.058-93.059.001-51.395-41.663-93.059-93.058-93.059z" fill="#814ba2"/><path d="m286.905 372.998c0-45.94 33.291-84.101 77.064-91.684-5.197-.9-10.54-1.374-15.995-1.374-38.957 0-72.316 23.941-86.184 57.91 4.493 10.836 6.98 22.707 6.98 35.149s-2.486 24.313-6.98 35.149c13.868 33.969 47.228 57.91 86.184 57.91 5.454 0 10.798-.474 15.995-1.374-43.772-7.586-77.064-45.746-77.064-91.686z" fill="#6f3f8a"/><g><g><circle cx="358.408" cy="349.136" fill="#6f3f8a" r="39.757"/></g><path d="m379.894 343.606c-1.273-3.941-5.504-6.104-9.443-4.829l-4.543 1.469v-4.759c0-4.142-3.357-7.5-7.5-7.5s-7.5 3.358-7.5 7.5v4.758l-4.542-1.469c-3.936-1.273-8.169.886-9.443 4.829-1.275 3.941.887 8.169 4.828 9.444l4.523 1.463-2.805 3.868c-2.432 3.353-1.685 8.043 1.668 10.475 1.33.964 2.871 1.429 4.397 1.429 2.321 0 4.61-1.074 6.077-3.098l2.797-3.857 2.798 3.858c1.467 2.023 3.756 3.097 6.077 3.097 1.526 0 3.067-.464 4.397-1.429 3.354-2.432 4.1-7.122 1.668-10.475l-2.805-3.868 4.522-1.462c3.942-1.274 6.103-5.503 4.829-9.444z" fill="#5b3374"/></g></g><g><g><circle cx="176.711" cy="372.998" fill="#925cb4" r="93.059"/></g><g><path d="m115.895 372.998c0-45.896 33.227-84.029 76.937-91.663-5.237-.915-10.623-1.395-16.121-1.395-51.395 0-93.059 41.664-93.059 93.059s41.664 93.059 93.059 93.059c5.499 0 10.885-.48 16.121-1.395-43.71-7.637-76.937-45.769-76.937-91.665z" fill="#814ba2"/></g><g><g><circle cx="159.163" cy="395.268" fill="#6f3f8a" r="39.757"/></g><path d="m180.649 389.738c-1.274-3.941-5.502-6.103-9.444-4.829l-4.542 1.469v-4.758c0-4.142-3.358-7.5-7.5-7.5s-7.5 3.358-7.5 7.5v4.759l-4.542-1.469c-3.94-1.274-8.169.888-9.444 4.829-1.274 3.941.887 8.169 4.829 9.444l4.522 1.462-2.805 3.867c-2.432 3.353-1.685 8.043 1.668 10.475 1.331.965 2.871 1.429 4.397 1.429 2.321 0 4.611-1.074 6.078-3.097l2.797-3.857 2.797 3.857c1.467 2.023 3.756 3.097 6.078 3.097 1.526 0 3.067-.464 4.397-1.429 3.353-2.432 4.1-7.122 1.668-10.475l-2.805-3.867 4.522-1.462c3.942-1.276 6.103-5.504 4.829-9.445z" fill="#5b3374"/></g></g></g></svg>