<svg id="Capa_1" enable-background="new 0 0 512 512" height="512" viewBox="0 0 512 512" width="512" xmlns="http://www.w3.org/2000/svg"><g><g><path d="m342.34 339.029c0-31.227 19.034-58.091 46.109-69.604l-122.139-211.893c-3.132-5.433-10.973-5.433-14.105 0l-127.619 221.4c-59.733 103.627 15.06 233.068 134.671 233.068h.001c68.698 0 122.598-42.704 144.732-98.687-35.042-6.565-61.65-37.366-61.65-74.284z" fill="#fac600"/><g><path d="m192.966 278.932 100.481-174.32-27.137-47.08c-3.132-5.433-10.973-5.433-14.105 0l-127.619 221.4c-59.733 103.627 15.06 233.068 134.671 233.068h.001c11.87 0 23.29-1.294 34.19-3.692-98.933-21.764-154.288-136.033-100.482-229.376z" fill="#e8b800"/></g></g><path d="m308.8 396.97h-91.586v-64.054h90.746c4.143 0 7.5-3.357 7.5-7.5s-3.357-7.5-7.5-7.5h-90.746v-64.053h91.586c4.143 0 7.5-3.357 7.5-7.5s-3.357-7.5-7.5-7.5h-99.086c-4.143 0-7.5 3.357-7.5 7.5v158.107c0 4.143 3.357 7.5 7.5 7.5h99.086c4.143 0 7.5-3.357 7.5-7.5s-3.358-7.5-7.5-7.5z" fill="#fff"/><g><g><circle cx="417.934" cy="339.029" fill="#8bc727" r="76.595"/></g><g><path d="m396.543 339.029c0-32.567 20.335-60.368 48.993-71.448-8.566-3.312-17.867-5.147-27.602-5.147-42.302 0-76.595 34.293-76.595 76.595s34.293 76.595 76.595 76.595c9.735 0 19.036-1.835 27.602-5.147-28.658-11.08-48.993-38.881-48.993-71.448z" fill="#81b823"/></g><g><path d="m413.67 368.045c-1.989 0-3.896-.79-5.304-2.196l-29.548-29.548c-2.929-2.93-2.929-7.678 0-10.607 2.93-2.928 7.678-2.928 10.607 0l24.244 24.245 36.223-36.225c2.93-2.928 7.678-2.928 10.607 0 2.929 2.93 2.929 7.678 0 10.607l-41.526 41.527c-1.407 1.407-3.314 2.197-5.303 2.197z" fill="#fff"/></g></g><g><g><path d="m431.72 84.5c-9.501 39.994-21.91 52.403-61.904 61.904-4.961 1.179-4.961 8.284 0 9.463 39.994 9.501 52.403 21.91 61.904 61.904 1.179 4.961 8.284 4.961 9.463 0 9.501-39.994 21.91-52.403 61.904-61.904 4.961-1.179 4.961-8.284 0-9.463-39.994-9.501-52.403-21.91-61.904-61.904-1.179-4.961-8.285-4.961-9.463 0z" fill="#fe9901"/></g><g><g><path d="m407.471 131.021c-8.899 6.864-20.829 11.386-37.656 15.383-4.961 1.179-4.961 8.284 0 9.463 39.994 9.501 52.403 21.91 61.904 61.904 1.179 4.961 8.284 4.961 9.463 0 3.997-16.826 8.519-28.757 15.383-37.656-8.382-28.874-20.219-40.711-49.094-49.094z" fill="#fb8801"/></g></g></g><g><g><path d="m72.349 1.841-57.666 100.043c-26.991 46.826 6.805 105.315 60.853 105.315 54.048 0 87.844-58.489 60.853-105.315l-57.667-100.043c-1.415-2.455-4.958-2.455-6.373 0z" fill="#fac600"/></g><g><path d="m64.448 101.884 35.97-62.403-21.696-37.64c-1.415-2.455-4.958-2.455-6.373 0l-57.666 100.043c-26.991 46.826 6.805 105.315 60.853 105.315 8.906 0 17.257-1.597 24.882-4.459-38.648-14.509-58.514-61.747-35.97-100.856z" fill="#e8b800"/></g></g><g fill="#e8b800"><path d="m372.609 33.055h-14.814v-14.815c0-4.143-3.357-7.5-7.5-7.5s-7.5 3.357-7.5 7.5v14.814h-14.815c-4.143 0-7.5 3.357-7.5 7.5s3.357 7.5 7.5 7.5h14.814v14.814c0 4.143 3.357 7.5 7.5 7.5s7.5-3.357 7.5-7.5v-14.813h14.814c4.143 0 7.5-3.357 7.5-7.5s-3.356-7.5-7.499-7.5z"/><path d="m81.568 269.104h-19.284v-19.284c0-4.143-3.357-7.5-7.5-7.5s-7.5 3.357-7.5 7.5v19.284h-19.285c-4.143 0-7.5 3.357-7.5 7.5s3.357 7.5 7.5 7.5h19.285v19.285c0 4.143 3.357 7.5 7.5 7.5s7.5-3.357 7.5-7.5v-19.285h19.284c4.143 0 7.5-3.357 7.5-7.5s-3.357-7.5-7.5-7.5z"/></g></g></svg>