<svg id="Capa_1" enable-background="new 0 0 512 512" height="512" viewBox="0 0 512 512" width="512" xmlns="http://www.w3.org/2000/svg"><g><g><path d="m305.202 489.994c1.182-5.139 2.719-10.197 4.557-15.164l-24.367 24.367c-2.929 2.929-2.929 7.678 0 10.606 1.465 1.464 3.385 2.197 5.304 2.197s3.839-.732 5.304-2.197l24.367-24.367c-4.967 1.838-10.026 3.375-15.165 4.558z" fill="#026841"/><g><path d="m340.381 425.781c-19.208 19.208-31.469 42.313-36.498 65.532 23.219-5.028 46.324-17.29 65.532-36.498 16.617-16.617 28.035-36.15 34.068-56.151 1.289-4.273-2.679-8.241-6.952-6.952-20 6.034-39.534 17.452-56.15 34.069z" fill="#09a76d"/></g><g><path d="m352.204 437.63c14.575-14.575 31.394-25.148 48.803-31.598.907-2.446 1.734-4.902 2.477-7.367 1.289-4.273-2.68-8.241-6.952-6.952-20.001 6.034-39.534 17.452-56.151 34.068-19.208 19.208-31.469 42.313-36.498 65.532 5.606-1.214 11.203-2.859 16.742-4.913 6.452-17.397 17.013-34.205 31.579-48.77z" fill="#02905d"/></g></g><g><path d="m125.598 116.306c1.838 4.967 3.375 10.025 4.557 15.164-5.139-1.183-10.198-2.719-15.164-4.557l19.935 19.935c1.465 1.465 3.384 2.197 5.304 2.197 1.919 0 3.839-.732 5.304-2.197 2.929-2.929 2.929-7.678 0-10.606z" fill="#026841"/><g><path d="m65.942 96.292c19.208 19.208 42.313 31.469 65.532 36.498-5.028-23.219-17.29-46.324-36.498-65.532-16.616-16.617-36.149-28.035-56.15-34.069-4.273-1.289-8.241 2.679-6.952 6.952 6.034 20.001 17.452 39.535 34.068 56.151z" fill="#09a76d"/></g><g><path d="m79.177 85.821c-14.838-14.838-25.518-32.004-31.934-49.749-2.792-1.063-5.599-2.032-8.417-2.882-4.273-1.289-8.241 2.679-6.952 6.952 6.034 20 17.452 39.534 34.068 56.151 19.208 19.208 42.313 31.469 65.532 36.498-1.144-5.282-2.682-10.556-4.571-15.782-17.025-6.485-33.453-16.915-47.726-31.188z" fill="#02905d"/></g></g><g><path d="m360.839 76.934c0-3.584 2.916-6.5 6.5-6.5s6.5 2.916 6.5 6.5v81.703c11.644-22.12 18.412-48.281 18.412-76.354 0-29.365-7.385-56.655-20.032-79.398-2.139-3.847-7.621-3.847-9.76 0-12.648 22.743-20.033 50.032-20.033 79.398 0 28.074 6.768 54.235 18.413 76.355z" fill="#09a76d"/><g><path d="m360.839 76.934c0-1.26.366-2.433.989-3.43 1.123-22.207 6.47-43.043 15.088-61.392-1.474-3.149-3.032-6.233-4.697-9.227-2.139-3.847-7.621-3.847-9.76 0-12.648 22.743-20.033 50.032-20.033 79.398 0 28.074 6.768 54.235 18.413 76.355z" fill="#02905d"/></g><path d="m381.845 193.439c1.183-5.139 2.719-10.198 4.557-15.164l-11.563 11.563v-112.904c0-4.142-3.357-7.5-7.5-7.5s-7.5 3.358-7.5 7.5v90.071l-11.564-11.564c1.838 4.967 3.375 10.025 4.557 15.165-5.139-1.182-10.198-2.719-15.164-4.557l22.171 22.171v48.664c0 4.142 3.357 7.5 7.5 7.5s7.5-3.358 7.5-7.5v-25.83l22.171-22.171c-4.967 1.837-10.026 3.374-15.165 4.556z" fill="#026841"/><g><path d="m317.654 106.393c19.208 19.208 31.469 42.313 36.498 65.532-23.219-5.028-46.324-17.29-65.532-36.498-16.617-16.617-28.035-36.15-34.068-56.151-1.289-4.273 2.679-8.241 6.952-6.952 20 6.034 39.533 17.452 56.15 34.069z" fill="#09a76d"/></g><g><path d="m303.512 124.763c-14.567-14.567-25.137-31.376-31.589-48.776-3.451-1.381-6.928-2.609-10.42-3.663-4.273-1.289-8.241 2.679-6.952 6.952 6.034 20.001 17.452 39.534 34.068 56.151 19.208 19.208 42.313 31.469 65.532 36.498-1.216-5.616-2.865-11.224-4.924-16.773-16.305-6.528-32.005-16.679-45.715-30.389z" fill="#02905d"/></g><g><g><path d="m417.023 129.226c-19.208 19.208-31.469 42.313-36.498 65.532 23.219-5.028 46.324-17.29 65.532-36.498 16.617-16.617 28.035-36.15 34.068-56.151 1.289-4.273-2.679-8.241-6.952-6.952-20 6.035-39.534 17.453-56.15 34.069z" fill="#09a76d"/></g><g><path d="m427.505 140.024c15.12-15.12 32.658-25.92 50.762-32.292.662-1.869 1.292-3.742 1.859-5.621 1.289-4.273-2.679-8.241-6.952-6.952-20.001 6.034-39.534 17.452-56.151 34.068-19.208 19.208-31.469 42.313-36.498 65.532 4.944-1.071 9.881-2.49 14.778-4.214 6.383-18.019 17.149-35.469 32.202-50.521z" fill="#02905d"/></g></g></g><g><g><path d="m194.811 177.38c0-3.584 2.916-6.5 6.5-6.5s6.5 2.916 6.5 6.5v72.107c11.645-22.12 18.412-48.281 18.412-76.354 0-29.365-7.385-56.655-20.033-79.398-2.139-3.847-7.621-3.847-9.76 0-12.648 22.743-20.032 50.033-20.032 79.398 0 28.073 6.768 54.234 18.413 76.355z" fill="#09a76d"/><g><path d="m194.811 177.38c0-1.995.905-3.781 2.324-4.974.103-24.536 5.368-47.595 14.539-67.751-1.701-3.739-3.521-7.39-5.484-10.919-2.139-3.847-7.621-3.847-9.76 0-12.648 22.743-20.032 50.032-20.032 79.398 0 28.073 6.768 54.234 18.413 76.355z" fill="#02905d"/></g></g><path d="m215.816 446.966c1.182-5.139 2.719-10.197 4.557-15.164l-11.563 11.563v-59.871l22.171-22.171c-4.967 1.838-10.026 3.375-15.165 4.558 1.182-5.139 2.719-10.197 4.557-15.164l-11.563 11.563v-56.168l22.171-22.171c-4.967 1.838-10.026 3.375-15.165 4.558 1.182-5.139 2.719-10.197 4.557-15.163l-11.563 11.563v-107.519c0-4.142-3.357-7.5-7.5-7.5s-7.5 3.358-7.5 7.5v90.071l-11.564-11.564c1.838 4.967 3.375 10.025 4.557 15.165-5.139-1.182-10.198-2.719-15.164-4.557l22.171 22.171v73.614l-11.564-11.564c1.838 4.967 3.375 10.025 4.557 15.165-5.139-1.182-10.198-2.719-15.164-4.557l22.171 22.171v59.872l-10.2-10.2c2 5.039 3.625 10.199 4.844 15.451-5.252-1.219-10.412-2.844-15.451-4.844l20.807 20.807v39.364c0 4.142 3.357 7.5 7.5 7.5s7.5-3.358 7.5-7.5v-39.364l22.171-22.171c-4.966 1.836-10.025 3.373-15.165 4.556z" fill="#026841"/><g><path d="m151.626 206.839c19.208 19.208 31.469 42.313 36.498 65.532-23.219-5.028-46.324-17.29-65.532-36.498-16.617-16.617-28.035-36.15-34.068-56.151-1.289-4.273 2.679-8.241 6.952-6.952 19.999 6.035 39.533 17.453 56.15 34.069z" fill="#09a76d"/></g><g><path d="m139.067 225.257c-14.367-14.367-24.838-30.915-31.313-48.059-4.06-1.699-8.158-3.184-12.279-4.427-4.273-1.289-8.241 2.679-6.952 6.952 6.034 20.001 17.452 39.534 34.068 56.151 19.208 19.208 42.313 31.469 65.532 36.498-1.266-5.845-2.992-11.683-5.171-17.454-15.65-6.546-30.687-16.463-43.885-29.661z" fill="#02905d"/></g><g><g><path d="m250.995 301.667c-19.208 19.208-31.469 42.313-36.498 65.532 23.219-5.028 46.324-17.29 65.532-36.498 16.617-16.617 28.035-36.15 34.068-56.151 1.289-4.273-2.679-8.241-6.952-6.952-20 6.035-39.534 17.453-56.15 34.069z" fill="#09a76d"/></g><g><path d="m261.676 315.634c14.678-14.678 31.633-25.292 49.175-31.73 1.209-3.101 2.302-6.22 3.247-9.353 1.289-4.273-2.679-8.241-6.952-6.952-20 6.034-39.534 17.452-56.151 34.068-19.208 19.208-31.469 42.313-36.498 65.532 5.478-1.186 10.948-2.79 16.365-4.778 6.507-16.689 16.804-32.776 30.814-46.787z" fill="#02905d"/></g></g><g><g><path d="m250.995 382.753c-19.208 19.208-31.469 42.313-36.498 65.532 23.219-5.028 46.324-17.29 65.532-36.498 16.617-16.617 28.035-36.15 34.068-56.151 1.289-4.273-2.679-8.241-6.952-6.952-20 6.034-39.534 17.452-56.15 34.069z" fill="#09a76d"/></g><g><path d="m263.522 394.996c14.294-14.294 30.748-24.729 47.799-31.212 1.023-2.704 1.955-5.421 2.777-8.148 1.289-4.273-2.679-8.241-6.952-6.952-20 6.034-39.534 17.452-56.151 34.068-19.208 19.208-31.469 42.313-36.498 65.532 5.937-1.286 11.865-3.051 17.724-5.278 6.477-17.126 16.947-33.657 31.301-48.01z" fill="#02905d"/></g></g><g><g><path d="m250.995 224.285c-19.208 19.208-31.469 42.313-36.498 65.532 23.219-5.028 46.324-17.29 65.532-36.498 16.617-16.617 28.035-36.15 34.068-56.151 1.289-4.273-2.679-8.241-6.952-6.952-20 6.035-39.534 17.453-56.15 34.069z" fill="#09a76d"/></g><g><path d="m261.676 239.502c14.52-14.52 31.268-25.07 48.609-31.527 1.445-3.577 2.72-7.184 3.813-10.806 1.289-4.273-2.679-8.241-6.952-6.952-20 6.034-39.534 17.452-56.151 34.068-19.208 19.208-31.469 42.313-36.498 65.532 5.673-1.228 11.338-2.896 16.943-4.984 6.533-16.167 16.634-31.728 30.236-45.331z" fill="#02905d"/></g></g><g><g><path d="m151.626 301.667c19.208 19.208 31.469 42.313 36.498 65.532-23.219-5.028-46.324-17.29-65.532-36.498-16.617-16.617-28.035-36.15-34.068-56.151-1.289-4.273 2.679-8.241 6.952-6.952 19.999 6.035 39.533 17.453 56.15 34.069z" fill="#09a76d"/></g><g><path d="m137.683 320.307c-14.629-14.629-25.223-31.519-31.667-48.998-3.491-1.401-7.008-2.644-10.541-3.71-4.273-1.289-8.241 2.679-6.952 6.952 6.034 20.001 17.452 39.534 34.068 56.151 19.208 19.208 42.313 31.469 65.532 36.498-1.2-5.541-2.825-11.075-4.845-16.552-16.262-6.53-31.918-16.665-45.595-30.341z" fill="#02905d"/></g></g><g><g><path d="m157.852 392.618c16.8 16.8 27.525 37.01 31.923 57.319-20.309-4.398-40.519-15.123-57.319-31.923-14.185-14.185-24.039-30.801-29.411-47.855-1.341-4.257 2.695-8.293 6.952-6.952 17.055 5.372 33.67 15.226 47.855 29.411z" fill="#09a76d"/></g><g><path d="m144.575 407.812c-12.571-12.571-21.733-27.053-27.396-42.055-2.382-.935-4.776-1.792-7.181-2.549-4.257-1.341-8.292 2.695-6.952 6.952 5.372 17.054 15.225 33.669 29.411 47.855 16.8 16.8 37.01 27.525 57.319 31.923-1.108-5.114-2.619-10.222-4.525-15.271-14.509-5.698-28.491-14.67-40.676-26.855z" fill="#02905d"/></g></g></g></g></svg>