<svg id="Capa_1" enable-background="new 0 0 512 512" height="512" viewBox="0 0 512 512" width="512" xmlns="http://www.w3.org/2000/svg"><g><g><g fill="#fd8087"><path d="m106.615 267.797c4.112-.495 7.045-4.23 6.55-8.343-.451-3.745-.754-7.563-.901-11.348-.16-4.139-3.641-7.375-7.785-7.204-4.139.16-7.364 3.646-7.204 7.785.162 4.189.498 8.415.997 12.56.458 3.808 3.695 6.604 7.437 6.604.299.001.602-.018.906-.054z"/><path d="m121.694 293.393c-1.376-3.518-2.624-7.136-3.707-10.755-1.187-3.969-5.368-6.223-9.335-5.035-3.968 1.187-6.223 5.367-5.035 9.335 1.2 4.011 2.582 8.022 4.108 11.921 1.158 2.96 3.989 4.769 6.986 4.769.909 0 1.833-.167 2.731-.518 3.858-1.509 5.761-5.86 4.252-9.717z"/><path d="m386.995 209.167c.902 3.666 1.663 7.417 2.263 11.15.593 3.687 3.778 6.312 7.396 6.312.396 0 .796-.031 1.199-.096 4.09-.657 6.873-4.505 6.216-8.595-.665-4.136-1.508-8.293-2.508-12.355-.99-4.022-5.054-6.479-9.075-5.491-4.023.99-6.481 5.052-5.491 9.075z"/><path d="m162.332 349.73c-2.901-2.42-5.741-4.992-8.441-7.643-2.955-2.902-7.704-2.858-10.606.096-2.902 2.955-2.859 7.704.096 10.606 2.988 2.935 6.131 5.781 9.342 8.459 1.403 1.17 3.106 1.741 4.801 1.741 2.147 0 4.28-.917 5.763-2.695 2.653-3.181 2.226-7.91-.955-10.564z"/><path d="m132.17 314.624c-2.142-3.545-6.753-4.683-10.298-2.539-3.545 2.143-4.682 6.753-2.539 10.298 2.164 3.58 4.503 7.116 6.953 10.511 1.466 2.032 3.76 3.111 6.088 3.111 1.521 0 3.056-.461 4.383-1.419 3.359-2.424 4.117-7.112 1.692-10.471-2.212-3.066-4.324-6.259-6.279-9.491z"/><path d="m112.435 194.716c.918.37 1.866.545 2.799.545 2.97 0 5.782-1.776 6.959-4.701 1.413-3.507 2.988-6.999 4.683-10.378 1.857-3.702.361-8.209-3.342-10.066-3.702-1.855-8.208-.361-10.066 3.341-1.878 3.745-3.624 7.614-5.188 11.5-1.549 3.843.312 8.212 4.155 9.759z"/><path d="m104.926 230.897c.329.042.654.063.977.063 3.711 0 6.936-2.754 7.428-6.533.488-3.75 1.137-7.523 1.928-11.213.868-4.05-1.711-8.038-5.761-8.906-4.051-.867-8.038 1.711-8.906 5.76-.877 4.088-1.596 8.269-2.137 12.423-.533 4.108 2.363 7.871 6.471 8.406z"/><path d="m361.432 156.703c1.479 1.889 3.683 2.875 5.91 2.875 1.618 0 3.247-.521 4.62-1.596 3.261-2.554 3.833-7.269 1.279-10.529-2.581-3.294-5.328-6.523-8.167-9.597-2.811-3.043-7.556-3.232-10.598-.422-3.043 2.81-3.232 7.555-.422 10.598 2.564 2.777 5.047 5.695 7.378 8.671z"/><path d="m374.405 176.521c1.793 3.325 3.47 6.764 4.983 10.222 1.232 2.816 3.986 4.495 6.875 4.495 1.004 0 2.025-.203 3.003-.631 3.794-1.661 5.524-6.083 3.863-9.878-1.677-3.832-3.535-7.644-5.522-11.328-1.966-3.645-6.514-5.008-10.161-3.041-3.646 1.966-5.007 6.515-3.041 10.161z"/><path d="m191.822 368.618c-3.414-1.622-6.803-3.406-10.073-5.303-3.582-2.078-8.172-.858-10.251 2.725-2.078 3.583-.858 8.172 2.725 10.251 3.624 2.102 7.379 4.079 11.162 5.876 1.039.494 2.135.728 3.213.728 2.805 0 5.496-1.581 6.78-4.283 1.777-3.742.185-8.216-3.556-9.994z"/><path d="m128.774 161.572c1.339.987 2.898 1.462 4.443 1.462 2.302 0 4.574-1.056 6.044-3.051 2.241-3.041 4.637-6.031 7.123-8.887 2.719-3.125 2.391-7.862-.734-10.582-3.125-2.719-7.861-2.39-10.581.734-2.751 3.161-5.403 6.47-7.884 9.836-2.456 3.336-1.745 8.031 1.589 10.488z"/><path d="m158.654 136.295c1.669 0 3.35-.555 4.743-1.694 2.926-2.393 5.987-4.694 9.098-6.841 3.409-2.353 4.265-7.023 1.912-10.433-2.352-3.409-7.024-4.267-10.433-1.912-3.443 2.376-6.832 4.924-10.072 7.574-3.207 2.622-3.681 7.347-1.059 10.554 1.483 1.812 3.638 2.752 5.811 2.752z"/><path d="m347.082 130.672c2.526-3.283 1.913-7.992-1.37-10.518-3.323-2.557-6.786-5.005-10.295-7.276-3.478-2.251-8.12-1.258-10.372 2.219-2.251 3.477-1.257 8.121 2.22 10.372 3.169 2.052 6.298 4.264 9.3 6.573 1.363 1.049 2.972 1.557 4.568 1.557 2.248 0 4.472-1.007 5.949-2.927z"/><path d="m316.197 110.383c1.628-3.809-.14-8.216-3.949-9.844-3.854-1.647-7.823-3.154-11.797-4.479-3.93-1.31-8.177.814-9.487 4.744s.814 8.177 4.744 9.487c3.585 1.195 7.167 2.555 10.645 4.041.961.411 1.961.605 2.944.605 2.912.001 5.683-1.707 6.9-4.554z"/><path d="m208.016 102.037c-1.427-3.888-5.737-5.885-9.625-4.456-3.928 1.442-7.844 3.064-11.64 4.822-3.758 1.741-5.394 6.199-3.653 9.958 1.269 2.738 3.979 4.35 6.811 4.35 1.055 0 2.127-.224 3.147-.696 3.424-1.586 6.958-3.051 10.504-4.352 3.888-1.428 5.883-5.737 4.456-9.626z"/><path d="m225.083 379.526c-3.713-.714-7.438-1.591-11.072-2.606-3.986-1.113-8.126 1.217-9.241 5.206-1.114 3.989 1.216 8.127 5.206 9.241 4.028 1.125 8.158 2.097 12.274 2.889.479.092.955.137 1.425.137 3.524 0 6.667-2.496 7.356-6.085.783-4.068-1.88-8-5.948-8.782z"/><path d="m244.398 95.652c-.409-4.122-4.087-7.134-8.204-6.723-4.17.414-8.369 1.003-12.48 1.753-4.075.743-6.776 4.649-6.033 8.724.66 3.62 3.816 6.156 7.37 6.156.446 0 .899-.04 1.354-.123 3.711-.677 7.503-1.209 11.27-1.583 4.122-.409 7.132-4.082 6.723-8.204z"/><path d="m250.629 382.031c-.662-.004-1.325-.008-1.984-.021-.054-.001-.106-.001-.159-.001-4.069 0-7.41 3.256-7.496 7.344-.086 4.142 3.201 7.568 7.342 7.655 1.084.022 2.171.034 3.26.034 2.173 0 4.357-.062 6.534-.153-2.831-4.736-5.342-9.696-7.497-14.858z"/><path d="m281.226 98.464c.621-4.095-2.195-7.918-6.291-8.54-4.131-.626-8.345-1.091-12.526-1.38-4.145-.285-7.714 2.832-8 6.964s2.832 7.714 6.964 8c3.777.262 7.583.681 11.313 1.247.381.058.76.086 1.134.086 3.645-.001 6.843-2.663 7.406-6.377z"/></g></g><path d="m367.159 418.498c-1.74-.413-2.357-1.875-2.357-3.001s.617-2.589 2.357-3.002c33.861-8.045 44.707-18.891 52.751-52.751.413-1.74 1.875-2.357 3.002-2.357s2.589.617 3.002 2.357c5.797 24.402 13.053 36.85 29.326 44.912 13.499-19.191 21.429-42.583 21.429-67.829 0-62.91-49.216-114.319-111.245-117.84 1.581 7.629 2.414 15.528 2.414 23.619 0 64.098-52.147 116.245-116.245 116.245-3.031 0-6.034-.117-9.007-.346 10.18 54.836 58.26 96.361 116.045 96.361 18.248 0 35.528-4.143 50.954-11.537-8.114-13.171-20.397-19.597-42.426-24.831z" fill="#fdb4ba"/><path d="m400.039 444.827c-55.857 0-102.648-38.8-114.903-90.917-10.626 3.208-21.885 4.941-33.543 4.941-3.031 0-6.034-.117-9.007-.346 10.18 54.836 58.26 96.361 116.045 96.361 17.145 0 33.433-3.659 48.134-10.233-2.227.125-4.469.194-6.726.194z" fill="#fe99a0"/><g><path d="m399.035 47.256c-6.031 25.386-13.908 33.263-39.294 39.294-3.149.748-3.149 5.258 0 6.007 25.386 6.031 33.263 13.907 39.294 39.294.748 3.149 5.258 3.149 6.007 0 6.031-25.386 13.908-33.263 39.294-39.294 3.149-.748 3.149-5.258 0-6.007-25.386-6.031-33.263-13.907-39.294-39.294-.749-3.149-5.259-3.149-6.007 0z" fill="#fdb4ba"/></g><g><g><path d="m380.857 78.719c-5.301 3.309-12.1 5.689-21.116 7.831-3.149.748-3.149 5.258 0 6.006 25.386 6.031 33.263 13.907 39.294 39.294.748 3.149 5.258 3.149 6.007 0 2.159-9.087 4.56-15.922 7.91-21.241-5.405-18.953-13.029-26.508-32.095-31.89z" fill="#fe99a0"/></g></g><g><path d="m418.936 359.513c-7.983 33.601-18.408 44.026-52.009 52.009-4.168.99-4.168 6.96 0 7.95 33.601 7.983 44.026 18.408 52.009 52.009.99 4.168 6.96 4.168 7.95 0 7.983-33.601 18.408-44.026 52.009-52.009 4.168-.99 4.168-6.96 0-7.95-33.601-7.983-44.026-18.408-52.009-52.009-.99-4.168-6.959-4.168-7.95 0z" fill="#fff3de"/></g><g><g><path d="m395.693 400.64c-7.129 4.653-16.366 7.935-28.765 10.881-4.168.99-4.168 6.96 0 7.95 33.601 7.983 44.026 18.408 52.009 52.009.99 4.168 6.96 4.168 7.95 0 2.959-12.454 6.257-21.719 10.942-28.861-7.122-24.88-17.17-34.874-42.136-41.979z" fill="#ffe5c2"/></g></g><g><path d="m88.084 342.274c-8.109 34.134-18.7 44.724-52.834 52.834-4.234 1.006-4.234 7.07 0 8.076 34.134 8.109 44.725 18.7 52.834 52.834 1.006 4.234 7.07 4.234 8.076 0 8.109-34.134 18.7-44.724 52.834-52.834 4.234-1.006 4.234-7.07 0-8.076-34.134-8.109-44.725-18.7-52.834-52.834-1.006-4.234-7.07-4.234-8.076 0z" fill="#fdb4ba"/></g><g><g><path d="m63.539 384.644c-7.112 4.416-16.225 7.598-28.289 10.464-4.234 1.006-4.234 7.07 0 8.076 34.134 8.109 44.724 18.7 52.834 52.834 1.006 4.234 7.07 4.234 8.076 0 2.917-12.28 6.163-21.501 10.703-28.667-7.284-25.388-17.593-35.488-43.324-42.707z" fill="#fe99a0"/></g></g><g><circle cx="251.593" cy="242.606" fill="#fe99a0" r="117.245"/></g><g><path d="m176 242.606c0-57.645 41.602-105.573 96.419-115.4-6.759-1.212-13.719-1.845-20.826-1.845-64.753 0-117.245 52.492-117.245 117.245s52.492 117.245 117.245 117.245c7.108 0 14.067-.633 20.826-1.845-54.817-9.827-96.419-57.755-96.419-115.4z" fill="#fd8087"/></g><g><circle cx="40.303" cy="154.774" fill="#fdb4ba" r="40.303"/></g><g><path d="m31.5 154.774c0-16.67 10.121-30.974 24.553-37.108-4.839-2.056-10.161-3.195-15.75-3.195-22.259 0-40.303 18.045-40.303 40.303s18.044 40.303 40.303 40.303c5.589 0 10.911-1.139 15.75-3.195-14.432-6.133-24.553-20.438-24.553-37.108z" fill="#fe99a0"/></g><g><g><circle cx="488.984" cy="188.864" fill="#fdb4ba" r="23.016"/></g><g><path d="m486.5 188.864c0-9.021 5.193-16.825 12.75-20.599-3.091-1.544-6.576-2.417-10.266-2.417-12.712 0-23.016 10.305-23.016 23.016 0 12.712 10.305 23.016 23.016 23.016 3.69 0 7.175-.873 10.266-2.417-7.557-3.774-12.75-11.578-12.75-20.599z" fill="#fe99a0"/></g></g><g><path d="m251.735 311.223c-18.828 0-36.389-7.474-49.448-21.044-13.053-13.564-19.842-31.418-19.117-50.273 1.358-35.312 30.069-64.234 65.362-65.844 24.371-1.108 46.985 10.374 60.454 30.729 2.286 3.454 1.338 8.107-2.116 10.394-3.454 2.285-8.107 1.338-10.394-2.116-10.529-15.912-28.202-24.89-47.261-24.021-27.569 1.258-49.996 23.851-51.057 51.436-.567 14.742 4.737 28.697 14.937 39.296 10.205 10.604 23.927 16.445 38.639 16.445 18.039 0 34.765-9.001 44.742-24.079 2.285-3.456 6.939-4.403 10.393-2.116 3.455 2.286 4.402 6.939 2.116 10.393-12.761 19.285-34.164 30.8-57.25 30.8z" fill="#fff3de"/></g><path d="m148.05 54.521h-9.627v-9.627c0-4.142-3.358-7.5-7.5-7.5s-7.5 3.358-7.5 7.5v9.627h-9.627c-4.142 0-7.5 3.358-7.5 7.5s3.358 7.5 7.5 7.5h9.627v9.626c0 4.142 3.358 7.5 7.5 7.5s7.5-3.358 7.5-7.5v-9.626h9.627c4.142 0 7.5-3.358 7.5-7.5s-3.358-7.5-7.5-7.5z" fill="#fdb4ba"/><path d="m415.655 316.774h-9.626v-9.626c0-4.142-3.358-7.5-7.5-7.5s-7.5 3.358-7.5 7.5v9.626h-9.627c-4.142 0-7.5 3.358-7.5 7.5s3.358 7.5 7.5 7.5h9.627v9.627c0 4.142 3.358 7.5 7.5 7.5s7.5-3.358 7.5-7.5v-9.627h9.626c4.142 0 7.5-3.358 7.5-7.5s-3.358-7.5-7.5-7.5z" fill="#fff"/></g></svg>