<svg id="Capa_1" enable-background="new 0 0 512 512" height="512" viewBox="0 0 512 512" width="512" xmlns="http://www.w3.org/2000/svg"><g><g><path d="m428.73 115.192c-17.961 0-34.695 5.209-48.805 14.18 34.097 19.601 59.602 52.522 69.379 91.608 28.081-6.483 51.19-25.944 62.695-51.724-14.213-31.852-46.137-54.064-83.269-54.064z" fill="#09a76d"/><path d="m428.73 115.192c-17.961 0-34.695 5.209-48.804 14.18 7.8 4.484 15.144 9.671 21.96 15.463 7.623-2.071 15.639-3.185 23.92-3.185 32.673 0 61.307 17.202 77.398 43.031 3.405-4.821 6.365-9.978 8.797-15.426-14.215-31.851-46.139-54.063-83.271-54.063z" fill="#02905d"/></g><g><path d="m331.285 94.048-.085.355.163.327c3.01 6.027 5.593 12.302 7.753 18.77 19.802 4.429 38.102 12.876 54.001 24.438 11.141-4.446 21.582-11.178 30.604-20.199 26.256-26.256 33.124-64.536 20.653-97.109-32.573-12.471-70.853-5.604-97.109 20.652-6.361 6.361-11.574 13.432-15.659 20.953 2.5 9.442 2.46 20.31-.321 31.813z" fill="#09a76d"/><path d="m331.285 94.048-.085.355.163.327c3.01 6.027 5.593 12.302 7.753 18.77 1.087.243 2.168.499 3.246.766 2.593-19.036 11.191-37.407 25.826-52.042 21.962-21.962 52.336-30.349 80.747-25.209-1.005-5.563-2.518-11.052-4.561-16.386-32.573-12.471-70.853-5.604-97.109 20.652-6.361 6.361-11.574 13.432-15.659 20.953 2.5 9.443 2.46 20.311-.321 31.814z" fill="#02905d"/><g fill="#026841"><path d="m356.919 118.69 61.611-61.612c2.929-2.929 2.929-7.678 0-10.606-2.929-2.929-7.678-2.929-10.606 0l-67.355 67.355c5.579 1.308 11.035 2.937 16.35 4.863z"/><path d="m467.952 161.755h-49.146c4.037 4.75 7.778 9.759 11.192 15h37.954c4.142 0 7.5-3.358 7.5-7.5s-3.358-7.5-7.5-7.5z"/></g></g><path d="m160.536 256.54c0-80.819 65.751-146.57 146.57-146.57 11.406 0 22.511 1.311 33.174 3.787-2.212-6.674-4.88-13.183-8.022-19.474 4.952-20.487 1.608-39.907-11.086-52.601s-32.114-16.037-52.601-11.086c-63.436-31.685-148.734-15.93-208.619 43.955-59.885 59.885-75.64 145.183-43.954 208.619-4.952 20.487-1.608 39.908 11.086 52.601 12.694 12.694 32.114 16.037 52.601 11.086 35.768 17.866 78.486 20.647 119.68 8.941-24.09-26.129-38.829-61.002-38.829-99.258z" fill="#fac600"/><g><g><path d="m69.836 346.357c-12.694-12.694-16.037-32.114-11.086-52.601-31.686-63.435-15.93-148.734 43.954-208.619 44.407-44.407 102.787-64.539 155.865-59.064-62.181-25.41-141.826-8.314-198.618 48.477-59.884 59.885-75.639 145.184-43.953 208.62-4.952 20.487-1.608 39.907 11.086 52.601 11.088 11.088 27.309 15.039 44.89 12.562-.73-.635-1.448-1.286-2.138-1.976z" fill="#e8b800"/></g></g><g><g><circle cx="307.106" cy="256.539" fill="#fedf30" r="147.57"/></g><g><path d="m330.926 396.54c7.614-4.701 13.714-11.599 17.464-19.797-12.928 4.547-26.821 7.03-41.284 7.03-14.472 0-28.373-2.486-41.308-7.038 3.784 8.283 9.984 15.231 17.703 19.938 9.184 5.6 12.492 17.361 7.962 27.118l-13.197 28.425c-9.785 21.075 5.604 45.186 28.84 45.186 23.236 0 38.624-24.111 28.84-45.186l-13.2-28.43c-4.57-9.845-1.054-21.544 8.18-27.246z" fill="#fef0ae"/></g><path d="m292.626 450.48 13.197-28.425c4.53-9.757 1.222-21.518-7.962-27.118-5.562-3.392-10.317-7.96-13.966-13.339-6.205-1.172-12.249-2.806-18.096-4.863 3.784 8.283 9.984 15.231 17.703 19.938 9.184 5.6 12.492 17.361 7.962 27.118l-13.197 28.425c-9.785 21.075 5.604 45.186 28.84 45.186 3.74 0 7.273-.632 10.535-1.768-.269-.094-.531-.201-.796-.302-20.589-2.939-33.34-25.209-24.22-44.852z" fill="#fee97d"/><g><circle cx="307.106" cy="259.021" fill="#fff5c6" r="118.251"/></g><g><path d="m220.974 259.021c0-59.757 44.557-109.296 102.192-117.156-5.253-.717-10.613-1.095-16.06-1.095-65.204 0-118.251 53.047-118.251 118.251s53.047 118.252 118.251 118.252c5.447 0 10.806-.379 16.06-1.095-57.635-7.861-102.192-57.399-102.192-117.157z" fill="#fef0ae"/></g><g fill="#fee97d"><path d="m299.573 240.882-65.967-65.967c-3.767 3.296-7.311 6.84-10.606 10.606l65.966 65.966c1.994-4.782 5.824-8.612 10.607-10.605z"/><path d="m307.106 239.374c2.656 0 5.187.536 7.5 1.495v-93.342c-2.48-.165-4.979-.257-7.5-.257s-5.02.092-7.5.257v93.342c2.313-.959 4.844-1.495 7.5-1.495z"/><path d="m287.459 259.021c0-2.656.536-5.187 1.495-7.5h-93.342c-.165 2.48-.257 4.979-.257 7.5s.092 5.02.257 7.5h93.342c-.959-2.313-1.495-4.844-1.495-7.5z"/><path d="m325.246 251.488 65.966-65.966c-3.296-3.767-6.84-7.311-10.606-10.606l-65.966 65.966c4.782 1.993 8.612 5.823 10.606 10.606z"/><path d="m288.966 266.555-65.966 65.966c3.296 3.767 6.84 7.311 10.606 10.606l65.966-65.966c-4.782-1.994-8.612-5.823-10.606-10.606z"/><path d="m418.6 251.521h-93.342c.959 2.313 1.495 4.844 1.495 7.5s-.536 5.187-1.495 7.5h93.342c.165-2.48.257-4.979.257-7.5s-.092-5.02-.257-7.5z"/><path d="m314.64 277.161 65.966 65.966c3.767-3.296 7.311-6.84 10.606-10.606l-65.967-65.967c-1.993 4.783-5.822 8.613-10.605 10.607z"/><path d="m307.106 278.668c-2.656 0-5.187-.536-7.5-1.495v93.342c2.48.165 4.979.257 7.5.257s5.02-.092 7.5-.257v-93.342c-2.313.96-4.844 1.495-7.5 1.495z"/></g><g><circle cx="307.106" cy="259.021" fill="#fff" r="20.647"/></g></g><g><path d="m307.106 384.773c-69.34 0-125.751-56.412-125.751-125.751s56.411-125.752 125.751-125.752 125.751 56.412 125.751 125.751-56.411 125.752-125.751 125.752zm0-236.503c-61.068 0-110.751 49.683-110.751 110.751s49.683 110.751 110.751 110.751 110.751-49.683 110.751-110.751-49.683-110.751-110.751-110.751z" fill="#fff"/></g></g></svg>