<svg id="Capa_1" enable-background="new 0 0 512 512" height="512" viewBox="0 0 512 512" width="512" xmlns="http://www.w3.org/2000/svg"><g><path d="m356.899 359.568c-1.374 8.845-9 15.621-18.229 15.621-1.191 0-2.353-.123-3.482-.339-1.996 6.125-4.711 12.089-8.153 17.78-15.435 25.515-42.451 40.748-72.271 40.748s-56.837-15.233-72.271-40.748c-6.635-10.97-10.586-22.954-11.842-35.152-90.013 10.918-153.953 38.595-153.953 71.02 0 41.975 107.14 76.002 239.303 76.002s239.303-34.027 239.303-76.002c-.001-30.524-56.667-56.841-138.405-68.93z" fill="#c8effe"/><path d="m58.574 428.498c0-27.249 45.159-51.145 113-64.558-.392-2.144-.701-4.299-.924-6.461-90.013 10.918-153.953 38.595-153.953 71.019 0 41.975 107.14 76.002 239.303 76.002 7.057 0 14.037-.103 20.938-.293-122.355-3.369-218.364-35.975-218.364-75.709z" fill="#99e6fc"/><path d="m427.483 367.608c-20.733-6.585-44.528-11.83-70.342-15.605v4.714c0 3.692-1.095 7.123-2.96 10.008 25.29 3.662 48.558 8.763 68.762 15.179 40.613 12.899 64.86 30.317 64.86 46.593s-24.247 33.694-64.86 46.593c-44.485 14.129-103.773 21.91-166.943 21.91s-122.458-7.781-166.943-21.909c-40.613-12.899-64.86-30.317-64.86-46.593s24.247-33.694 64.86-46.593c23.863-7.579 51.989-13.328 82.685-17.032-.959-4.927-1.461-9.917-1.521-14.915-31.758 3.821-60.917 9.779-85.704 17.651-49.275 15.649-75.32 36.705-75.32 60.89s26.045 45.24 75.32 60.89c45.913 14.58 106.813 22.611 171.483 22.611s125.57-8.031 171.482-22.612c49.275-15.649 75.32-36.705 75.32-60.89s-26.044-45.24-75.319-60.89z" fill="#62dbfb"/><path d="m324.094 397.163c-15.788 22.775-41.322 36.216-69.331 36.216-27.904 0-53.353-13.34-69.154-35.961-50.691 5.747-85.435 17.506-85.435 31.08 0 19.236 69.765 34.83 155.825 34.83s155.825-15.594 155.825-34.83c.002-13.778-35.794-25.686-87.73-31.335z" fill="#99e6fc"/><path d="m142.31 428.498c0-9.869 18.368-18.777 47.874-25.114-1.601-1.91-3.13-3.897-4.575-5.966-50.691 5.747-85.435 17.506-85.435 31.08 0 19.236 69.765 34.83 155.825 34.83 7.146 0 14.177-.11 21.068-.318-76.093-2.299-134.757-16.873-134.757-34.512z" fill="#62dbfb"/><path d="m367.822 396.55c-11.75-2.626-25.007-4.787-39.318-6.447-.475.848-.963 1.691-1.469 2.527-2.487 4.111-5.278 7.951-8.329 11.507 16.881 1.683 32.412 4.05 45.844 7.052 37.439 8.368 39.776 17.225 39.776 17.309s-2.337 8.94-39.776 17.309c-28.91 6.462-67.461 10.021-108.549 10.021s-79.639-3.559-108.549-10.021c-37.439-8.368-39.776-17.225-39.776-17.309s2.337-8.94 39.776-17.309c12.829-2.868 27.563-5.16 43.568-6.827-3.128-3.62-5.987-7.534-8.527-11.732-.451-.746-.888-1.498-1.315-2.254-13.426 1.621-25.885 3.69-36.999 6.174-34.657 7.747-51.504 18.197-51.504 31.948s16.847 24.201 51.504 31.948c29.953 6.695 69.665 10.382 111.821 10.382s81.868-3.687 111.821-10.382c34.656-7.747 51.504-18.197 51.504-31.948s-16.847-24.201-51.503-31.948z" fill="#01d0fb"/><path d="m320.198 356.717v-20.011c0-8.842 6.216-16.223 14.514-18.036-1.214-3.169-2.621-6.318-4.253-9.432l-72.999-139.267c-1.14-2.175-4.254-2.175-5.394 0l-72.998 139.268c-29.828 56.905 11.447 125.14 75.696 125.14 39.694 0 70.61-26.049 81.415-59.377-9.021-1.219-15.981-8.93-15.981-18.285z" fill="#62dbfb"/><g><path d="m221.611 309.238 54.424-103.831-18.575-35.437c-1.14-2.175-4.254-2.175-5.394 0l-72.998 139.268c-29.828 56.905 11.447 125.14 75.696 125.14 7.424 0 14.536-.921 21.272-2.621-51.562-13.006-80.806-72.188-54.425-122.519z" fill="#01d0fb"/></g><g><path d="m395.255 111.353-40.332 76.945c-16.955 32.348 6.507 71.135 43.029 71.135 36.522 0 59.984-38.788 43.029-71.135l-40.332-76.945c-1.14-2.176-4.254-2.176-5.394 0z" fill="#62dbfb"/></g><g><path d="m386.475 188.298 27.253-51.993-13.079-24.952c-1.14-2.175-4.254-2.175-5.394 0l-40.331 76.945c-16.955 32.347 6.507 71.135 43.029 71.135 5.599 0 10.889-.915 15.776-2.576-26.989-9.169-41.61-41.171-27.254-68.559z" fill="#01d0fb"/></g><g><path d="m143.986 67.312-37.206 70.982c-15.724 29.998 6.034 65.968 39.903 65.968 33.869 0 55.627-35.97 39.903-65.968l-37.206-70.982c-1.14-2.176-4.254-2.176-5.394 0z" fill="#62dbfb"/></g><g><path d="m138.385 138.294 24.101-45.98-13.105-25.002c-1.14-2.175-4.254-2.175-5.394 0l-37.206 70.982c-15.724 29.998 6.034 65.968 39.903 65.968 5.647 0 10.946-1.019 15.802-2.824-24.27-9.024-37.203-38.148-24.101-63.144z" fill="#01d0fb"/></g><g><g><path d="m338.669 375.189c-10.202 0-18.472-8.27-18.472-18.472v-20.011c0-10.202 8.27-18.472 18.472-18.472 10.202 0 18.472 8.27 18.472 18.472v20.011c0 10.202-8.27 18.472-18.472 18.472z" fill="#62dbfb"/></g><g fill="#99e6fc"><path d="m242.678 310.735c-4.142 0-7.5 3.358-7.5 7.5v20.977h-21.943v-20.977c0-4.142-3.358-7.5-7.5-7.5s-7.5 3.358-7.5 7.5v56.954c0 4.142 3.358 7.5 7.5 7.5s7.5-3.358 7.5-7.5v-20.977h21.943v20.977c0 4.142 3.358 7.5 7.5 7.5s7.5-3.358 7.5-7.5v-56.954c0-4.142-3.357-7.5-7.5-7.5z"/><path d="m338.669 310.735c-14.321 0-25.972 11.651-25.972 25.972v20.011c0 14.321 11.65 25.972 25.972 25.972s25.972-11.651 25.972-25.972v-20.011c0-14.321-11.651-25.972-25.972-25.972zm10.972 45.982c0 6.05-4.922 10.972-10.972 10.972s-10.972-4.922-10.972-10.972v-20.011c0-6.05 4.922-10.972 10.972-10.972s10.972 4.922 10.972 10.972z"/><path d="m299.488 348.713c3.372-4.137 5.229-9.357 5.229-14.7 0-12.835-10.442-23.278-23.278-23.278-7.966 0-15.293 4.006-19.6 10.716-2.237 3.486-1.226 8.125 2.261 10.363 3.485 2.238 8.125 1.227 10.362-2.26 1.535-2.391 4.143-3.819 6.977-3.819 4.564 0 8.278 3.713 8.278 8.278 0 2.346-.937 4.056-1.762 5.106l-27.876 31.061c-1.977 2.203-2.474 5.362-1.267 8.065 1.206 2.703 3.889 4.444 6.849 4.444h31.556c4.143 0 7.5-3.358 7.5-7.5s-3.357-7.5-7.5-7.5h-14.747l16.787-18.705c.078-.088.155-.179.231-.271z"/></g></g><g><path d="m286.247 1.632-26.762 51.056c-11.608 22.146 4.455 48.701 29.459 48.701 25.004 0 41.067-26.555 29.459-48.701l-26.762-51.056c-1.14-2.176-4.254-2.176-5.394 0z" fill="#62dbfb"/></g><g><path d="m282.878 55.032 18.377-35.06-9.613-18.34c-1.14-2.175-4.254-2.175-5.394 0l-26.762 51.056c-11.608 22.146 4.455 48.701 29.459 48.701 2.994 0 5.856-.39 8.561-1.099-15.843-7.885-23.716-27.921-14.628-45.258z" fill="#01d0fb"/></g></g></svg>