<svg id="Capa_1" enable-background="new 0 0 512 512" height="512" viewBox="0 0 512 512" width="512" xmlns="http://www.w3.org/2000/svg"><g><g><g><path d="m507.133 235.005c-24.988-24.047-74.971-40.702-132.685-41.161-13.184-.105-25.971.651-38.167 2.147 6.559 6.478 12.324 13.936 17.036 22.25 2.333 4.116 4.392 8.417 6.121 12.783 4.829 12.195 14.659 21.804 26.97 26.363 11.885 4.4 22.988 10.492 33.004 18.004 37.871-5.712 69.309-18.749 87.687-35.879 1.299-1.213 1.316-3.273.034-4.507z" fill="#026841"/><path d="m361.773 236c5.315 9.814 14.053 17.469 24.634 21.387 11.885 4.4 22.988 10.492 33.004 18.004 37.871-5.712 69.309-18.749 87.687-35.879.71-.662 1.023-1.574.967-2.468z" fill="#017b4e"/></g><g><path d="m353.316 218.241c1.878 3.313 3.569 6.75 5.062 10.241 10.009-7.525 19.928-16.032 29.52-25.473 41.135-40.485 65.449-87.224 66.666-121.882.062-1.778-1.382-3.246-3.161-3.212-34.673.665-81.793 24.232-122.928 64.717-10.197 10.036-19.356 20.456-27.39 30.98 21.512 7.823 40.25 23.49 52.231 44.629z" fill="#02905d"/><path d="m353.316 218.241c1.878 3.313 3.569 6.75 5.062 10.24 10.009-7.525 19.928-16.032 29.52-25.473 41.135-40.485 65.449-87.224 66.666-121.882.034-.97-.389-1.836-1.061-2.428l-118.097 116.424c6.925 6.674 12.988 14.435 17.91 23.119z" fill="#09a76d"/></g><g><path d="m269.661 168.027c19.571 0 38.478 6.369 54.357 17.659 3.045-16.016 4.775-33.317 4.919-51.375.459-57.715-15.397-107.956-39.044-133.324-1.213-1.302-3.273-1.318-4.506-.036-24.047 24.988-40.702 74.971-41.161 132.685-.103 12.978.625 25.573 2.075 37.598 7.568-2.11 15.431-3.207 23.36-3.207z" fill="#026841"/><path d="m324.018 185.686c3.045-16.016 4.775-33.317 4.919-51.375.459-57.715-15.397-107.956-39.044-133.324-.661-.71-1.574-1.023-2.468-.967l-1.21 169.54c13.574 2.513 26.461 8.061 37.803 16.126z" fill="#017b4e"/></g><path d="m226.718 444.32c-15.048-26.766-20.218-58.108-14.559-88.251 2.411-12.838-.79-26.178-8.781-36.597-2.857-3.726-5.489-7.701-7.821-11.815-12.679-22.37-16.387-48.053-10.439-72.317 5.942-24.243 20.812-44.167 41.872-56.104 4.64-2.63 9.516-4.807 14.55-6.528-41.57-16.478-91.295 1.041-116.129 43.035-2.469 4.175-4.604 8.449-6.416 12.789-4.933 11.818-14.682 21.06-26.774 25.276-28.248 9.851-53.315 29.307-69.819 56.995-36.853 61.828-16.878 142.678 44.563 180.174 57.319 34.98 130.429 21.021 171.29-29.526-4.257-5.354-8.128-11.068-11.537-17.131z" fill="#02905d"/><path d="m226.99 179.236c4.64-2.63 9.516-4.807 14.55-6.528-41.57-16.478-91.295 1.041-116.129 43.035-2.469 4.175-4.604 8.449-6.416 12.789-4.933 11.818-14.682 21.06-26.774 25.276-28.248 9.851-53.315 29.307-69.819 56.995-36.853 61.828-16.878 142.678 44.563 180.174 4.414 2.694 8.925 5.087 13.504 7.206-46.062-41.236-58.115-111.077-25.411-165.943 16.504-27.688 41.57-47.144 69.819-56.995 12.092-4.217 21.841-13.458 26.774-25.276 1.812-4.34 3.947-8.614 6.416-12.789 11.847-20.033 29.364-34.474 48.951-42.334 5.799-6.097 12.485-11.367 19.972-15.61z" fill="#017b4e"/><g><g><circle cx="35.668" cy="388.171" fill="#026841" r="7.5"/></g><g><circle cx="75.712" cy="404.974" fill="#026841" r="7.5"/></g><g><circle cx="55.894" cy="435.722" fill="#026841" r="7.5"/></g><g><circle cx="90.738" cy="458.664" fill="#026841" r="7.5"/></g><g><circle cx="55.618" cy="340.94" fill="#026841" r="7.5"/></g></g><g><g><path d="m386.754 256.449c-12.038-4.457-21.662-13.858-26.387-25.793-1.732-4.374-3.788-8.687-6.18-12.907-26.477-46.714-83.645-64.346-127.69-39.382s-58.286 83.07-31.809 129.784c2.392 4.22 5.035 8.199 7.897 11.931 7.794 10.162 10.955 23.218 8.592 35.804-5.52 29.403-1.126 60.829 14.671 88.926 35.274 62.742 115.337 85.669 178.444 51.051 64.65-35.465 87.609-116.826 51.368-180.767-15.969-28.174-40.743-48.22-68.906-58.647z" fill="#81b823"/></g><g><path d="m393.104 472.317c-.438.249-.881.495-1.324.738-50.661 27.791-114.927 9.402-143.259-40.992-12.173-21.652-16.356-47.001-11.78-71.379 3.72-19.814-1.207-40.383-13.516-56.434-2.157-2.813-4.145-5.817-5.908-8.927-19.362-34.161-9.49-76.477 22.006-94.328s72.872-4.582 92.234 29.579c1.764 3.112 3.32 6.361 4.624 9.656 7.439 18.789 22.58 33.591 41.541 40.612 23.361 8.65 43.003 25.369 55.308 47.079 13.953 24.618 17.484 53.195 9.943 80.468-7.54 27.271-25.25 49.975-49.866 63.927-.002.001-.001 0-.003.001z" fill="#d1f19e"/></g><g><path d="m280.635 421.477c-12.173-21.652-16.356-47.001-11.78-71.379 3.72-19.814-1.207-40.383-13.516-56.434-2.157-2.813-4.145-5.817-5.908-8.927-18.448-32.549-10.341-72.484 17.708-91.623-9.578.38-19.078 2.929-27.816 7.881-31.496 17.851-41.368 60.167-22.006 94.328 1.763 3.11 3.751 6.114 5.908 8.927 12.31 16.051 17.236 36.62 13.516 56.434-4.577 24.377-.394 49.727 11.78 71.379 27.954 49.722 90.888 68.283 141.223 42.076-42.54 6.705-86.882-13.127-109.109-52.662z" fill="#bbec6c"/></g><path d="m439.554 324.223c-13.176-23.247-34.21-41.151-59.229-50.414-16.966-6.282-30.515-19.527-37.172-36.339-1.433-3.619-3.139-7.183-5.072-10.593-10.296-18.166-26.562-31.568-45.802-37.738-19.458-6.241-39.579-4.347-56.655 5.332-35.094 19.891-46.233 66.792-24.833 104.551 1.931 3.408 4.112 6.703 6.482 9.793 11.014 14.362 15.423 32.763 12.097 50.486-4.901 26.107-.422 53.253 12.613 76.438 20.744 36.898 59.472 57.77 99.24 57.77 18.391 0 37.011-4.467 54.167-13.878l1.415-.789c26.359-14.94 45.323-39.25 53.397-68.453 8.074-29.205 4.293-59.805-10.648-86.166zm-3.81 82.167c-7.006 25.341-23.462 46.436-46.335 59.4l-1.235.689c-14.889 8.167-31.035 12.042-46.996 12.041-34.504-.002-68.119-18.117-86.119-50.134-11.311-20.117-15.198-43.669-10.946-66.319 4.112-21.906-1.332-44.643-14.936-62.381-1.949-2.542-3.744-5.254-5.335-8.062-17.323-30.563-8.719-68.293 19.179-84.105 8.174-4.633 17.271-6.98 26.628-6.98 5.968 0 12.043.955 18.05 2.881 15.642 5.016 28.9 15.973 37.333 30.852 1.592 2.809 2.997 5.742 4.175 8.718 8.222 20.766 24.956 37.125 45.91 44.884 21.704 8.036 39.953 23.572 51.387 43.744 12.966 22.876 16.247 49.43 9.24 74.772z" fill="#8bc727"/><g><ellipse cx="338.471" cy="375.927" fill="#a44f3e" rx="59.723" ry="64.585" transform="matrix(.87 -.493 .493 .87 -141.357 215.775)"/></g><g><path d="m318.561 395.07c-16.565-29.226-9.534-64.929 15.312-82.572-9.359.074-18.696 2.395-27.248 7.242-28.696 16.264-37.7 54.605-20.112 85.636s55.108 43.002 83.804 26.738c1.669-.946 3.265-1.974 4.8-3.064-22.043.175-44.21-12.198-56.556-33.98z" fill="#883f2e"/></g></g></g></g></svg>