<svg id="Capa_1" enable-background="new 0 0 512 512" height="512" viewBox="0 0 512 512" width="512" xmlns="http://www.w3.org/2000/svg"><g><g><g><g><path d="m78.992 36.032c.36-.266.784-.407 1.228-.407s.868.142 1.229.408c2.232 1.655 4.314 3.481 6.271 5.425v-33.958c0-4.143-3.358-7.5-7.5-7.5s-7.5 3.357-7.5 7.5v33.958c1.958-1.944 4.04-3.77 6.272-5.426z" fill="#f6a96c"/><g><path d="m80.356 367.05-.136-.019-.136.019c-2.433.334-4.91.503-7.364.507v130.443h15v-130.443c-2.454-.004-4.931-.173-7.364-.507z" fill="#f6a96c"/></g><path d="m144.943 138.559c-.203-1.21-1.153-2.179-2.359-2.399-3.385-.619-6.812-.921-10.238-.908 11.274-14.138 15.483-32.363 12.598-49.554-.203-1.21-1.153-2.179-2.359-2.399-17.995-3.288-37.181 2.336-51.078 16.901-4.778 5.007-8.522 10.679-11.284 16.721-2.762-6.042-6.507-11.713-11.284-16.721-13.9-14.566-33.087-20.191-51.081-16.902-1.207.221-2.156 1.189-2.359 2.399-2.885 17.192 1.324 35.416 12.598 49.554-3.426-.012-6.853.29-10.238.908-1.207.221-2.156 1.189-2.359 2.399-2.885 17.192 1.324 35.416 12.598 49.554-3.426-.012-6.853.29-10.238.908-1.207.221-2.156 1.189-2.359 2.399-2.885 17.192 1.324 35.416 12.598 49.554-3.426-.012-6.853.29-10.238.908-1.207.221-2.156 1.189-2.359 2.399-2.885 17.192 1.324 35.416 12.598 49.554-3.426-.012-6.853.29-10.238.908-1.207.221-2.156 1.189-2.359 2.399-3.169 18.885 2.192 39.034 16.111 53.622 13.264 13.902 31.345 19.638 48.611 17.274 17.266 2.364 35.347-3.372 48.611-17.274 13.919-14.588 19.281-34.737 16.111-53.622-.203-1.21-1.153-2.179-2.359-2.399-3.385-.619-6.812-.921-10.238-.908 11.274-14.138 15.483-32.363 12.598-49.554-.203-1.21-1.153-2.179-2.359-2.399-3.385-.619-6.812-.921-10.238-.908 11.274-14.138 15.483-32.363 12.598-49.554-.203-1.21-1.153-2.179-2.359-2.399-3.385-.619-6.812-.921-10.238-.908 11.267-14.137 15.476-32.362 12.591-49.553z" fill="#ffbd86"/><path d="m68.212 100.889c4.56 4.779 8.294 10.313 11.099 16.446l.909 1.989.909-1.989c2.805-6.133 6.539-11.667 11.099-16.446 4.23-4.433 9.013-8.07 14.179-10.87.133-1.679.207-3.376.207-5.092 0-20.532-9.709-38.677-24.57-49.697-1.087-.806-2.56-.806-3.647 0-14.861 11.021-24.57 29.166-24.57 49.697 0 1.715.074 3.412.207 5.092 5.165 2.799 9.948 6.437 14.178 10.87z" fill="#fed2a4"/><g><g><path d="m91.505 100.199c-13.919 14.588-19.281 34.737-16.111 53.622.203 1.21 1.153 2.179 2.359 2.399 17.995 3.288 37.181-2.336 51.078-16.901 13.919-14.588 19.281-34.737 16.111-53.622-.203-1.21-1.153-2.179-2.359-2.399-17.994-3.289-37.181 2.336-51.078 16.901z" fill="#f6a96c"/></g><g><path d="m68.936 100.199c13.919 14.588 19.281 34.737 16.111 53.622-.203 1.21-1.153 2.179-2.359 2.399-17.995 3.288-37.181-2.336-51.078-16.901-13.919-14.588-19.281-34.737-16.111-53.622.203-1.21 1.153-2.179 2.359-2.399 17.994-3.289 37.181 2.336 51.078 16.901z" fill="#ffbd86"/></g></g><g><g><path d="m91.505 153.061c-13.919 14.588-19.281 34.737-16.111 53.622.203 1.21 1.153 2.179 2.359 2.399 17.995 3.288 37.181-2.336 51.078-16.901 13.919-14.588 19.281-34.737 16.111-53.622-.203-1.21-1.153-2.179-2.359-2.399-17.994-3.289-37.181 2.336-51.078 16.901z" fill="#ffbd86"/></g><g><path d="m68.936 153.061c13.919 14.588 19.281 34.737 16.111 53.622-.203 1.21-1.153 2.179-2.359 2.399-17.995 3.288-37.181-2.336-51.078-16.901-13.919-14.588-19.281-34.737-16.111-53.622.203-1.21 1.153-2.179 2.359-2.399 17.994-3.289 37.181 2.336 51.078 16.901z" fill="#fed2a4"/></g></g><g><g><path d="m91.505 205.923c-13.919 14.588-19.281 34.737-16.111 53.622.203 1.21 1.153 2.179 2.359 2.399 17.995 3.288 37.181-2.336 51.078-16.901 13.919-14.588 19.281-34.737 16.111-53.622-.203-1.21-1.153-2.179-2.359-2.399-17.994-3.289-37.181 2.336-51.078 16.901z" fill="#fed2a4"/></g><g><path d="m68.936 205.923c13.919 14.588 19.281 34.737 16.111 53.622-.203 1.21-1.153 2.179-2.359 2.399-17.995 3.288-37.181-2.336-51.078-16.901-13.919-14.588-19.281-34.737-16.111-53.622.203-1.21 1.153-2.179 2.359-2.399 17.994-3.289 37.181 2.336 51.078 16.901z" fill="#ffbd86"/></g></g><g><g><path d="m91.505 258.785c-13.919 14.588-19.281 34.737-16.111 53.622.203 1.21 1.153 2.179 2.359 2.399 17.995 3.288 37.181-2.336 51.078-16.901 13.919-14.588 19.281-34.737 16.111-53.622-.203-1.21-1.153-2.179-2.359-2.399-17.994-3.289-37.181 2.336-51.078 16.901z" fill="#ffbd86"/></g><g><path d="m68.936 258.785c13.919 14.588 19.281 34.737 16.111 53.622-.203 1.21-1.153 2.179-2.359 2.399-17.995 3.288-37.181-2.336-51.078-16.901-13.919-14.588-19.281-34.737-16.111-53.622.203-1.21 1.153-2.179 2.359-2.399 17.994-3.289 37.181 2.336 51.078 16.901z" fill="#f6a96c"/></g></g><g><g><path d="m91.505 311.647c-13.919 14.588-19.281 34.737-16.111 53.622.203 1.21 1.153 2.179 2.359 2.399 17.995 3.288 37.181-2.336 51.078-16.901 13.919-14.588 19.281-34.737 16.111-53.622-.203-1.21-1.153-2.179-2.359-2.399-17.994-3.289-37.181 2.336-51.078 16.901z" fill="#fed2a4"/></g><g><path d="m68.936 311.647c13.919 14.588 19.281 34.737 16.111 53.622-.203 1.21-1.153 2.179-2.359 2.399-17.995 3.288-37.181-2.336-51.078-16.901-13.919-14.588-19.281-34.737-16.111-53.622.203-1.21 1.153-2.179 2.359-2.399 17.994-3.289 37.181 2.336 51.078 16.901z" fill="#ffbd86"/></g></g></g><g><path d="m186.689 121.547c.36-.267.784-.408 1.228-.408s.868.142 1.229.408c2.232 1.655 4.314 3.481 6.271 5.425v-33.958c0-4.143-3.358-7.5-7.5-7.5s-7.5 3.357-7.5 7.5v33.958c1.958-1.944 4.04-3.77 6.272-5.425z" fill="#f6a96c"/><path d="m188.053 399.702-.136-.019-.136.019c-2.433.333-4.91.502-7.364.506v97.792h15v-97.792c-2.454-.003-4.932-.173-7.364-.506z" fill="#f6a96c"/><path d="m252.639 224.072c-.203-1.21-1.153-2.179-2.359-2.399-3.385-.619-6.812-.921-10.238-.908 11.274-14.138 15.483-32.363 12.598-49.554-.203-1.21-1.153-2.179-2.359-2.399-12.154-2.221-24.845-.36-36.09 5.559.079-1.299.121-2.609.121-3.929 0-20.532-9.709-38.677-24.57-49.697-1.087-.806-2.56-.806-3.647 0-14.861 11.021-24.57 29.166-24.57 49.697 0 1.32.042 2.63.121 3.929-11.244-5.919-23.936-7.78-36.09-5.559-1.207.221-2.156 1.189-2.359 2.399-2.885 17.192 1.324 35.417 12.598 49.554-3.426-.012-6.853.29-10.238.908-1.207.221-2.156 1.189-2.359 2.399-2.885 17.192 1.324 35.417 12.598 49.554-3.426-.012-6.853.29-10.238.908-1.207.221-2.156 1.189-2.359 2.399-2.885 17.192 1.324 35.417 12.598 49.554-3.426-.012-6.853.29-10.238.908-1.207.221-2.156 1.189-2.359 2.399-3.169 18.885 2.192 39.034 16.111 53.622 13.264 13.902 31.345 19.638 48.611 17.274 17.266 2.364 35.347-3.372 48.611-17.274 13.919-14.588 19.281-34.737 16.111-53.622-.203-1.21-1.153-2.179-2.359-2.399-3.385-.619-6.812-.921-10.238-.908 11.274-14.138 15.483-32.363 12.598-49.554-.203-1.21-1.153-2.179-2.359-2.399-3.385-.619-6.812-.921-10.238-.908 11.268-14.137 15.477-32.362 12.591-49.554z" fill="#ffbd86"/><g><path d="m161.523 170.441c0 20.532 9.709 38.677 24.57 49.697 1.087.806 2.56.806 3.647 0 14.861-11.021 24.57-29.166 24.57-49.697s-9.709-38.677-24.57-49.697c-1.087-.806-2.56-.806-3.647 0-14.861 11.02-24.57 29.165-24.57 49.697z" fill="#fed2a4"/></g><g><g><path d="m199.201 185.712c-13.919 14.588-19.281 34.737-16.111 53.622.203 1.21 1.153 2.179 2.359 2.399 17.995 3.288 37.181-2.336 51.078-16.901 13.919-14.588 19.281-34.737 16.111-53.622-.203-1.21-1.153-2.179-2.359-2.399-17.994-3.288-37.18 2.336-51.078 16.901z" fill="#ffbd86"/></g><g><path d="m176.633 185.712c13.919 14.588 19.281 34.737 16.111 53.622-.203 1.21-1.153 2.179-2.359 2.399-17.995 3.288-37.181-2.336-51.078-16.901-13.919-14.588-19.281-34.737-16.111-53.622.203-1.21 1.153-2.179 2.359-2.399 17.994-3.288 37.18 2.336 51.078 16.901z" fill="#f6a96c"/></g></g><g><g><path d="m199.201 238.574c-13.919 14.588-19.281 34.737-16.111 53.622.203 1.21 1.153 2.179 2.359 2.399 17.995 3.288 37.181-2.336 51.078-16.901 13.919-14.588 19.281-34.737 16.111-53.622-.203-1.21-1.153-2.179-2.359-2.399-17.994-3.288-37.18 2.336-51.078 16.901z" fill="#f6a96c"/></g><g><path d="m176.633 238.574c13.919 14.588 19.281 34.737 16.111 53.622-.203 1.21-1.153 2.179-2.359 2.399-17.995 3.288-37.181-2.336-51.078-16.901-13.919-14.588-19.281-34.737-16.111-53.622.203-1.21 1.153-2.179 2.359-2.399 17.994-3.288 37.18 2.336 51.078 16.901z" fill="#ffbd86"/></g></g><g><g><path d="m199.201 291.436c-13.919 14.588-19.281 34.737-16.111 53.622.203 1.21 1.153 2.179 2.359 2.399 17.995 3.288 37.181-2.336 51.078-16.901 13.919-14.588 19.281-34.737 16.111-53.622-.203-1.21-1.153-2.179-2.359-2.399-17.994-3.288-37.18 2.336-51.078 16.901z" fill="#ffbd86"/></g><g><path d="m176.633 291.436c13.919 14.588 19.281 34.737 16.111 53.622-.203 1.21-1.153 2.179-2.359 2.399-17.995 3.288-37.181-2.336-51.078-16.901-13.919-14.588-19.281-34.737-16.111-53.622.203-1.21 1.153-2.179 2.359-2.399 17.994-3.288 37.18 2.336 51.078 16.901z" fill="#f6a96c"/></g></g><g><g><path d="m199.201 344.298c-13.919 14.588-19.281 34.737-16.111 53.622.203 1.21 1.153 2.179 2.359 2.399 17.995 3.288 37.181-2.336 51.078-16.901 13.919-14.588 19.281-34.737 16.111-53.622-.203-1.21-1.153-2.179-2.359-2.399-17.994-3.288-37.18 2.336-51.078 16.901z" fill="#f6a96c"/></g><g><path d="m176.633 344.298c13.919 14.588 19.281 34.737 16.111 53.622-.203 1.21-1.153 2.179-2.359 2.399-17.995 3.288-37.181-2.336-51.078-16.901-13.919-14.588-19.281-34.737-16.111-53.622.203-1.21 1.153-2.179 2.359-2.399 17.994-3.288 37.18 2.336 51.078 16.901z" fill="#ffbd86"/></g></g></g></g><g><path d="m433.944 252.905c-8.183 0-15.996 1.867-23.178 5.229v31.459c6.443-6.785 14.522-10.899 23.178-10.899 20.41 0 37.652 22.81 37.652 49.809 0 17.059-6.888 32.438-17.104 41.455 3.915 8.125 6.833 16.734 8.669 25.643 20.33-12.596 34.225-37.906 34.225-67.098-.001-41.751-28.405-75.598-63.442-75.598z" fill="#99e6fc"/><path d="m291.748 326.155c-29.075 20.103-48.127 53.671-48.127 91.694 0 31.475 13.061 59.892 34.049 80.151h154.718c20.988-20.26 34.049-48.676 34.049-80.151 0-38.023-19.052-71.591-48.127-91.694-4.077-2.819-6.546-7.426-6.546-12.382v-97.236c0-2.761-2.239-5-5-5h-130.228c-1.657 0-3 1.343-3 3v9.507c0 .655.214 1.292.61 1.814l22.113 29.138c1.32 1.739 2.034 3.862 2.034 6.045v52.732c.001 4.957-2.468 9.563-6.545 12.382z" fill="#c8effe"/><path d="m289.709 473.177c-13.031-15.34-20.298-34.801-20.298-55.328 0-20.354 7.371-39.864 20.167-55.117 8.31-14.565 19.808-27.076 33.549-36.577 4.077-2.819 6.546-7.426 6.546-12.382v-52.732c0-2.183-.714-4.306-2.034-6.045l-22.113-29.138c-.396-.522-.61-1.159-.61-1.814v-9.507c0-1.657 1.343-3 3-3h-31.379c-1.657 0-3 1.343-3 3v9.507c0 .655.214 1.292.61 1.814l22.113 29.138c1.32 1.739 2.034 3.862 2.034 6.045v52.732c0 4.956-2.469 9.563-6.546 12.382-29.075 20.103-48.127 53.671-48.127 91.694 0 31.475 13.061 59.892 34.049 80.151h31.379c-7.556-7.294-14.078-15.651-19.34-24.823z" fill="#99e6fc"/><g><path d="m397.201 344.141h-84.343c-.922 0-1.834.247-2.619.73-25.221 15.528-40.829 43.359-40.829 72.978 0 22.371 8.611 43.49 23.931 59.372.93.964 2.227 1.49 3.567 1.49h116.244c1.34 0 2.637-.526 3.567-1.49 15.319-15.882 23.931-37.001 23.931-59.372 0-29.619-15.608-57.45-40.829-72.978-.786-.484-1.697-.73-2.62-.73z" fill="#fac600"/></g><g><path d="m300.761 417.849c0-29.619 15.608-57.45 40.829-72.978.786-.484 1.697-.73 2.619-.73h-31.351c-.922 0-1.834.247-2.619.73-25.221 15.528-40.829 43.359-40.829 72.978 0 22.371 8.611 43.49 23.931 59.372.93.964 2.227 1.49 3.567 1.49h31.351c-1.34 0-2.637-.526-3.567-1.49-15.32-15.882-23.931-37.001-23.931-59.372z" fill="#e8b800"/></g></g></g><g><path d="m491.973 512h-471.946c-4.142 0-7.5-3.357-7.5-7.5s3.358-7.5 7.5-7.5h471.945c4.142 0 7.5 3.357 7.5 7.5s-3.357 7.5-7.499 7.5z" fill="#ffbd86"/></g></g></svg>