<svg id="Capa_1" enable-background="new 0 0 512 512" height="512" viewBox="0 0 512 512" width="512" xmlns="http://www.w3.org/2000/svg"><g><g><path d="m508.164 264.649-1.36-3.361c-13.658-33.752-56.781-43.543-83.675-18.998l-41.607 37.972c5.312 14.396 8.216 29.948 8.216 46.167 0 11.597-1.494 23.127-4.439 34.27l-.114.581 89.604-26.984c29.453-8.871 44.913-41.134 33.375-69.647z" fill="#ffe5c2"/><path d="m450.784 164.22c-24.31-26.881-68.019-21.038-84.414 11.285l-24.564 48.428c20.397 17.104 35.634 40.166 43.001 66.485l61.197-52.231c22.15-18.904 24.313-52.368 4.78-73.967z" fill="#fff3de"/><path d="m349.103 230.52 36.797-67.562c13.791-25.322 3.382-57.029-22.734-69.249-30.408-14.228-65.923 4.936-70.724 38.162l-9.192 63.613c25.288 5.257 47.978 17.679 65.853 35.036z" fill="#ffe5c2"/><path d="m219.74 197.689c11.536-3.253 23.697-4.998 36.26-4.998 12.562 0 24.724 1.744 36.26 4.998l12.452-72.275c5.205-30.209-18.058-57.822-48.712-57.822-30.654 0-53.917 27.613-48.712 57.822z" fill="#fff3de"/><g><path d="m162.897 230.52c17.875-17.357 40.565-29.779 65.854-35.035l-9.192-63.613c-4.801-33.227-40.317-52.391-70.724-38.162-26.116 12.22-36.526 43.927-22.734 69.249z" fill="#ffe5c2"/><path d="m170.194 223.933-24.564-48.428c-16.395-32.323-60.104-38.166-84.414-11.285-19.533 21.599-17.37 55.063 4.78 73.968l61.197 52.231c7.368-26.32 22.604-49.382 43.001-66.486z" fill="#fff3de"/><path d="m122.263 326.429c0-16.218 2.904-31.77 8.216-46.167l-41.608-37.972c-26.894-24.545-70.017-14.754-83.675 18.998l-1.36 3.361c-11.539 28.513 3.922 60.776 33.375 69.646l89.522 26.96-.032-.556c-2.945-11.142-4.438-22.673-4.438-34.27z" fill="#ffe5c2"/></g></g><path d="m256 191.692c-74.413 0-134.737 60.324-134.737 134.737 0 11.935 1.559 23.505 4.472 34.525l51.275 15.441c-2.573-8.081-3.925-16.563-3.925-25.146 0-45.72 37.196-82.916 82.916-82.916s82.916 37.196 82.916 82.916c0 8.584-1.352 17.065-3.925 25.146l51.275-15.441c2.913-11.02 4.472-22.59 4.472-34.525-.002-74.413-60.326-134.737-134.739-134.737z" fill="#fed2a4"/><path d="m320.657 404.738c12.027-14.522 19.258-33.16 19.258-53.489 0-46.345-37.57-83.915-83.915-83.915s-83.915 37.57-83.915 83.915c0 20.329 7.231 38.967 19.258 53.489z" fill="#f2fbff"/><path d="m234.16 404.738c-12.034-14.521-19.278-33.155-19.278-53.489 0-38.949 26.539-71.691 62.517-81.153-6.833-1.797-14.002-2.763-21.398-2.763-46.345 0-83.915 37.57-83.915 83.916 0 20.329 7.231 38.967 19.258 53.489z" fill="#dff6fd"/><path d="m168.656 179.593c-5.322 22.4-12.272 29.35-34.672 34.672-2.779.66-2.779 4.64 0 5.3 22.4 5.322 29.35 12.272 34.672 34.672.66 2.779 4.64 2.779 5.3 0 5.322-22.4 12.272-29.35 34.672-34.672 2.779-.66 2.779-4.64 0-5.3-22.4-5.322-29.35-12.272-34.672-34.672-.66-2.779-4.64-2.779-5.3 0z" fill="#fdb441"/><g><path d="m152.864 207.198c-4.712 3.002-10.783 5.143-18.88 7.067-2.779.66-2.779 4.64 0 5.3 22.4 5.322 29.35 12.272 34.672 34.672.66 2.779 4.64 2.779 5.3 0 1.924-8.097 4.065-14.168 7.067-18.88-4.754-16.715-11.444-23.406-28.159-28.159z" fill="#fea613"/></g><path d="m267.936 29.49c-5.322 22.4-12.272 29.35-34.672 34.672-2.779.66-2.779 4.64 0 5.3 22.4 5.322 29.35 12.272 34.672 34.672.66 2.779 4.64 2.779 5.3 0 5.322-22.4 12.272-29.35 34.672-34.672 2.779-.66 2.779-4.64 0-5.3-22.4-5.322-29.35-12.272-34.672-34.672-.66-2.778-4.64-2.778-5.3 0z" fill="#fdb441"/><g><path d="m252.706 56.738c-4.788 3.194-11.023 5.424-19.442 7.424-2.779.66-2.779 4.64 0 5.3 22.4 5.322 29.35 12.272 34.672 34.672.66 2.779 4.64 2.779 5.3 0 2-8.419 4.231-14.654 7.424-19.442-4.735-16.546-11.408-23.219-27.954-27.954z" fill="#fea613"/></g><path d="m305.99 257.88c-6.04 25.424-13.928 33.312-39.352 39.352-3.154.749-3.154 5.266 0 6.015 25.424 6.04 33.312 13.928 39.352 39.352.749 3.154 5.266 3.154 6.015 0 6.04-25.424 13.928-33.312 39.352-39.352 3.154-.749 3.154-5.266 0-6.015-25.424-6.04-33.312-13.928-39.352-39.352-.749-3.154-5.265-3.154-6.015 0z" fill="#fdb441"/><g><path d="m287.765 289.402c-5.305 3.307-12.109 5.687-21.126 7.829-3.154.749-3.154 5.266 0 6.015 25.424 6.04 33.312 13.928 39.352 39.352.749 3.154 5.266 3.154 6.015 0 2.142-9.017 4.522-15.821 7.829-21.126-5.404-19.062-13.008-26.665-32.07-32.07z" fill="#fea613"/></g><path d="m13.709 415.557v15.932c0 29.329 23.776 53.105 53.105 53.105 14.814 0 28.205-6.071 37.837-15.854 9.632 9.783 23.023 15.854 37.837 15.854 14.814 0 28.205-6.071 37.837-15.854 9.632 9.783 23.023 15.854 37.837 15.854 14.814 0 28.205-6.071 37.837-15.854 9.632 9.783 23.023 15.854 37.837 15.854 14.814 0 28.205-6.071 37.837-15.854 9.632 9.783 23.023 15.854 37.837 15.854 14.814 0 28.205-6.071 37.837-15.854 9.632 9.783 23.023 15.854 37.837 15.854 29.329 0 53.105-23.776 53.105-53.105v-15.932c0-6.527-5.292-11.819-11.819-11.819h-460.942c-6.528 0-11.819 5.292-11.819 11.819z" fill="#fff3de"/><g><path d="m67.477 431.489v-15.932c0-6.527 5.292-11.819 11.819-11.819h-53.768c-6.527 0-11.819 5.292-11.819 11.819v15.932c0 29.329 23.776 53.105 53.105 53.105 9.812 0 18.991-2.676 26.876-7.317-15.682-9.231-26.213-26.275-26.213-45.788z" fill="#ffe5c2"/></g></g></svg>