<svg id="Capa_1" enable-background="new 0 0 512 512" height="512" viewBox="0 0 512 512" width="512" xmlns="http://www.w3.org/2000/svg"><g><g><path d="m439.251 291.719-105.925-100.534c-20.102-19.078-51.622-19.078-71.723 0l-105.925 100.534z" fill="#fff3de"/><path d="m209.392 291.719 105.924-100.533c2.799-2.656 5.825-4.929 9.005-6.846-19.659-11.849-45.416-9.576-62.718 6.846l-105.925 100.533z" fill="#ffe5c2"/><path d="m497.503 290.719h-400.077c-5.87 0-10.592 4.901-10.297 10.764 1.589 31.564 10.142 61.286 24.133 87.684l11.121-12.171c5.652-6.186 13.698-9.732 22.077-9.732 8.378 0 16.425 3.547 22.076 9.732l72.18 78.989 25.731-28.158c5.651-6.186 13.698-9.732 22.076-9.732s16.425 3.547 22.076 9.732l33.099 36.222h67.064c5.606 0 11.063-1.825 15.536-5.204 48.207-36.423 80.264-93.09 83.5-157.362.297-5.863-4.424-10.764-10.295-10.764z" fill="#a44f3e"/><path d="m122.383 376.996c5.652-6.186 13.698-9.732 22.077-9.732 4.606 0 9.109 1.078 13.171 3.071-8.755-21.416-14.099-44.588-15.321-68.852-.295-5.863 4.426-10.764 10.297-10.764h-55.181c-5.87 0-10.592 4.901-10.297 10.764 1.589 31.564 10.142 61.285 24.133 87.684z" fill="#883f2e"/></g><g><path d="m188.444 511 50.949-55.756-72.119-78.923c-12.254-13.41-33.375-13.41-45.629 0l-116.099 127.054c-3.021 3.305-.676 8.625 3.802 8.625h176.828z" fill="#fff3de"/><g><path d="m48.583 503.375 116.1-127.053c.421-.461.855-.902 1.296-1.331-12.401-12.059-32.501-11.618-44.334 1.331l-116.099 127.053c-3.021 3.305-.676 8.625 3.802 8.625h43.038c-4.478 0-6.824-5.32-3.803-8.625z" fill="#ffe5c2"/></g><g><path d="m263.709 427.152-77.533 84.848h189.011c4.478 0 6.823-5.32 3.802-8.626l-69.651-76.222c-12.254-13.41-33.375-13.41-45.629 0z" fill="#c8effe"/></g></g><g><path d="m415.469 125.865-23.204 23.204c-1.207 1.207-3.164 1.207-4.371 0l-23.204-23.204c-1.207-1.207-1.207-3.164 0-4.371l23.204-23.204c1.207-1.207 3.164-1.207 4.371 0l23.204 23.204c1.207 1.208 1.207 3.164 0 4.371z" fill="#fff3de"/></g><g><path d="m385.678 125.865c-1.207-1.207-1.207-3.164 0-4.371l14.895-14.895-8.309-8.309c-1.207-1.207-3.164-1.207-4.371 0l-23.204 23.204c-1.207 1.207-1.207 3.164 0 4.371l23.204 23.204c1.207 1.207 3.164 1.207 4.371 0l8.309-8.309z" fill="#ffe5c2"/></g><g><path d="m296.682 28.48-23.204 23.204c-1.207 1.207-3.164 1.207-4.371 0l-23.204-23.204c-1.207-1.207-1.207-3.164 0-4.371l23.204-23.204c1.207-1.207 3.164-1.207 4.371 0l23.204 23.204c1.207 1.207 1.207 3.164 0 4.371z" fill="#fff3de"/></g><g><path d="m267.207 28.48c-1.207-1.207-1.207-3.164 0-4.371l14.737-14.737-8.466-8.466c-1.207-1.207-3.164-1.207-4.371 0l-23.204 23.204c-1.207 1.207-1.207 3.164 0 4.371l23.204 23.204c1.207 1.207 3.164 1.207 4.371 0l8.466-8.466z" fill="#ffe5c2"/></g><g><path d="m212.161 137.125-23.204 23.204c-1.207 1.207-3.164 1.207-4.371 0l-23.204-23.204c-1.207-1.207-1.207-3.164 0-4.371l23.204-23.204c1.207-1.207 3.164-1.207 4.371 0l23.204 23.204c1.207 1.207 1.207 3.164 0 4.371z" fill="#fff3de"/></g><g><path d="m182.732 137.125c-1.207-1.207-1.207-3.164 0-4.371l14.714-14.714-8.49-8.49c-1.207-1.207-3.164-1.207-4.371 0l-23.204 23.204c-1.207 1.207-1.207 3.164 0 4.371l23.204 23.204c1.207 1.207 3.164 1.207 4.371 0l8.49-8.49z" fill="#ffe5c2"/></g><g><circle cx="114.308" cy="434.736" fill="#fff" r="7.5"/></g><g><circle cx="147.273" cy="445.038" fill="#fff" r="7.5"/></g><g><circle cx="294.589" cy="213.247" fill="#fff" r="7.5"/></g><g><circle cx="284.288" cy="453.28" fill="#fff" r="7.5"/></g><g><circle cx="257.503" cy="476.974" fill="#fff" r="7.5"/></g><g><circle cx="254.412" cy="235.911" fill="#fff" r="7.5"/></g><g><circle cx="285.318" cy="252.394" fill="#fff" r="7.5"/></g><g><circle cx="98.855" cy="465.642" fill="#fff" r="7.5"/></g><g><circle cx="144.183" cy="405.891" fill="#fff" r="7.5"/></g></g></svg>