<svg id="Capa_1" enable-background="new 0 0 512 512" height="512" viewBox="0 0 512 512" width="512" xmlns="http://www.w3.org/2000/svg"><g><g><path d="m216.548 297.447-17.92 123.927c-1.439 9.951-.615 19.644 2.017 28.533.743.41 1.474.832 2.203 1.254 12.92-4.19 27.133-6.511 41.856-6.511 23.17 0 45.085 5.728 62.655 15.495 5.612-11.42 8.027-24.842 6.013-38.771l-17.92-123.927c-3.561-24.623 1.861-49.776 15.131-70.191l31.87-49.032h-172.906l31.87 49.032c13.27 20.416 18.692 45.568 15.131 70.191z" fill="#fff3de"/><g><path d="m244.596 227.257-31.87-49.032h-43.179l31.87 49.032c13.269 20.415 18.691 45.567 15.131 70.191l-17.92 123.927c-1.439 9.951-.615 19.644 2.017 28.533.743.41 1.474.832 2.203 1.254 8.698-2.821 17.991-4.769 27.624-5.753v-58.576c0-4.142 3.357-7.5 7.5-7.5s7.5 3.358 7.5 7.5v9.199l14.255-98.584c3.561-24.624-1.861-49.776-15.131-70.191z" fill="#ffe5c2"/></g><g><path d="m237.972 379.332c-4.143 0-7.5 3.358-7.5 7.5v58.556c4.674-.478 9.424-.738 14.232-.738.257 0 .511.01.768.011v-57.829c0-4.142-3.358-7.5-7.5-7.5z" fill="#ffbd86"/><path d="m274.028 379.332c-4.143 0-7.5 3.358-7.5 7.5v59.544c5.135.815 10.148 1.908 15 3.264v-62.808c0-4.142-3.357-7.5-7.5-7.5z" fill="#f6a96c"/></g><g><path d="m256 15.062c-81.932 0-149.845 60.022-162.167 138.494-2.121 13.508 8.498 25.669 22.171 25.669h279.992c13.673 0 24.292-12.161 22.171-25.669-12.322-78.471-80.235-138.494-162.167-138.494z" fill="#a44f3e"/></g><g><path d="m147.733 153.556c10.942-69.68 65.717-124.807 135.217-136.286-8.769-1.448-17.771-2.208-26.95-2.208-81.932 0-149.845 60.022-162.167 138.494-2.121 13.508 8.498 25.669 22.171 25.669h53.9c-13.673 0-24.292-12.161-22.171-25.669z" fill="#883f2e"/></g></g><g><g><path d="m261.29 64.883h-16.705c-4.143 0-7.5-3.358-7.5-7.5s3.357-7.5 7.5-7.5h16.705c4.143 0 7.5 3.358 7.5 7.5s-3.357 7.5-7.5 7.5z" fill="#f6a96c"/></g><g><path d="m186.672 98.295h-16.706c-4.143 0-7.5-3.358-7.5-7.5s3.357-7.5 7.5-7.5h16.706c4.143 0 7.5 3.358 7.5 7.5s-3.358 7.5-7.5 7.5z" fill="#f6a96c"/></g><g><path d="m330.34 103.863h-16.705c-4.143 0-7.5-3.358-7.5-7.5s3.357-7.5 7.5-7.5h16.705c4.143 0 7.5 3.358 7.5 7.5s-3.358 7.5-7.5 7.5z" fill="#f6a96c"/></g><g><path d="m373.775 146.185h-16.706c-4.143 0-7.5-3.358-7.5-7.5s3.357-7.5 7.5-7.5h16.706c4.143 0 7.5 3.358 7.5 7.5s-3.357 7.5-7.5 7.5z" fill="#f6a96c"/></g><g><path d="m159.942 146.185h-16.706c-4.143 0-7.5-3.358-7.5-7.5s3.357-7.5 7.5-7.5h16.706c4.143 0 7.5 3.358 7.5 7.5s-3.357 7.5-7.5 7.5z" fill="#f6a96c"/></g><g><path d="m257.949 122.796h-16.706c-4.143 0-7.5-3.358-7.5-7.5s3.357-7.5 7.5-7.5h16.706c4.143 0 7.5 3.358 7.5 7.5s-3.357 7.5-7.5 7.5z" fill="#f6a96c"/></g></g><g><path d="m117.539 360.651c-2.076-13.332 1.085-26.95 8.823-38.003l10.493-14.99h-84.644l10.493 14.99c7.738 11.053 10.899 24.672 8.823 38.003l-10.45 67.098c-.73 4.685-.456 9.262.632 13.543 18.451-6.967 38.953-10.617 60.105-10.617 2.176 0 4.34.051 6.498.127-.066-1.012-.165-2.029-.325-3.052z" fill="#fff3de"/><path d="m71.527 360.651-10.45 67.098c-.73 4.685-.456 9.262.632 13.543 6.607-2.495 13.477-4.561 20.546-6.188-.149-2.403-.048-4.863.34-7.354l10.45-67.098c2.076-13.332-1.085-26.95-8.823-38.003l-10.493-14.99h-21.518l10.493 14.99c7.738 11.052 10.9 24.67 8.823 38.002z" fill="#ffe5c2"/><path d="m200.489 451.949 2.363-1.937c-22.255-12.723-50.4-20.338-81.036-20.338-54.879 0-101.818 24.39-121.088 58.923-2.085 3.737.554 8.339 4.833 8.339h140.023l1.696-1.39c8.738-19.438 28.425-35.014 53.209-43.597z" fill="#ffbd86"/><g><path d="m94.533 224.029c-38.922 0-71.707 26.275-81.585 62.055-3.137 11.361 5.495 22.574 17.281 22.574h128.609c11.786 0 20.417-11.213 17.281-22.574-9.879-35.78-42.664-62.055-81.586-62.055z" fill="#a44f3e"/></g><g><path d="m56.124 286.084c7.984-28.921 30.937-51.623 59.997-59.268-6.893-1.813-14.126-2.787-21.588-2.787-38.922 0-71.707 26.275-81.585 62.055-3.137 11.361 5.495 22.574 17.281 22.574h43.176c-11.786 0-20.418-11.213-17.281-22.574z" fill="#883f2e"/></g></g><g><path d="m437.664 441.456v-50.22h-43.435v46.788c3.038-.169 6.098-.259 9.179-.259 11.84 0 23.358 1.28 34.256 3.691z" fill="#fff3de"/><path d="m415.678 438.235v-46.999h-21.449v46.788c3.038-.169 6.098-.259 9.179-.259 4.134 0 8.227.164 12.27.47z" fill="#ffe5c2"/><path d="m511.267 488.655c-17.52-30.457-59.201-51.89-107.859-51.89-34.47 0-65.428 10.762-86.787 27.863l2.93 3.48c9.608 7.364 17.164 16.177 21.905 26.018l2.368 2.813h162.576c4.25-.002 6.986-4.6 4.867-8.284z" fill="#f6a96c"/><g><path d="m415.947 307.607c-34.081 0-62.676 27.39-70.476 64.322-2.207 10.447 5.642 20.308 16.319 20.308h108.315c10.677 0 18.526-9.861 16.319-20.308-7.802-36.932-36.396-64.322-70.477-64.322z" fill="#a44f3e"/></g><g><path d="m389.267 371.928c6.054-28.66 24.634-51.564 48.578-60.391-6.911-2.547-14.265-3.931-21.898-3.931-34.081 0-62.676 27.39-70.476 64.322-2.207 10.447 5.642 20.308 16.319 20.308h43.797c-10.678 0-18.527-9.861-16.32-20.308z" fill="#883f2e"/></g></g><g><path d="m43.792 488.598c16.699-29.927 54.185-52.223 99.604-57.642-7.02-.841-14.228-1.281-21.58-1.281-54.879 0-101.818 24.39-121.088 58.923-2.085 3.737.554 8.339 4.833 8.339h43.065c-4.28 0-6.919-4.602-4.834-8.339z" fill="#f6a96c"/></g><g><path d="m343.824 496.937c-12.64-30.802-52.22-53.287-99.12-53.287s-86.481 22.485-99.12 53.287z" fill="#ffbd86"/></g><g><path d="m266.208 445.265c-6.937-1.057-14.129-1.615-21.504-1.615-46.9 0-86.481 22.485-99.12 53.287h43.009c10.651-25.958 40.439-46.008 77.615-51.672z" fill="#f6a96c"/></g></g></svg>